<svg width="21" height="21" viewBox="0 0 21 21" fill="none" xmlns="http://www.w3.org/2000/svg">
<mask id="mask0_289_9822" style="mask-type:alpha" maskUnits="userSpaceOnUse" x="0" y="0" width="21" height="21">
<rect x="0.713379" y="0.0241699" width="20" height="20" fill="#D9D9D9"/>
</mask>
<g mask="url(#mask0_289_9822)">
<path d="M74.4961 5.42357C74.4366 4.75316 74.1697 2.98238 75.7054 2.4728C77.0159 2.03648 78.1078 2.41388 78.6529 3.47444C79.5904 5.29936 79.3717 10.1117 77.9631 13.373C76.556 16.6342 73.5715 16.9575 70.9487 16.4018C68.326 15.8476 66.2291 13.357 67.5493 11.4748C68.8695 9.59254 70.0386 11.0894 70.6287 11.5799C73.5281 13.9829 74.3417 10.6037 74.3417 10.6037C70.5049 12.1548 69.0625 8.16413 68.8341 5.67199C68.6058 3.17984 69.9566 2.16706 71.1497 2.40592C72.7417 2.72441 72.195 5.60192 72.3702 6.50801C72.5455 7.4141 73.5136 7.25804 73.5136 7.25804C73.5136 7.25804 74.6585 7.26282 74.4945 5.42357H74.4961ZM57.7932 2.29445C56.5453 2.29445 55.6384 2.75785 55.6384 4.14644C55.6384 6.30577 56.7447 9.05589 57.7739 11.4286C58.364 12.7901 59.2565 15.1676 60.8662 15.5785C61.1797 15.6804 61.8278 15.7075 62.1398 15.7075C64.5036 15.7075 65.2514 13.5322 65.9267 11.3458C66.4461 9.77726 68.1845 5.8169 68.1845 4.47926C68.1845 3.42507 67.5348 2.44732 66.3931 2.44732C65.901 2.44732 65.2514 2.62727 64.9137 2.98716C63.9971 3.69101 63.8893 5.86945 63.0789 8.53517C62.8923 9.14984 62.508 10.0687 62.143 10.0687C61.7779 10.0687 61.429 9.97313 61.1685 8.89346C60.8051 7.37588 59.9238 4.55729 59.2999 3.16869C58.9896 2.50147 58.4685 2.29445 57.7948 2.29445H57.7932ZM54.7989 5.54619C54.4162 3.9028 54.5674 2.83428 54.0834 2.76581C52.4045 2.53013 52.3708 5.99843 51.9076 8.53676C51.7967 9.14029 51.6021 10.1021 51.2274 10.1021C50.8528 10.1021 50.491 9.96676 50.224 8.85206C49.8493 7.2883 48.944 4.62099 48.3024 3.18939C47.9824 2.50147 47.4453 2.28808 46.7506 2.28808C45.4641 2.28808 44.5299 2.76581 44.5299 4.1974C44.5299 6.42361 45.6555 8.93965 46.7152 11.384C47.3231 12.7869 48.2493 15.0625 49.9088 15.4861C50.232 15.5912 50.901 15.6183 51.221 15.6183C53.6572 15.6183 54.4339 13.6309 55.1286 11.3776C55.217 11.1101 55.3216 10.7725 55.4245 10.419C55.6416 9.67375 55.6303 8.8855 55.4164 8.13865C55.2283 7.48735 55.0546 6.63222 54.8006 5.543L54.7989 5.54619ZM44.6617 8.68486C44.6617 7.55264 44.3803 6.50005 43.8175 5.52867C43.2531 4.5557 42.5005 3.78337 41.5598 3.2101C40.619 2.63682 39.6172 2.34859 38.5543 2.34859C37.4914 2.34859 36.4622 2.62568 35.5135 3.17347C34.5631 3.72445 33.7977 4.51589 33.2188 5.55255C32.6415 6.58763 32.3504 7.79151 32.3504 9.16258C32.3504 10.3903 32.6238 11.4939 33.1721 12.4748C33.7189 13.4558 34.4972 14.2233 35.5022 14.7823C36.5088 15.3412 37.6876 15.6183 39.0383 15.6183C39.8102 15.6183 40.8876 15.5992 42.0486 15.0243C42.7626 14.6708 43.6101 14.0609 44.1488 13.5784C44.5733 13.1978 44.7405 12.7041 44.7405 12.2742C44.7405 11.9557 44.591 11.7009 44.3787 11.4382C44.1455 11.1483 44.0201 10.9254 43.4959 10.8729C43.2402 10.8474 42.9475 11.0018 42.6565 11.1436C42.5761 11.1929 42.3236 11.2964 41.928 11.5544C41.4954 11.8363 40.8538 12.2009 39.5256 12.2742C38.5559 12.3283 37.8596 11.9828 37.2968 11.3999C36.7195 10.8028 36.7629 10.4238 36.7291 10.1021L43.1887 9.97631C43.5763 9.97631 43.914 9.85688 44.2018 9.61802C44.4929 9.37915 44.6456 9.06704 44.6617 8.68645V8.68486ZM37.8162 5.586C38.3115 5.38694 39.2988 5.27866 39.9662 5.72294C40.3714 5.99206 40.6207 6.29781 40.7718 6.57648C40.8249 6.67521 40.8474 6.77872 40.8442 6.87905C40.8297 7.28352 40.3602 7.51283 40.0032 7.31856C39.6462 7.12428 39.4178 6.82331 38.7666 6.81535C37.9448 6.80579 37.4673 7.22301 37.1038 7.39499C36.9221 7.48098 36.6954 7.45391 36.5651 7.30104C36.4477 7.16409 36.4156 6.96185 36.5169 6.76917C36.8562 6.12264 37.4045 5.75002 37.8162 5.586ZM31.6445 11.8124L28.7065 11.7805V4.29295C28.7065 3.01901 27.7964 2.41229 26.6128 2.41229H26.042C24.9195 2.41229 24.3069 3.01901 24.3069 4.29295V13.3698C24.3069 14.846 25.0627 15.5928 26.4102 15.5928C26.4102 15.5928 30.4111 15.5817 32.3713 15.5928C32.7395 15.5944 33.5436 15.631 33.7044 14.9718C32.1719 14.1867 31.704 12.0067 31.6477 11.8124H31.6445ZM12.5503 8.24535C12.4924 8.82499 13.1341 8.19757 13.7194 8.2549C14.3047 8.31223 14.6119 9.03519 14.6698 8.45555C14.7276 7.8759 14.3015 7.35837 13.7162 7.30104C13.1308 7.24371 12.6082 7.6657 12.5503 8.24535ZM15.1071 14.5816C12.5809 17.1741 9.16053 16.7839 7.26784 15.6183C5.3848 14.459 4.80268 13.0545 4.85092 12.3506C4.97314 10.6021 8.75691 10.4907 8.99008 9.36642C9.31812 7.79151 7.52835 7.17205 6.16471 7.85361C4.76409 8.55428 4.25112 9.29635 4.25112 9.29635C4.25112 9.29635 4.76087 4.0923 10.3907 3.79133C16.0205 3.49036 17.0256 8.43325 17.0256 8.43325C17.0256 8.43325 16.0334 6.67044 13.5554 6.67044C11.333 6.67044 10.8426 8.95875 12.6886 9.18806C14.4109 9.40304 19.0485 10.5368 15.1071 14.58V14.5816ZM13.3544 10.0273C13.1694 9.9572 12.962 10.0496 12.8912 10.2327C12.8864 10.2438 12.4249 11.3904 11.7045 11.3904C11.6981 11.3904 11.6916 11.3904 11.6852 11.3904C11.5196 11.3856 11.3041 11.0926 11.2124 10.884C11.2124 10.884 11.2124 10.8824 11.2108 10.8808C11.4794 10.7407 11.6418 10.5448 11.6112 10.3537C11.563 10.0591 11.0709 9.89192 10.5129 9.98109C9.95491 10.0703 9.54164 10.3824 9.58988 10.677C9.62848 10.9158 9.95813 11.0671 10.3762 11.0703C10.3634 11.2948 10.2846 11.5926 10.1463 11.6547C9.48536 11.9589 8.58806 11.0751 8.5768 11.0639C8.43851 10.9238 8.21177 10.919 8.07026 11.056C7.92715 11.1929 7.92393 11.4175 8.06062 11.5576C8.10243 11.6006 8.92254 12.4302 9.84556 12.4302C10.0434 12.4302 10.2476 12.392 10.447 12.2997C10.6978 12.1834 10.8506 11.9716 10.9455 11.7519C11.124 11.935 11.3636 12.0895 11.6611 12.099C11.6755 12.099 11.6884 12.099 11.7029 12.099C12.9282 12.099 13.5329 10.5496 13.5586 10.4827C13.6277 10.2996 13.5345 10.0957 13.3495 10.0257L13.3544 10.0273ZM6.87869 9.4126C7.4383 9.23106 8.16032 9.65305 7.977 9.09889C7.79368 8.54472 7.19226 8.24375 6.63266 8.42529C6.07305 8.60683 5.76913 9.20239 5.95245 9.75656C6.13577 10.3107 6.31908 9.59413 6.87869 9.4126ZM20.6099 10.0241C20.6099 15.4654 16.1556 19.8748 10.6625 19.8748C5.16932 19.8748 0.713379 15.4654 0.713379 10.0241C0.713379 4.58277 5.16771 0.17334 10.6609 0.17334C16.154 0.17334 20.6083 4.58436 20.6083 10.0241H20.6099ZM19.0742 10.0241C19.0742 5.42357 15.3082 1.69251 10.6609 1.69251C6.01355 1.69251 2.24908 5.42357 2.24908 10.0241C2.24908 14.6246 6.01516 18.3557 10.6625 18.3557C15.3098 18.3557 19.0758 14.6262 19.0758 10.0241H19.0742Z" fill="url(#paint0_linear_289_9822)"/>
</g>
<defs>
<linearGradient id="paint0_linear_289_9822" x1="0.713379" y1="10.0241" x2="79.2206" y2="10.0241" gradientUnits="userSpaceOnUse">
<stop stop-color="#FF9934"/>
<stop offset="1" stop-color="#45DDB2"/>
</linearGradient>
</defs>
</svg>
