<svg width="1843" height="674" viewBox="0 0 1843 674" fill="none" xmlns="http://www.w3.org/2000/svg">
<g opacity="0.5">
<path fill-rule="evenodd" clip-rule="evenodd" d="M1358.38 552.076C1358.38 551.782 1358.46 551.496 1358.61 551.252C1358.76 551.008 1358.98 550.818 1359.23 550.706C1359.48 550.593 1359.76 550.564 1360.03 550.621C1360.3 550.678 1360.55 550.82 1360.74 551.027C1360.93 551.234 1361.07 551.499 1361.12 551.786C1361.17 552.074 1361.15 552.372 1361.04 552.643C1360.94 552.914 1360.76 553.145 1360.53 553.308C1360.3 553.471 1360.04 553.558 1359.76 553.558C1359.39 553.558 1359.04 553.402 1358.78 553.124C1358.52 552.846 1358.38 552.469 1358.38 552.076Z" fill="#68B7E7"/>
<path fill-rule="evenodd" clip-rule="evenodd" d="M1385.25 392.585C1385.25 392.291 1385.34 392.005 1385.49 391.761C1385.64 391.517 1385.86 391.327 1386.11 391.215C1386.36 391.102 1386.64 391.073 1386.91 391.13C1387.18 391.187 1387.43 391.329 1387.62 391.536C1387.81 391.743 1387.94 392.008 1388 392.295C1388.05 392.583 1388.02 392.881 1387.92 393.152C1387.81 393.423 1387.64 393.654 1387.41 393.817C1387.18 393.98 1386.91 394.067 1386.64 394.067C1386.46 394.067 1386.28 394.029 1386.11 393.954C1385.94 393.88 1385.79 393.771 1385.66 393.633C1385.53 393.495 1385.43 393.332 1385.36 393.152C1385.29 392.972 1385.25 392.779 1385.25 392.585Z" fill="#68B7E7"/>
<path fill-rule="evenodd" clip-rule="evenodd" d="M1186.78 313.366C1186.78 313.073 1186.86 312.786 1187.01 312.542C1187.16 312.299 1187.38 312.109 1187.63 311.997C1187.88 311.884 1188.16 311.855 1188.43 311.912C1188.7 311.97 1188.95 312.111 1189.14 312.318C1189.33 312.525 1189.47 312.79 1189.52 313.077C1189.57 313.365 1189.55 313.663 1189.44 313.934C1189.34 314.205 1189.16 314.436 1188.93 314.599C1188.7 314.762 1188.43 314.849 1188.16 314.849C1187.98 314.849 1187.8 314.811 1187.63 314.736C1187.46 314.662 1187.31 314.552 1187.18 314.415C1187.05 314.277 1186.95 314.113 1186.88 313.933C1186.81 313.754 1186.78 313.561 1186.78 313.366Z" fill="#68B7E7"/>
<path fill-rule="evenodd" clip-rule="evenodd" d="M1147.59 131.659C1147.59 131.365 1147.67 131.079 1147.82 130.835C1147.97 130.591 1148.19 130.401 1148.44 130.289C1148.7 130.176 1148.98 130.147 1149.24 130.204C1149.51 130.261 1149.76 130.403 1149.95 130.61C1150.15 130.817 1150.28 131.082 1150.33 131.369C1150.39 131.657 1150.36 131.955 1150.25 132.226C1150.15 132.497 1149.97 132.728 1149.74 132.891C1149.52 133.054 1149.25 133.141 1148.97 133.141C1148.61 133.141 1148.25 132.985 1147.99 132.707C1147.73 132.429 1147.59 132.052 1147.59 131.659Z" fill="#68B7E7"/>
<path fill-rule="evenodd" clip-rule="evenodd" d="M1273.96 374.074C1273.96 373.781 1274.04 373.494 1274.19 373.25C1274.35 373.006 1274.56 372.816 1274.82 372.704C1275.07 372.592 1275.35 372.563 1275.62 372.62C1275.88 372.677 1276.13 372.818 1276.32 373.026C1276.52 373.233 1276.65 373.497 1276.7 373.785C1276.76 374.072 1276.73 374.37 1276.63 374.641C1276.52 374.912 1276.34 375.144 1276.12 375.307C1275.89 375.469 1275.62 375.556 1275.35 375.556C1275.16 375.556 1274.98 375.518 1274.82 375.444C1274.65 375.369 1274.5 375.26 1274.37 375.122C1274.24 374.985 1274.14 374.821 1274.07 374.641C1274 374.461 1273.96 374.269 1273.96 374.074Z" fill="#406FBB"/>
<path fill-rule="evenodd" clip-rule="evenodd" d="M1339.43 407.872C1339.43 407.579 1339.52 407.293 1339.67 407.049C1339.82 406.805 1340.04 406.615 1340.29 406.503C1340.54 406.39 1340.82 406.361 1341.09 406.418C1341.36 406.475 1341.61 406.616 1341.8 406.824C1341.99 407.031 1342.12 407.295 1342.18 407.583C1342.23 407.871 1342.2 408.169 1342.1 408.44C1341.99 408.711 1341.82 408.942 1341.59 409.105C1341.36 409.268 1341.09 409.355 1340.82 409.355C1340.45 409.355 1340.1 409.199 1339.84 408.921C1339.58 408.643 1339.44 408.266 1339.43 407.872Z" fill="#406FBB"/>
<path fill-rule="evenodd" clip-rule="evenodd" d="M1420.76 475.612C1420.76 475.319 1420.84 475.032 1421 474.788C1421.15 474.544 1421.37 474.354 1421.62 474.242C1421.87 474.13 1422.15 474.1 1422.42 474.157C1422.69 474.215 1422.93 474.356 1423.13 474.563C1423.32 474.77 1423.45 475.035 1423.51 475.322C1423.56 475.61 1423.53 475.908 1423.43 476.179C1423.32 476.45 1423.15 476.681 1422.92 476.844C1422.69 477.007 1422.42 477.094 1422.15 477.094C1421.97 477.094 1421.79 477.056 1421.62 476.981C1421.45 476.907 1421.3 476.798 1421.17 476.66C1421.04 476.522 1420.94 476.359 1420.87 476.179C1420.8 475.999 1420.76 475.806 1420.76 475.612Z" fill="#365CBB"/>
<path d="M1505.89 585.017C1505.13 585.017 1504.51 585.681 1504.51 586.499C1504.51 587.318 1505.13 587.982 1505.89 587.982C1506.66 587.982 1507.28 587.318 1507.28 586.499C1507.28 585.681 1506.66 585.017 1505.89 585.017Z" fill="#365CBB"/>
<path fill-rule="evenodd" clip-rule="evenodd" d="M1340.82 637.208C1340.82 636.815 1340.97 636.438 1341.23 636.159C1341.49 635.881 1341.84 635.725 1342.21 635.725C1342.39 635.725 1342.57 635.763 1342.74 635.838C1342.9 635.912 1343.06 636.022 1343.19 636.159C1343.31 636.297 1343.42 636.461 1343.49 636.64C1343.56 636.82 1343.59 637.013 1343.59 637.208C1343.59 637.403 1343.56 637.595 1343.49 637.775C1343.42 637.955 1343.31 638.119 1343.19 638.256C1343.06 638.394 1342.9 638.503 1342.74 638.578C1342.57 638.652 1342.39 638.69 1342.21 638.69C1342.02 638.69 1341.84 638.652 1341.68 638.578C1341.51 638.503 1341.36 638.394 1341.23 638.256C1341.1 638.119 1341 637.955 1340.93 637.775C1340.86 637.595 1340.82 637.403 1340.82 637.208Z" fill="#365CBB"/>
<path fill-rule="evenodd" clip-rule="evenodd" d="M1252.81 375.552C1252.81 375.259 1252.89 374.972 1253.04 374.728C1253.19 374.484 1253.41 374.294 1253.66 374.182C1253.91 374.07 1254.19 374.041 1254.46 374.098C1254.73 374.155 1254.98 374.297 1255.17 374.504C1255.36 374.711 1255.5 374.975 1255.55 375.263C1255.6 375.551 1255.58 375.849 1255.47 376.12C1255.37 376.39 1255.19 376.622 1254.96 376.785C1254.73 376.948 1254.47 377.035 1254.19 377.035C1254.01 377.035 1253.83 376.996 1253.66 376.922C1253.49 376.847 1253.34 376.738 1253.21 376.6C1253.08 376.463 1252.98 376.299 1252.91 376.119C1252.84 375.939 1252.81 375.746 1252.81 375.552Z" fill="#365CBB"/>
<path d="M1242.73 648.085C1241.96 648.085 1241.34 648.749 1241.34 649.568C1241.34 650.386 1241.96 651.05 1242.73 651.05C1243.49 651.05 1244.11 650.386 1244.11 649.568C1244.11 648.749 1243.49 648.085 1242.73 648.085Z" fill="#365CBB"/>
<path fill-rule="evenodd" clip-rule="evenodd" d="M1520.08 30.6811C1520.08 30.3879 1520.16 30.1012 1520.31 29.8574C1520.46 29.6135 1520.68 29.4235 1520.93 29.3113C1521.19 29.199 1521.46 29.1696 1521.73 29.2268C1522 29.284 1522.25 29.4253 1522.44 29.6326C1522.64 29.84 1522.77 30.1042 1522.82 30.3918C1522.87 30.6794 1522.85 30.9775 1522.74 31.2484C1522.64 31.5193 1522.46 31.7509 1522.23 31.9138C1522 32.0767 1521.74 32.1636 1521.46 32.1636C1521.28 32.1636 1521.1 32.1252 1520.93 32.0507C1520.76 31.9762 1520.61 31.867 1520.48 31.7294C1520.35 31.5917 1520.25 31.4283 1520.18 31.2485C1520.11 31.0686 1520.08 30.8758 1520.08 30.6811Z" fill="#90FFFF"/>
<path fill-rule="evenodd" clip-rule="evenodd" d="M1191.73 617.125C1191.73 616.732 1191.87 616.355 1192.13 616.077C1192.39 615.799 1192.74 615.643 1193.11 615.643C1193.48 615.643 1193.83 615.799 1194.09 616.077C1194.35 616.355 1194.5 616.732 1194.5 617.125C1194.5 617.519 1194.35 617.896 1194.09 618.174C1193.83 618.452 1193.48 618.608 1193.11 618.608C1192.74 618.608 1192.39 618.452 1192.13 618.174C1191.87 617.896 1191.73 617.519 1191.73 617.125Z" fill="#406FBB"/>
<path fill-rule="evenodd" clip-rule="evenodd" d="M1203.66 420.529C1203.66 420.236 1203.74 419.949 1203.9 419.705C1204.05 419.461 1204.26 419.271 1204.52 419.159C1204.77 419.047 1205.05 419.018 1205.32 419.075C1205.59 419.132 1205.83 419.273 1206.03 419.481C1206.22 419.688 1206.35 419.952 1206.41 420.24C1206.46 420.527 1206.43 420.825 1206.33 421.096C1206.22 421.367 1206.04 421.599 1205.82 421.762C1205.59 421.925 1205.32 422.012 1205.05 422.012C1204.87 422.012 1204.69 421.973 1204.52 421.899C1204.35 421.824 1204.2 421.715 1204.07 421.577C1203.94 421.44 1203.84 421.276 1203.77 421.096C1203.7 420.916 1203.66 420.724 1203.66 420.529Z" fill="#406FBB"/>
<path fill-rule="evenodd" clip-rule="evenodd" d="M1557.32 491.609C1557.32 491.316 1557.41 491.029 1557.56 490.785C1557.71 490.542 1557.93 490.352 1558.18 490.239C1558.43 490.127 1558.71 490.098 1558.98 490.155C1559.25 490.212 1559.5 490.353 1559.69 490.561C1559.88 490.768 1560.01 491.032 1560.07 491.32C1560.12 491.608 1560.09 491.906 1559.99 492.177C1559.88 492.448 1559.71 492.679 1559.48 492.842C1559.25 493.005 1558.98 493.092 1558.71 493.092C1558.34 493.092 1557.99 492.936 1557.73 492.658C1557.47 492.38 1557.32 492.002 1557.32 491.609Z" fill="#406FBB"/>
<path fill-rule="evenodd" clip-rule="evenodd" d="M994.088 630.413C994.088 630.019 994.234 629.642 994.494 629.364C994.753 629.086 995.106 628.93 995.473 628.93C995.655 628.93 995.835 628.968 996.003 629.043C996.171 629.117 996.324 629.227 996.453 629.364C996.581 629.502 996.683 629.665 996.753 629.845C996.823 630.025 996.858 630.218 996.858 630.413C996.858 630.806 996.712 631.183 996.453 631.461C996.193 631.739 995.84 631.895 995.473 631.896C995.106 631.895 994.753 631.739 994.494 631.461C994.234 631.183 994.088 630.806 994.088 630.413Z" fill="#406FBB"/>
<path fill-rule="evenodd" clip-rule="evenodd" d="M1484.2 414.042C1484.2 413.749 1484.28 413.462 1484.43 413.219C1484.58 412.975 1484.8 412.785 1485.05 412.673C1485.3 412.561 1485.58 412.531 1485.85 412.588C1486.12 412.646 1486.37 412.787 1486.56 412.994C1486.75 413.202 1486.88 413.466 1486.94 413.753C1486.99 414.041 1486.96 414.339 1486.86 414.61C1486.75 414.881 1486.58 415.112 1486.35 415.275C1486.12 415.438 1485.85 415.525 1485.58 415.525C1485.4 415.525 1485.22 415.487 1485.05 415.412C1484.88 415.338 1484.73 415.228 1484.6 415.091C1484.47 414.953 1484.37 414.79 1484.3 414.61C1484.23 414.43 1484.2 414.237 1484.2 414.042Z" fill="#406FBB"/>
<path fill-rule="evenodd" clip-rule="evenodd" d="M1356.79 12.2941C1356.79 12.0009 1356.87 11.7143 1357.02 11.4705C1357.18 11.2267 1357.39 11.0367 1357.64 10.9245C1357.9 10.8122 1358.18 10.7829 1358.44 10.8401C1358.71 10.8973 1358.96 11.0385 1359.15 11.2458C1359.35 11.4532 1359.48 11.7173 1359.53 12.0049C1359.59 12.2925 1359.56 12.5906 1359.45 12.8615C1359.35 13.1324 1359.17 13.3639 1358.94 13.5268C1358.72 13.6897 1358.45 13.7766 1358.17 13.7766C1357.81 13.7765 1357.46 13.6204 1357.2 13.3424C1356.94 13.0643 1356.79 12.6873 1356.79 12.2941Z" fill="#406FBB"/>
<path fill-rule="evenodd" clip-rule="evenodd" d="M898.3 649.52C898.3 649.126 898.446 648.749 898.706 648.471C898.966 648.193 899.318 648.037 899.685 648.037C899.867 648.037 900.047 648.075 900.215 648.15C900.383 648.224 900.536 648.334 900.665 648.471C900.793 648.609 900.895 648.772 900.965 648.952C901.034 649.132 901.07 649.325 901.07 649.52C901.07 649.714 901.035 649.907 900.965 650.087C900.895 650.267 900.793 650.43 900.665 650.568C900.536 650.706 900.383 650.815 900.215 650.89C900.047 650.964 899.867 651.002 899.685 651.002C899.503 651.002 899.323 650.964 899.155 650.89C898.987 650.815 898.835 650.706 898.706 650.568C898.577 650.43 898.475 650.267 898.406 650.087C898.336 649.907 898.3 649.714 898.3 649.52Z" fill="#406FBB"/>
<path fill-rule="evenodd" clip-rule="evenodd" d="M1466.06 596.929C1466.06 596.635 1466.14 596.349 1466.29 596.105C1466.44 595.861 1466.66 595.671 1466.91 595.559C1467.16 595.446 1467.44 595.417 1467.71 595.474C1467.98 595.531 1468.23 595.673 1468.42 595.88C1468.61 596.087 1468.75 596.351 1468.8 596.639C1468.85 596.927 1468.82 597.225 1468.72 597.496C1468.61 597.767 1468.44 597.998 1468.21 598.161C1467.98 598.324 1467.71 598.411 1467.44 598.411C1467.07 598.411 1466.72 598.255 1466.46 597.977C1466.2 597.699 1466.06 597.322 1466.06 596.929Z" fill="#406FBB"/>
<path fill-rule="evenodd" clip-rule="evenodd" d="M1196.96 218.969C1196.96 218.676 1197.04 218.389 1197.19 218.145C1197.34 217.902 1197.56 217.712 1197.81 217.599C1198.06 217.487 1198.34 217.458 1198.61 217.515C1198.88 217.572 1199.13 217.713 1199.32 217.921C1199.51 218.128 1199.65 218.392 1199.7 218.68C1199.75 218.967 1199.73 219.266 1199.62 219.536C1199.52 219.807 1199.34 220.039 1199.11 220.202C1198.88 220.365 1198.62 220.452 1198.34 220.452C1197.97 220.452 1197.62 220.295 1197.36 220.017C1197.1 219.739 1196.96 219.362 1196.96 218.969Z" fill="#406FBB"/>
<path fill-rule="evenodd" clip-rule="evenodd" d="M1637.67 423.406C1637.67 423.113 1637.75 422.826 1637.91 422.582C1638.06 422.338 1638.27 422.148 1638.53 422.036C1638.78 421.924 1639.06 421.895 1639.33 421.952C1639.6 422.009 1639.84 422.15 1640.04 422.358C1640.23 422.565 1640.36 422.829 1640.42 423.117C1640.47 423.404 1640.44 423.702 1640.34 423.973C1640.23 424.244 1640.05 424.476 1639.83 424.639C1639.6 424.801 1639.33 424.888 1639.06 424.888C1638.69 424.888 1638.34 424.732 1638.08 424.454C1637.82 424.176 1637.67 423.799 1637.67 423.406Z" fill="#406FBB"/>
<path fill-rule="evenodd" clip-rule="evenodd" d="M1606.26 634.236C1606.26 633.843 1606.41 633.466 1606.67 633.188C1606.93 632.91 1607.28 632.754 1607.65 632.754C1608.01 632.754 1608.37 632.91 1608.63 633.188C1608.89 633.466 1609.03 633.843 1609.03 634.236C1609.03 634.431 1609 634.624 1608.93 634.804C1608.86 634.984 1608.75 635.147 1608.63 635.285C1608.5 635.422 1608.34 635.531 1608.18 635.606C1608.01 635.68 1607.83 635.719 1607.65 635.719C1607.46 635.719 1607.28 635.68 1607.12 635.606C1606.95 635.531 1606.8 635.422 1606.67 635.285C1606.54 635.147 1606.44 634.983 1606.37 634.804C1606.3 634.624 1606.26 634.431 1606.26 634.236Z" fill="#406FBB"/>
<path fill-rule="evenodd" clip-rule="evenodd" d="M1311.2 284.428C1311.2 284.135 1311.29 283.848 1311.44 283.604C1311.59 283.36 1311.81 283.17 1312.06 283.058C1312.31 282.946 1312.59 282.917 1312.86 282.974C1313.13 283.031 1313.38 283.172 1313.57 283.38C1313.76 283.587 1313.89 283.851 1313.95 284.139C1314 284.426 1313.97 284.724 1313.87 284.995C1313.76 285.266 1313.59 285.498 1313.36 285.661C1313.13 285.824 1312.86 285.911 1312.59 285.911C1312.22 285.911 1311.87 285.754 1311.61 285.476C1311.35 285.198 1311.2 284.821 1311.2 284.428Z" fill="#406FBB"/>
<path fill-rule="evenodd" clip-rule="evenodd" d="M1419.38 529.681C1419.38 529.387 1419.46 529.101 1419.61 528.857C1419.76 528.613 1419.98 528.423 1420.23 528.311C1420.49 528.198 1420.76 528.169 1421.03 528.226C1421.3 528.283 1421.55 528.425 1421.74 528.632C1421.94 528.839 1422.07 529.104 1422.12 529.391C1422.17 529.679 1422.15 529.977 1422.04 530.248C1421.94 530.519 1421.76 530.75 1421.53 530.913C1421.3 531.076 1421.04 531.163 1420.76 531.163C1420.4 531.163 1420.04 531.007 1419.78 530.729C1419.52 530.451 1419.38 530.074 1419.38 529.681Z" fill="#406FBB"/>
<path fill-rule="evenodd" clip-rule="evenodd" d="M1095.63 176.018C1095.63 175.725 1095.71 175.438 1095.86 175.194C1096.02 174.95 1096.23 174.76 1096.49 174.648C1096.74 174.536 1097.02 174.506 1097.29 174.564C1097.55 174.621 1097.8 174.762 1097.99 174.969C1098.19 175.177 1098.32 175.441 1098.37 175.729C1098.43 176.016 1098.4 176.314 1098.29 176.585C1098.19 176.856 1098.01 177.088 1097.78 177.251C1097.56 177.414 1097.29 177.501 1097.02 177.5C1096.65 177.5 1096.3 177.344 1096.04 177.066C1095.78 176.788 1095.63 176.411 1095.63 176.018Z" fill="#406FBB"/>
<path fill-rule="evenodd" clip-rule="evenodd" d="M1175.65 523.732C1175.65 523.439 1175.73 523.152 1175.89 522.908C1176.04 522.664 1176.25 522.474 1176.51 522.362C1176.76 522.25 1177.04 522.221 1177.31 522.278C1177.58 522.335 1177.82 522.476 1178.02 522.684C1178.21 522.891 1178.34 523.155 1178.4 523.443C1178.45 523.73 1178.42 524.029 1178.32 524.299C1178.21 524.57 1178.04 524.802 1177.81 524.965C1177.58 525.128 1177.31 525.215 1177.04 525.215C1176.86 525.215 1176.68 525.176 1176.51 525.102C1176.34 525.027 1176.19 524.918 1176.06 524.781C1175.93 524.643 1175.83 524.479 1175.76 524.299C1175.69 524.12 1175.65 523.927 1175.65 523.732Z" fill="#68B7E7"/>
<path fill-rule="evenodd" clip-rule="evenodd" d="M1107.75 511.413C1107.75 511.119 1107.83 510.833 1107.99 510.589C1108.14 510.345 1108.35 510.155 1108.61 510.043C1108.86 509.931 1109.14 509.902 1109.41 509.959C1109.68 510.016 1109.92 510.157 1110.12 510.364C1110.31 510.572 1110.44 510.836 1110.5 511.124C1110.55 511.411 1110.52 511.709 1110.42 511.98C1110.31 512.251 1110.13 512.483 1109.91 512.646C1109.68 512.808 1109.41 512.895 1109.14 512.896C1108.96 512.896 1108.78 512.857 1108.61 512.783C1108.44 512.708 1108.29 512.599 1108.16 512.461C1108.03 512.324 1107.93 512.16 1107.86 511.98C1107.79 511.8 1107.75 511.607 1107.75 511.413Z" fill="#406FBB"/>
<path fill-rule="evenodd" clip-rule="evenodd" d="M1267.19 127.099C1267.19 126.805 1267.27 126.519 1267.42 126.275C1267.57 126.031 1267.79 125.841 1268.04 125.729C1268.29 125.617 1268.57 125.587 1268.84 125.644C1269.11 125.702 1269.36 125.843 1269.55 126.05C1269.74 126.258 1269.88 126.522 1269.93 126.809C1269.98 127.097 1269.95 127.395 1269.85 127.666C1269.74 127.937 1269.57 128.168 1269.34 128.331C1269.11 128.494 1268.84 128.581 1268.57 128.581C1268.39 128.581 1268.21 128.543 1268.04 128.468C1267.87 128.394 1267.72 128.285 1267.59 128.147C1267.46 128.009 1267.36 127.846 1267.29 127.666C1267.22 127.486 1267.19 127.293 1267.19 127.099Z" fill="#406FBB"/>
<path fill-rule="evenodd" clip-rule="evenodd" d="M1526.56 467.067C1526.56 466.773 1526.64 466.487 1526.8 466.243C1526.95 465.999 1527.16 465.809 1527.42 465.697C1527.67 465.584 1527.95 465.555 1528.22 465.612C1528.49 465.669 1528.73 465.811 1528.93 466.018C1529.12 466.225 1529.25 466.49 1529.31 466.777C1529.36 467.065 1529.33 467.363 1529.23 467.634C1529.12 467.905 1528.94 468.136 1528.72 468.299C1528.49 468.462 1528.22 468.549 1527.95 468.549C1527.58 468.549 1527.23 468.393 1526.97 468.115C1526.71 467.837 1526.56 467.46 1526.56 467.067Z" fill="#90FFFF"/>
<path d="M1398.65 447.689C1397.88 447.689 1397.26 448.353 1397.26 449.172C1397.26 449.991 1397.88 450.655 1398.65 450.655C1399.41 450.655 1400.03 449.991 1400.03 449.172C1400.03 448.353 1399.41 447.689 1398.65 447.689Z" fill="#90FFFF"/>
<path fill-rule="evenodd" clip-rule="evenodd" d="M1411.15 635.725C1411.15 635.331 1411.29 634.954 1411.55 634.676C1411.81 634.398 1412.16 634.242 1412.53 634.242C1412.9 634.242 1413.25 634.398 1413.51 634.676C1413.77 634.954 1413.92 635.331 1413.92 635.725C1413.92 635.919 1413.88 636.112 1413.81 636.292C1413.74 636.472 1413.64 636.635 1413.51 636.773C1413.38 636.911 1413.23 637.02 1413.06 637.095C1412.89 637.169 1412.71 637.208 1412.53 637.208C1412.16 637.208 1411.81 637.051 1411.55 636.773C1411.29 636.495 1411.15 636.118 1411.15 635.725Z" fill="#90FFFF"/>
<path fill-rule="evenodd" clip-rule="evenodd" d="M1644.81 523.777C1644.81 523.484 1644.89 523.197 1645.05 522.953C1645.2 522.71 1645.41 522.52 1645.67 522.408C1645.92 522.295 1646.2 522.266 1646.47 522.323C1646.74 522.381 1646.98 522.522 1647.18 522.729C1647.37 522.936 1647.5 523.201 1647.55 523.488C1647.61 523.776 1647.58 524.074 1647.48 524.345C1647.37 524.616 1647.19 524.847 1646.97 525.01C1646.74 525.173 1646.47 525.26 1646.2 525.26C1646.01 525.26 1645.83 525.221 1645.67 525.147C1645.5 525.072 1645.35 524.963 1645.22 524.825C1645.09 524.688 1644.99 524.524 1644.92 524.344C1644.85 524.164 1644.81 523.972 1644.81 523.777Z" fill="#90FFFF"/>
<path fill-rule="evenodd" clip-rule="evenodd" d="M1314.23 233.853C1314.23 233.56 1314.32 233.273 1314.47 233.03C1314.62 232.786 1314.84 232.596 1315.09 232.483C1315.34 232.371 1315.62 232.342 1315.89 232.399C1316.16 232.456 1316.4 232.597 1316.6 232.805C1316.79 233.012 1316.92 233.276 1316.98 233.564C1317.03 233.852 1317 234.15 1316.9 234.42C1316.79 234.691 1316.62 234.923 1316.39 235.086C1316.16 235.249 1315.89 235.336 1315.62 235.336C1315.25 235.336 1314.9 235.18 1314.64 234.901C1314.38 234.623 1314.23 234.246 1314.23 233.853Z" fill="#B7FFFF"/>
<path fill-rule="evenodd" clip-rule="evenodd" d="M1371.54 581.878C1371.54 581.584 1371.62 581.298 1371.77 581.054C1371.92 580.81 1372.14 580.62 1372.39 580.508C1372.65 580.396 1372.92 580.366 1373.19 580.423C1373.46 580.481 1373.71 580.622 1373.9 580.829C1374.1 581.037 1374.23 581.301 1374.28 581.588C1374.33 581.876 1374.31 582.174 1374.2 582.445C1374.1 582.716 1373.92 582.947 1373.69 583.11C1373.46 583.273 1373.2 583.36 1372.92 583.36C1372.74 583.36 1372.56 583.322 1372.39 583.247C1372.22 583.173 1372.07 583.064 1371.94 582.926C1371.81 582.788 1371.71 582.625 1371.64 582.445C1371.57 582.265 1371.54 582.072 1371.54 581.878Z" fill="#90FFFF"/>
<path fill-rule="evenodd" clip-rule="evenodd" d="M1109.14 379.075C1109.14 378.782 1109.22 378.495 1109.37 378.251C1109.52 378.008 1109.74 377.818 1109.99 377.705C1110.24 377.593 1110.52 377.564 1110.79 377.621C1111.06 377.678 1111.31 377.819 1111.5 378.027C1111.69 378.234 1111.83 378.498 1111.88 378.786C1111.93 379.073 1111.91 379.372 1111.8 379.642C1111.7 379.913 1111.52 380.145 1111.29 380.308C1111.06 380.471 1110.8 380.558 1110.52 380.558C1110.15 380.558 1109.8 380.401 1109.54 380.123C1109.28 379.845 1109.14 379.468 1109.14 379.075Z" fill="#90FFFF"/>
<path fill-rule="evenodd" clip-rule="evenodd" d="M1390.19 228.983C1390.19 228.69 1390.27 228.403 1390.42 228.159C1390.58 227.916 1390.79 227.726 1391.05 227.613C1391.3 227.501 1391.58 227.472 1391.85 227.529C1392.11 227.586 1392.36 227.727 1392.55 227.935C1392.75 228.142 1392.88 228.406 1392.93 228.694C1392.99 228.981 1392.96 229.279 1392.85 229.55C1392.75 229.821 1392.57 230.053 1392.34 230.216C1392.12 230.379 1391.85 230.466 1391.58 230.466C1391.21 230.466 1390.86 230.309 1390.6 230.031C1390.34 229.753 1390.19 229.376 1390.19 228.983Z" fill="#90FFFF"/>
<path fill-rule="evenodd" clip-rule="evenodd" d="M1581.33 216.05C1581.33 215.757 1581.41 215.47 1581.57 215.226C1581.72 214.982 1581.93 214.792 1582.19 214.68C1582.44 214.568 1582.72 214.539 1582.99 214.596C1583.26 214.653 1583.5 214.794 1583.7 215.002C1583.89 215.209 1584.02 215.473 1584.07 215.761C1584.13 216.048 1584.1 216.346 1584 216.617C1583.89 216.888 1583.71 217.12 1583.49 217.283C1583.26 217.446 1582.99 217.533 1582.72 217.533C1582.53 217.533 1582.35 217.494 1582.19 217.42C1582.02 217.345 1581.87 217.236 1581.74 217.098C1581.61 216.961 1581.51 216.797 1581.44 216.617C1581.37 216.437 1581.33 216.245 1581.33 216.05Z" fill="#90FFFF"/>
<path fill-rule="evenodd" clip-rule="evenodd" d="M1110.52 658.169C1110.52 657.974 1110.56 657.781 1110.63 657.601C1110.7 657.422 1110.8 657.258 1110.93 657.12C1111.06 656.983 1111.21 656.873 1111.38 656.799C1111.55 656.724 1111.73 656.686 1111.91 656.686C1112.09 656.686 1112.27 656.724 1112.44 656.799C1112.61 656.873 1112.76 656.983 1112.89 657.12C1113.02 657.258 1113.12 657.421 1113.19 657.601C1113.26 657.781 1113.29 657.974 1113.29 658.169C1113.29 658.364 1113.26 658.556 1113.19 658.736C1113.12 658.916 1113.01 659.08 1112.89 659.217C1112.76 659.355 1112.61 659.464 1112.44 659.539C1112.27 659.613 1112.09 659.651 1111.91 659.651C1111.54 659.651 1111.19 659.495 1110.93 659.217C1110.67 658.939 1110.52 658.562 1110.52 658.169Z" fill="#90FFFF"/>
<path fill-rule="evenodd" clip-rule="evenodd" d="M1204.43 552.125C1204.43 551.832 1204.51 551.545 1204.66 551.301C1204.82 551.057 1205.03 550.867 1205.28 550.755C1205.54 550.643 1205.82 550.613 1206.08 550.671C1206.35 550.728 1206.6 550.869 1206.79 551.076C1206.99 551.284 1207.12 551.548 1207.17 551.836C1207.23 552.123 1207.2 552.421 1207.09 552.692C1206.99 552.963 1206.81 553.195 1206.58 553.358C1206.36 553.521 1206.09 553.607 1205.81 553.607C1205.45 553.607 1205.09 553.451 1204.84 553.173C1204.58 552.895 1204.43 552.518 1204.43 552.125Z" fill="#90FFFF"/>
<path fill-rule="evenodd" clip-rule="evenodd" d="M1251.42 467.067C1251.42 466.773 1251.5 466.487 1251.65 466.243C1251.81 465.999 1252.02 465.809 1252.28 465.697C1252.53 465.584 1252.81 465.555 1253.08 465.612C1253.34 465.669 1253.59 465.811 1253.78 466.018C1253.98 466.225 1254.11 466.489 1254.16 466.777C1254.22 467.065 1254.19 467.363 1254.09 467.634C1253.98 467.905 1253.8 468.136 1253.58 468.299C1253.35 468.462 1253.08 468.549 1252.81 468.549C1252.62 468.549 1252.44 468.511 1252.28 468.436C1252.11 468.362 1251.95 468.253 1251.83 468.115C1251.7 467.977 1251.6 467.814 1251.53 467.634C1251.46 467.454 1251.42 467.261 1251.42 467.067Z" fill="#90FFFF"/>
<path fill-rule="evenodd" clip-rule="evenodd" d="M1394.51 466.594C1394.51 466.3 1394.59 466.014 1394.74 465.77C1394.89 465.526 1395.11 465.336 1395.36 465.224C1395.61 465.111 1395.89 465.082 1396.16 465.139C1396.43 465.196 1396.68 465.338 1396.87 465.545C1397.06 465.752 1397.2 466.017 1397.25 466.304C1397.3 466.592 1397.28 466.89 1397.17 467.161C1397.07 467.432 1396.89 467.663 1396.66 467.826C1396.43 467.989 1396.17 468.076 1395.89 468.076C1395.71 468.076 1395.53 468.038 1395.36 467.963C1395.19 467.889 1395.04 467.78 1394.91 467.642C1394.78 467.504 1394.68 467.341 1394.61 467.161C1394.54 466.981 1394.51 466.788 1394.51 466.594Z" fill="#90FFFF"/>
<path fill-rule="evenodd" clip-rule="evenodd" d="M1349.97 207.975C1349.97 207.682 1350.05 207.395 1350.2 207.151C1350.36 206.907 1350.57 206.717 1350.83 206.605C1351.08 206.493 1351.36 206.463 1351.63 206.521C1351.89 206.578 1352.14 206.719 1352.33 206.926C1352.53 207.134 1352.66 207.398 1352.71 207.685C1352.77 207.973 1352.74 208.271 1352.63 208.542C1352.53 208.813 1352.35 209.045 1352.12 209.208C1351.9 209.37 1351.63 209.457 1351.36 209.457C1350.99 209.457 1350.64 209.301 1350.38 209.023C1350.12 208.745 1349.97 208.368 1349.97 207.975Z" fill="#90FFFF"/>
<path fill-rule="evenodd" clip-rule="evenodd" d="M1388.79 335.997C1388.79 335.704 1388.87 335.417 1389.02 335.173C1389.17 334.93 1389.39 334.739 1389.64 334.627C1389.89 334.515 1390.17 334.486 1390.44 334.543C1390.71 334.6 1390.96 334.741 1391.15 334.948C1391.34 335.156 1391.48 335.42 1391.53 335.708C1391.58 335.995 1391.56 336.293 1391.45 336.564C1391.35 336.835 1391.17 337.067 1390.94 337.23C1390.71 337.393 1390.44 337.48 1390.17 337.48C1389.8 337.48 1389.45 337.324 1389.19 337.046C1388.93 336.767 1388.79 336.39 1388.79 335.997Z" fill="#68B7E7"/>
<path fill-rule="evenodd" clip-rule="evenodd" d="M1475.97 396.695C1475.97 396.402 1476.05 396.115 1476.2 395.871C1476.36 395.627 1476.57 395.437 1476.83 395.325C1477.08 395.213 1477.36 395.183 1477.63 395.24C1477.9 395.298 1478.14 395.439 1478.34 395.646C1478.53 395.854 1478.66 396.118 1478.71 396.406C1478.77 396.693 1478.74 396.991 1478.64 397.262C1478.53 397.533 1478.35 397.765 1478.13 397.928C1477.9 398.091 1477.63 398.178 1477.36 398.177C1476.99 398.177 1476.64 398.021 1476.38 397.743C1476.12 397.465 1475.97 397.088 1475.97 396.695Z" fill="#406FBB"/>
<path fill-rule="evenodd" clip-rule="evenodd" d="M1541.45 430.494C1541.45 430.201 1541.53 429.914 1541.68 429.671C1541.83 429.427 1542.05 429.237 1542.3 429.125C1542.56 429.013 1542.83 428.983 1543.1 429.04C1543.37 429.098 1543.62 429.239 1543.81 429.446C1544 429.654 1544.14 429.918 1544.19 430.205C1544.24 430.493 1544.22 430.791 1544.11 431.062C1544.01 431.333 1543.83 431.564 1543.6 431.727C1543.37 431.89 1543.11 431.977 1542.83 431.977C1542.65 431.977 1542.47 431.939 1542.3 431.864C1542.13 431.79 1541.98 431.68 1541.85 431.543C1541.72 431.405 1541.62 431.242 1541.55 431.062C1541.48 430.882 1541.45 430.689 1541.45 430.494Z" fill="#406FBB"/>
<path fill-rule="evenodd" clip-rule="evenodd" d="M1622.77 498.239C1622.77 497.946 1622.85 497.659 1623.01 497.415C1623.16 497.171 1623.37 496.981 1623.63 496.869C1623.88 496.757 1624.16 496.727 1624.43 496.785C1624.7 496.842 1624.94 496.983 1625.14 497.19C1625.33 497.398 1625.46 497.662 1625.52 497.949C1625.57 498.237 1625.54 498.535 1625.44 498.806C1625.33 499.077 1625.15 499.309 1624.93 499.472C1624.7 499.635 1624.43 499.722 1624.16 499.722C1623.79 499.722 1623.44 499.565 1623.18 499.287C1622.92 499.009 1622.77 498.632 1622.77 498.239Z" fill="#365CBB"/>
<path fill-rule="evenodd" clip-rule="evenodd" d="M1706.52 609.126C1706.52 608.932 1706.55 608.739 1706.62 608.559C1706.69 608.379 1706.79 608.216 1706.92 608.078C1707.05 607.94 1707.2 607.831 1707.37 607.756C1707.54 607.682 1707.72 607.644 1707.9 607.644C1708.08 607.644 1708.26 607.682 1708.43 607.756C1708.6 607.831 1708.75 607.94 1708.88 608.078C1709.01 608.216 1709.11 608.379 1709.18 608.559C1709.25 608.739 1709.29 608.932 1709.29 609.126C1709.29 609.52 1709.14 609.897 1708.88 610.175C1708.62 610.453 1708.27 610.609 1707.9 610.609C1707.53 610.609 1707.18 610.453 1706.92 610.175C1706.66 609.897 1706.52 609.52 1706.52 609.126Z" fill="#365CBB"/>
<path fill-rule="evenodd" clip-rule="evenodd" d="M1542.83 659.829C1542.83 659.436 1542.98 659.059 1543.24 658.781C1543.5 658.503 1543.85 658.347 1544.22 658.347C1544.58 658.347 1544.94 658.503 1545.19 658.781C1545.45 659.059 1545.6 659.436 1545.6 659.829C1545.6 660.222 1545.45 660.6 1545.19 660.878C1544.94 661.156 1544.58 661.312 1544.22 661.312C1543.85 661.312 1543.5 661.156 1543.24 660.878C1542.98 660.6 1542.83 660.222 1542.83 659.829Z" fill="#365CBB"/>
<path fill-rule="evenodd" clip-rule="evenodd" d="M1683.2 274.732C1683.2 274.439 1683.28 274.152 1683.43 273.908C1683.59 273.665 1683.8 273.474 1684.05 273.362C1684.31 273.25 1684.59 273.221 1684.85 273.278C1685.12 273.335 1685.37 273.476 1685.56 273.683C1685.76 273.891 1685.89 274.155 1685.94 274.443C1686 274.73 1685.97 275.028 1685.86 275.299C1685.76 275.57 1685.58 275.802 1685.35 275.965C1685.13 276.128 1684.86 276.215 1684.58 276.215C1684.22 276.215 1683.87 276.058 1683.61 275.78C1683.35 275.502 1683.2 275.125 1683.2 274.732Z" fill="#365CBB"/>
<path fill-rule="evenodd" clip-rule="evenodd" d="M1454.82 398.178C1454.82 397.885 1454.9 397.598 1455.05 397.354C1455.2 397.111 1455.42 396.921 1455.67 396.808C1455.92 396.696 1456.2 396.667 1456.47 396.724C1456.74 396.781 1456.99 396.922 1457.18 397.13C1457.37 397.337 1457.51 397.601 1457.56 397.889C1457.61 398.176 1457.59 398.475 1457.48 398.746C1457.38 399.016 1457.2 399.248 1456.97 399.411C1456.74 399.574 1456.48 399.661 1456.2 399.661C1456.02 399.661 1455.84 399.623 1455.67 399.548C1455.5 399.474 1455.35 399.364 1455.22 399.227C1455.09 399.089 1454.99 398.925 1454.92 398.746C1454.85 398.566 1454.82 398.373 1454.82 398.178Z" fill="#365CBB"/>
<path fill-rule="evenodd" clip-rule="evenodd" d="M1443.35 672.194C1443.35 672 1443.39 671.807 1443.46 671.627C1443.53 671.447 1443.63 671.284 1443.76 671.146C1443.89 671.008 1444.04 670.899 1444.21 670.825C1444.38 670.75 1444.56 670.712 1444.74 670.712C1445.11 670.712 1445.46 670.868 1445.72 671.146C1445.98 671.424 1446.12 671.801 1446.12 672.194C1446.12 672.588 1445.98 672.965 1445.72 673.243C1445.46 673.521 1445.11 673.677 1444.74 673.677C1444.37 673.677 1444.02 673.521 1443.76 673.243C1443.5 672.965 1443.35 672.588 1443.35 672.194Z" fill="#365CBB"/>
<path fill-rule="evenodd" clip-rule="evenodd" d="M1759.34 514.231C1759.34 513.938 1759.42 513.651 1759.57 513.408C1759.72 513.164 1759.94 512.974 1760.19 512.861C1760.44 512.749 1760.72 512.72 1760.99 512.777C1761.26 512.834 1761.51 512.975 1761.7 513.183C1761.89 513.39 1762.03 513.654 1762.08 513.942C1762.13 514.23 1762.1 514.528 1762 514.799C1761.9 515.07 1761.72 515.301 1761.49 515.464C1761.26 515.627 1760.99 515.714 1760.72 515.714C1760.35 515.714 1760 515.558 1759.74 515.28C1759.48 515.002 1759.34 514.625 1759.34 514.231Z" fill="#406FBB"/>
<path fill-rule="evenodd" clip-rule="evenodd" d="M1686.21 436.664C1686.21 436.371 1686.29 436.085 1686.44 435.841C1686.59 435.597 1686.81 435.407 1687.06 435.295C1687.31 435.183 1687.59 435.153 1687.86 435.21C1688.13 435.268 1688.38 435.409 1688.57 435.616C1688.76 435.823 1688.89 436.088 1688.95 436.375C1689 436.663 1688.97 436.961 1688.87 437.232C1688.76 437.503 1688.59 437.734 1688.36 437.897C1688.13 438.06 1687.86 438.147 1687.59 438.147C1687.22 438.147 1686.87 437.991 1686.61 437.713C1686.35 437.435 1686.21 437.058 1686.21 436.664Z" fill="#406FBB"/>
<path fill-rule="evenodd" clip-rule="evenodd" d="M1668.07 619.55C1668.07 619.157 1668.21 618.78 1668.47 618.502C1668.73 618.224 1669.08 618.068 1669.45 618.068C1669.82 618.068 1670.17 618.224 1670.43 618.502C1670.69 618.78 1670.84 619.157 1670.84 619.55C1670.84 619.944 1670.69 620.321 1670.43 620.599C1670.17 620.877 1669.82 621.033 1669.45 621.033C1669.27 621.033 1669.09 620.995 1668.92 620.92C1668.75 620.846 1668.6 620.737 1668.47 620.599C1668.34 620.461 1668.24 620.298 1668.17 620.118C1668.1 619.938 1668.07 619.745 1668.07 619.55Z" fill="#406FBB"/>
<path fill-rule="evenodd" clip-rule="evenodd" d="M1675.69 229.111C1675.69 228.818 1675.77 228.531 1675.92 228.287C1676.07 228.044 1676.29 227.854 1676.54 227.741C1676.8 227.629 1677.08 227.6 1677.34 227.657C1677.61 227.714 1677.86 227.855 1678.05 228.063C1678.25 228.27 1678.38 228.534 1678.43 228.822C1678.49 229.109 1678.46 229.408 1678.35 229.678C1678.25 229.949 1678.07 230.181 1677.84 230.344C1677.62 230.507 1677.35 230.594 1677.07 230.594C1676.71 230.594 1676.35 230.438 1676.09 230.159C1675.84 229.881 1675.69 229.504 1675.69 229.111Z" fill="#406FBB"/>
<path fill-rule="evenodd" clip-rule="evenodd" d="M1839.68 446.028C1839.68 445.735 1839.76 445.448 1839.92 445.204C1840.07 444.96 1840.28 444.77 1840.54 444.658C1840.79 444.546 1841.07 444.516 1841.34 444.574C1841.61 444.631 1841.85 444.772 1842.05 444.979C1842.24 445.187 1842.37 445.451 1842.43 445.738C1842.48 446.026 1842.45 446.324 1842.35 446.595C1842.24 446.866 1842.06 447.098 1841.84 447.261C1841.61 447.423 1841.34 447.51 1841.07 447.51C1840.89 447.511 1840.71 447.472 1840.54 447.398C1840.37 447.323 1840.22 447.214 1840.09 447.076C1839.96 446.939 1839.86 446.775 1839.79 446.595C1839.72 446.416 1839.68 446.223 1839.68 446.028Z" fill="#406FBB"/>
<path fill-rule="evenodd" clip-rule="evenodd" d="M1808.27 656.867C1808.27 656.474 1808.42 656.097 1808.68 655.819C1808.94 655.541 1809.29 655.384 1809.65 655.384C1810.02 655.384 1810.37 655.54 1810.63 655.819C1810.89 656.097 1811.04 656.474 1811.04 656.867C1811.04 657.062 1811 657.255 1810.93 657.434C1810.86 657.614 1810.76 657.778 1810.63 657.915C1810.51 658.053 1810.35 658.162 1810.18 658.237C1810.02 658.311 1809.84 658.35 1809.65 658.35C1809.29 658.35 1808.94 658.193 1808.68 657.915C1808.42 657.637 1808.27 657.26 1808.27 656.867Z" fill="#406FBB"/>
<path fill-rule="evenodd" clip-rule="evenodd" d="M1621.39 552.308C1621.39 552.014 1621.47 551.728 1621.62 551.484C1621.77 551.24 1621.99 551.05 1622.24 550.938C1622.5 550.825 1622.77 550.796 1623.04 550.853C1623.31 550.91 1623.56 551.052 1623.75 551.259C1623.95 551.466 1624.08 551.731 1624.13 552.018C1624.19 552.306 1624.16 552.604 1624.05 552.875C1623.95 553.146 1623.77 553.377 1623.54 553.54C1623.31 553.703 1623.05 553.79 1622.77 553.79C1622.41 553.79 1622.05 553.634 1621.79 553.356C1621.53 553.078 1621.39 552.701 1621.39 552.308Z" fill="#406FBB"/>
<path fill-rule="evenodd" clip-rule="evenodd" d="M1728.57 489.699C1728.57 489.406 1728.65 489.119 1728.8 488.875C1728.96 488.632 1729.17 488.441 1729.43 488.329C1729.68 488.217 1729.96 488.188 1730.23 488.245C1730.49 488.302 1730.74 488.443 1730.94 488.651C1731.13 488.858 1731.26 489.122 1731.31 489.41C1731.37 489.697 1731.34 489.996 1731.24 490.266C1731.13 490.537 1730.95 490.769 1730.73 490.932C1730.5 491.095 1730.23 491.182 1729.96 491.182C1729.59 491.182 1729.24 491.025 1728.98 490.747C1728.72 490.469 1728.57 490.092 1728.57 489.699Z" fill="#90FFFF"/>
<path fill-rule="evenodd" clip-rule="evenodd" d="M1613.16 658.345C1613.16 657.951 1613.3 657.574 1613.56 657.296C1613.82 657.018 1614.17 656.862 1614.54 656.862C1614.91 656.862 1615.26 657.018 1615.52 657.296C1615.78 657.574 1615.93 657.951 1615.93 658.345C1615.93 658.738 1615.78 659.115 1615.52 659.393C1615.26 659.671 1614.91 659.827 1614.54 659.827C1614.17 659.827 1613.82 659.671 1613.56 659.393C1613.3 659.115 1613.16 658.738 1613.16 658.345Z" fill="#90FFFF"/>
<path fill-rule="evenodd" clip-rule="evenodd" d="M1516.24 256.474C1516.24 256.18 1516.33 255.894 1516.48 255.65C1516.63 255.406 1516.85 255.216 1517.1 255.104C1517.35 254.991 1517.63 254.962 1517.9 255.019C1518.17 255.076 1518.42 255.217 1518.61 255.425C1518.8 255.632 1518.93 255.896 1518.99 256.184C1519.04 256.472 1519.01 256.77 1518.91 257.041C1518.8 257.312 1518.63 257.543 1518.4 257.706C1518.17 257.869 1517.9 257.956 1517.63 257.956C1517.45 257.956 1517.27 257.918 1517.1 257.843C1516.93 257.769 1516.78 257.66 1516.65 257.522C1516.52 257.384 1516.42 257.221 1516.35 257.041C1516.28 256.861 1516.24 256.668 1516.24 256.474Z" fill="#B7FFFF"/>
<path fill-rule="evenodd" clip-rule="evenodd" d="M1592.2 251.609C1592.2 251.316 1592.28 251.029 1592.43 250.785C1592.59 250.541 1592.8 250.351 1593.06 250.239C1593.31 250.127 1593.59 250.097 1593.86 250.155C1594.12 250.212 1594.37 250.353 1594.56 250.56C1594.76 250.768 1594.89 251.032 1594.94 251.319C1595 251.607 1594.97 251.905 1594.87 252.176C1594.76 252.447 1594.58 252.679 1594.36 252.842C1594.13 253.005 1593.86 253.092 1593.59 253.092C1593.22 253.092 1592.87 252.935 1592.61 252.657C1592.35 252.379 1592.2 252.002 1592.2 251.609Z" fill="#90FFFF"/>
<path fill-rule="evenodd" clip-rule="evenodd" d="M1783.34 238.677C1783.34 238.384 1783.42 238.098 1783.58 237.854C1783.73 237.61 1783.94 237.42 1784.2 237.308C1784.45 237.195 1784.73 237.166 1785 237.223C1785.27 237.28 1785.51 237.421 1785.71 237.629C1785.9 237.836 1786.03 238.1 1786.09 238.388C1786.14 238.675 1786.11 238.974 1786.01 239.244C1785.9 239.515 1785.72 239.747 1785.5 239.91C1785.27 240.073 1785 240.16 1784.73 240.16C1784.55 240.16 1784.37 240.122 1784.2 240.047C1784.03 239.973 1783.88 239.863 1783.75 239.726C1783.62 239.588 1783.52 239.425 1783.45 239.245C1783.38 239.065 1783.34 238.872 1783.34 238.677Z" fill="#90FFFF"/>
<path fill-rule="evenodd" clip-rule="evenodd" d="M1406.44 574.747C1406.44 574.453 1406.52 574.167 1406.67 573.923C1406.82 573.679 1407.04 573.489 1407.29 573.377C1407.55 573.264 1407.83 573.235 1408.09 573.292C1408.36 573.349 1408.61 573.491 1408.8 573.698C1409 573.905 1409.13 574.169 1409.18 574.457C1409.24 574.745 1409.21 575.043 1409.1 575.314C1409 575.585 1408.82 575.816 1408.59 575.979C1408.37 576.142 1408.1 576.229 1407.82 576.229C1407.64 576.229 1407.46 576.191 1407.29 576.116C1407.13 576.042 1406.97 575.933 1406.84 575.795C1406.72 575.657 1406.61 575.494 1406.54 575.314C1406.47 575.134 1406.44 574.941 1406.44 574.747Z" fill="#90FFFF"/>
<path fill-rule="evenodd" clip-rule="evenodd" d="M1453.43 489.699C1453.43 489.406 1453.51 489.119 1453.66 488.875C1453.82 488.632 1454.03 488.441 1454.29 488.329C1454.54 488.217 1454.82 488.188 1455.09 488.245C1455.35 488.302 1455.6 488.443 1455.8 488.651C1455.99 488.858 1456.12 489.122 1456.17 489.41C1456.23 489.697 1456.2 489.996 1456.1 490.266C1455.99 490.537 1455.81 490.769 1455.59 490.932C1455.36 491.095 1455.09 491.182 1454.82 491.182C1454.45 491.182 1454.1 491.025 1453.84 490.747C1453.58 490.469 1453.43 490.092 1453.43 489.699Z" fill="#90FFFF"/>
<path fill-rule="evenodd" clip-rule="evenodd" d="M1592.04 478.768C1592.04 478.475 1592.12 478.188 1592.28 477.944C1592.43 477.7 1592.64 477.51 1592.9 477.398C1593.15 477.286 1593.43 477.256 1593.7 477.314C1593.97 477.371 1594.21 477.512 1594.41 477.719C1594.6 477.927 1594.73 478.191 1594.79 478.478C1594.84 478.766 1594.81 479.064 1594.71 479.335C1594.6 479.606 1594.42 479.838 1594.2 480.001C1593.97 480.163 1593.7 480.25 1593.43 480.25C1593.25 480.251 1593.07 480.212 1592.9 480.138C1592.73 480.063 1592.58 479.954 1592.45 479.816C1592.32 479.679 1592.22 479.515 1592.15 479.335C1592.08 479.156 1592.04 478.963 1592.04 478.768Z" fill="#90FFFF"/>
<path fill-rule="evenodd" clip-rule="evenodd" d="M1551.98 230.595C1551.98 230.301 1552.06 230.015 1552.21 229.771C1552.37 229.527 1552.58 229.337 1552.84 229.225C1553.09 229.112 1553.37 229.083 1553.64 229.14C1553.9 229.197 1554.15 229.338 1554.35 229.546C1554.54 229.753 1554.67 230.017 1554.72 230.305C1554.78 230.593 1554.75 230.891 1554.65 231.162C1554.54 231.433 1554.36 231.664 1554.14 231.827C1553.91 231.99 1553.64 232.077 1553.37 232.077C1553.18 232.077 1553 232.039 1552.84 231.964C1552.67 231.89 1552.52 231.781 1552.39 231.643C1552.26 231.505 1552.16 231.342 1552.09 231.162C1552.02 230.982 1551.98 230.789 1551.98 230.595Z" fill="#90FFFF"/>
<path fill-rule="evenodd" clip-rule="evenodd" d="M1204.73 237.696C1204.73 237.402 1204.81 237.116 1204.97 236.872C1205.12 236.628 1205.33 236.438 1205.59 236.326C1205.84 236.213 1206.12 236.184 1206.39 236.241C1206.66 236.298 1206.9 236.44 1207.1 236.647C1207.29 236.854 1207.42 237.119 1207.48 237.406C1207.53 237.694 1207.5 237.992 1207.4 238.263C1207.29 238.534 1207.11 238.765 1206.89 238.928C1206.66 239.091 1206.39 239.178 1206.12 239.178C1205.75 239.178 1205.4 239.022 1205.14 238.744C1204.88 238.466 1204.73 238.089 1204.73 237.696Z" fill="#90FFFF"/>
<path fill-rule="evenodd" clip-rule="evenodd" d="M1011.2 424.885C1011.2 424.592 1011.29 424.305 1011.44 424.061C1011.59 423.817 1011.81 423.627 1012.06 423.515C1012.31 423.403 1012.59 423.373 1012.86 423.431C1013.13 423.488 1013.37 423.629 1013.57 423.836C1013.76 424.044 1013.89 424.308 1013.95 424.595C1014 424.883 1013.97 425.181 1013.87 425.452C1013.76 425.723 1013.59 425.955 1013.36 426.117C1013.13 426.28 1012.86 426.367 1012.59 426.367C1012.22 426.367 1011.87 426.211 1011.61 425.933C1011.35 425.655 1011.2 425.278 1011.2 424.885Z" fill="#406FBB"/>
<path fill-rule="evenodd" clip-rule="evenodd" d="M1125.45 490.333C1125.45 490.04 1125.53 489.754 1125.69 489.51C1125.84 489.266 1126.05 489.076 1126.31 488.964C1126.56 488.852 1126.84 488.822 1127.11 488.879C1127.38 488.937 1127.62 489.078 1127.82 489.285C1128.01 489.492 1128.14 489.757 1128.2 490.044C1128.25 490.332 1128.22 490.63 1128.12 490.901C1128.01 491.172 1127.83 491.403 1127.61 491.566C1127.38 491.729 1127.11 491.816 1126.84 491.816C1126.47 491.816 1126.12 491.66 1125.86 491.382C1125.6 491.104 1125.45 490.727 1125.45 490.333Z" fill="#406FBB"/>
<path fill-rule="evenodd" clip-rule="evenodd" d="M1731.76 640.663C1731.76 640.468 1731.79 640.275 1731.86 640.096C1731.93 639.916 1732.03 639.752 1732.16 639.615C1732.29 639.477 1732.44 639.368 1732.61 639.293C1732.78 639.219 1732.96 639.18 1733.14 639.18C1733.51 639.18 1733.86 639.337 1734.12 639.615C1734.38 639.893 1734.53 640.27 1734.53 640.663C1734.53 641.056 1734.38 641.433 1734.12 641.711C1733.86 641.989 1733.51 642.146 1733.14 642.146C1732.96 642.146 1732.78 642.107 1732.61 642.033C1732.44 641.958 1732.29 641.849 1732.16 641.711C1732.03 641.574 1731.93 641.41 1731.86 641.23C1731.79 641.051 1731.76 640.858 1731.76 640.663Z" fill="#406FBB"/>
<path fill-rule="evenodd" clip-rule="evenodd" d="M1223.07 383.359C1223.07 383.066 1223.15 382.779 1223.3 382.535C1223.45 382.291 1223.67 382.101 1223.92 381.989C1224.17 381.877 1224.45 381.847 1224.72 381.904C1224.99 381.962 1225.24 382.103 1225.43 382.31C1225.62 382.517 1225.76 382.782 1225.81 383.069C1225.86 383.357 1225.84 383.655 1225.73 383.926C1225.63 384.197 1225.45 384.428 1225.22 384.591C1224.99 384.754 1224.73 384.841 1224.45 384.841C1224.08 384.841 1223.73 384.685 1223.47 384.407C1223.21 384.129 1223.07 383.752 1223.07 383.359Z" fill="#406FBB"/>
</g>
<g opacity="0.5">
<path fill-rule="evenodd" clip-rule="evenodd" d="M460.077 541.264C460.077 540.971 460.158 540.684 460.311 540.44C460.463 540.196 460.679 540.006 460.932 539.894C461.185 539.782 461.463 539.752 461.732 539.81C462.001 539.867 462.247 540.008 462.441 540.215C462.635 540.423 462.767 540.687 462.82 540.975C462.874 541.262 462.846 541.56 462.741 541.831C462.636 542.102 462.459 542.334 462.231 542.497C462.003 542.66 461.736 542.747 461.462 542.747C461.095 542.747 460.742 542.59 460.483 542.312C460.223 542.034 460.077 541.657 460.077 541.264Z" fill="#68B7E7"/>
<path fill-rule="evenodd" clip-rule="evenodd" d="M486.955 381.773C486.955 381.48 487.036 381.193 487.188 380.949C487.34 380.705 487.557 380.515 487.81 380.403C488.063 380.291 488.341 380.261 488.61 380.319C488.879 380.376 489.125 380.517 489.319 380.724C489.513 380.932 489.645 381.196 489.698 381.484C489.751 381.771 489.724 382.069 489.619 382.34C489.514 382.611 489.337 382.843 489.109 383.006C488.881 383.169 488.614 383.256 488.34 383.256C488.158 383.256 487.978 383.217 487.81 383.143C487.642 383.068 487.489 382.959 487.36 382.821C487.232 382.684 487.13 382.52 487.06 382.34C486.991 382.161 486.955 381.968 486.955 381.773Z" fill="#68B7E7"/>
<path fill-rule="evenodd" clip-rule="evenodd" d="M288.475 302.554C288.475 302.261 288.556 301.974 288.708 301.731C288.861 301.487 289.077 301.297 289.33 301.185C289.583 301.073 289.861 301.043 290.13 301.101C290.399 301.158 290.646 301.299 290.839 301.506C291.033 301.714 291.165 301.978 291.218 302.265C291.271 302.553 291.244 302.851 291.139 303.122C291.034 303.393 290.857 303.624 290.629 303.787C290.401 303.95 290.134 304.037 289.86 304.037C289.678 304.037 289.498 303.999 289.33 303.924C289.162 303.85 289.009 303.741 288.88 303.603C288.752 303.465 288.65 303.302 288.58 303.122C288.511 302.942 288.475 302.749 288.475 302.554Z" fill="#68B7E7"/>
<path fill-rule="evenodd" clip-rule="evenodd" d="M249.288 120.847C249.288 120.553 249.37 120.267 249.522 120.023C249.674 119.779 249.89 119.589 250.143 119.477C250.396 119.364 250.675 119.335 250.943 119.392C251.212 119.45 251.459 119.591 251.652 119.798C251.846 120.006 251.978 120.27 252.032 120.557C252.085 120.845 252.057 121.143 251.953 121.414C251.848 121.685 251.67 121.917 251.442 122.08C251.215 122.242 250.947 122.329 250.673 122.329C250.306 122.329 249.954 122.173 249.694 121.895C249.434 121.617 249.288 121.24 249.288 120.847Z" fill="#68B7E7"/>
<path fill-rule="evenodd" clip-rule="evenodd" d="M375.66 363.262C375.66 362.969 375.741 362.682 375.894 362.438C376.046 362.195 376.262 362.005 376.515 361.892C376.768 361.78 377.046 361.751 377.315 361.808C377.584 361.865 377.83 362.006 378.024 362.214C378.218 362.421 378.35 362.685 378.403 362.973C378.457 363.26 378.429 363.559 378.324 363.829C378.219 364.1 378.042 364.332 377.814 364.495C377.587 364.658 377.319 364.745 377.045 364.745C376.863 364.745 376.683 364.706 376.515 364.632C376.347 364.557 376.194 364.448 376.066 364.31C375.937 364.173 375.835 364.009 375.766 363.829C375.696 363.65 375.66 363.457 375.66 363.262Z" fill="#406FBB"/>
<path fill-rule="evenodd" clip-rule="evenodd" d="M441.135 397.061C441.135 396.768 441.216 396.481 441.369 396.237C441.521 395.993 441.737 395.803 441.99 395.691C442.243 395.579 442.522 395.549 442.79 395.607C443.059 395.664 443.306 395.805 443.5 396.012C443.693 396.22 443.825 396.484 443.879 396.771C443.932 397.059 443.905 397.357 443.8 397.628C443.695 397.899 443.518 398.131 443.29 398.294C443.062 398.456 442.794 398.543 442.52 398.543C442.153 398.543 441.801 398.387 441.541 398.109C441.281 397.831 441.135 397.454 441.135 397.061Z" fill="#406FBB"/>
<path fill-rule="evenodd" clip-rule="evenodd" d="M522.464 464.8C522.464 464.507 522.545 464.22 522.697 463.976C522.849 463.732 523.065 463.542 523.318 463.43C523.571 463.318 523.85 463.288 524.119 463.346C524.387 463.403 524.634 463.544 524.828 463.751C525.021 463.959 525.153 464.223 525.207 464.51C525.26 464.798 525.233 465.096 525.128 465.367C525.023 465.638 524.846 465.87 524.618 466.033C524.39 466.195 524.123 466.282 523.849 466.282C523.667 466.283 523.487 466.244 523.319 466.17C523.151 466.095 522.998 465.986 522.869 465.848C522.741 465.711 522.639 465.547 522.569 465.367C522.499 465.187 522.464 464.995 522.464 464.8Z" fill="#365CBB"/>
<path d="M607.592 574.205C606.827 574.205 606.207 574.869 606.207 575.688C606.207 576.507 606.827 577.17 607.592 577.17C608.357 577.17 608.977 576.507 608.977 575.688C608.977 574.869 608.357 574.205 607.592 574.205Z" fill="#365CBB"/>
<path fill-rule="evenodd" clip-rule="evenodd" d="M442.521 626.396C442.521 626.003 442.666 625.626 442.926 625.348C443.186 625.07 443.538 624.914 443.905 624.914C444.087 624.914 444.267 624.952 444.435 625.026C444.603 625.101 444.756 625.21 444.885 625.348C445.013 625.486 445.115 625.649 445.185 625.829C445.254 626.009 445.29 626.202 445.29 626.396C445.29 626.591 445.254 626.784 445.185 626.964C445.115 627.144 445.013 627.307 444.885 627.445C444.756 627.582 444.603 627.692 444.435 627.766C444.267 627.841 444.087 627.879 443.905 627.879C443.723 627.879 443.543 627.841 443.375 627.766C443.207 627.692 443.055 627.582 442.926 627.445C442.798 627.307 442.696 627.144 442.626 626.964C442.556 626.784 442.521 626.591 442.521 626.396Z" fill="#365CBB"/>
<path fill-rule="evenodd" clip-rule="evenodd" d="M354.506 364.74C354.506 364.447 354.587 364.16 354.739 363.917C354.892 363.673 355.108 363.483 355.361 363.371C355.614 363.259 355.892 363.229 356.161 363.287C356.43 363.344 356.676 363.485 356.87 363.692C357.063 363.9 357.195 364.164 357.249 364.451C357.302 364.739 357.275 365.037 357.17 365.308C357.065 365.579 356.888 365.81 356.66 365.973C356.432 366.136 356.165 366.223 355.891 366.223C355.709 366.223 355.529 366.185 355.361 366.11C355.193 366.036 355.04 365.927 354.911 365.789C354.783 365.651 354.681 365.488 354.611 365.308C354.542 365.128 354.506 364.935 354.506 364.74Z" fill="#365CBB"/>
<path d="M344.43 637.273C343.665 637.273 343.045 637.937 343.045 638.756C343.045 639.574 343.665 640.238 344.43 640.238C345.194 640.238 345.814 639.574 345.814 638.756C345.814 637.937 345.194 637.273 344.43 637.273Z" fill="#365CBB"/>
<path fill-rule="evenodd" clip-rule="evenodd" d="M621.777 19.8696C621.777 19.5763 621.858 19.2897 622.01 19.0458C622.163 18.802 622.379 18.612 622.632 18.4997C622.885 18.3875 623.163 18.3581 623.432 18.4153C623.701 18.4725 623.948 18.6137 624.141 18.8211C624.335 19.0285 624.467 19.2926 624.52 19.5802C624.574 19.8679 624.546 20.166 624.441 20.4369C624.337 20.7078 624.159 20.9394 623.931 21.1023C623.704 21.2652 623.436 21.3521 623.162 21.3521C622.98 21.3521 622.8 21.3137 622.632 21.2392C622.464 21.1647 622.311 21.0555 622.183 20.9179C622.054 20.7802 621.952 20.6168 621.882 20.4369C621.813 20.2571 621.777 20.0643 621.777 19.8696Z" fill="#90FFFF"/>
<path fill-rule="evenodd" clip-rule="evenodd" d="M293.427 606.314C293.427 605.921 293.573 605.543 293.832 605.265C294.092 604.987 294.444 604.831 294.812 604.831C295.179 604.831 295.531 604.987 295.791 605.265C296.051 605.543 296.197 605.921 296.197 606.314C296.197 606.707 296.051 607.084 295.791 607.362C295.531 607.64 295.179 607.796 294.812 607.796C294.444 607.796 294.092 607.64 293.832 607.362C293.573 607.084 293.427 606.707 293.427 606.314Z" fill="#406FBB"/>
<path fill-rule="evenodd" clip-rule="evenodd" d="M305.363 409.717C305.363 409.424 305.444 409.137 305.597 408.894C305.749 408.65 305.965 408.46 306.218 408.348C306.471 408.235 306.75 408.206 307.018 408.263C307.287 408.321 307.534 408.462 307.727 408.669C307.921 408.876 308.053 409.141 308.106 409.428C308.16 409.716 308.132 410.014 308.027 410.285C307.923 410.556 307.745 410.787 307.517 410.95C307.29 411.113 307.022 411.2 306.748 411.2C306.566 411.2 306.386 411.162 306.218 411.087C306.05 411.013 305.897 410.904 305.769 410.766C305.64 410.628 305.538 410.465 305.469 410.285C305.399 410.105 305.363 409.912 305.363 409.717Z" fill="#406FBB"/>
<path fill-rule="evenodd" clip-rule="evenodd" d="M659.024 480.798C659.024 480.505 659.105 480.218 659.257 479.974C659.41 479.73 659.626 479.54 659.879 479.428C660.132 479.316 660.411 479.286 660.679 479.344C660.948 479.401 661.195 479.542 661.388 479.749C661.582 479.957 661.714 480.221 661.767 480.509C661.821 480.796 661.793 481.094 661.688 481.365C661.584 481.636 661.406 481.868 661.178 482.031C660.951 482.194 660.683 482.281 660.409 482.281C660.042 482.281 659.689 482.124 659.43 481.846C659.17 481.568 659.024 481.191 659.024 480.798Z" fill="#406FBB"/>
<path fill-rule="evenodd" clip-rule="evenodd" d="M95.7881 619.601C95.7881 619.208 95.934 618.831 96.1937 618.553C96.4535 618.275 96.8058 618.119 97.1732 618.119C97.3551 618.119 97.5353 618.157 97.7034 618.231C97.8715 618.306 98.0241 618.415 98.1528 618.553C98.2814 618.69 98.3835 618.854 98.4531 619.034C98.5228 619.214 98.5586 619.406 98.5586 619.601C98.5586 619.994 98.4127 620.372 98.1529 620.65C97.893 620.928 97.5406 621.084 97.1732 621.084C96.8058 621.084 96.4535 620.928 96.1937 620.65C95.934 620.371 95.7881 619.994 95.7881 619.601Z" fill="#406FBB"/>
<path fill-rule="evenodd" clip-rule="evenodd" d="M585.894 403.23C585.895 402.937 585.976 402.651 586.128 402.407C586.28 402.163 586.497 401.973 586.75 401.861C587.003 401.749 587.281 401.719 587.55 401.777C587.818 401.834 588.065 401.975 588.259 402.183C588.452 402.39 588.584 402.654 588.637 402.942C588.691 403.229 588.664 403.527 588.559 403.798C588.454 404.069 588.276 404.301 588.049 404.464C587.821 404.626 587.553 404.713 587.279 404.713C587.097 404.713 586.917 404.675 586.749 404.6C586.581 404.526 586.429 404.417 586.3 404.279C586.171 404.141 586.069 403.978 586 403.798C585.93 403.618 585.894 403.425 585.894 403.23Z" fill="#406FBB"/>
<path fill-rule="evenodd" clip-rule="evenodd" d="M458.49 1.48259C458.49 1.18938 458.571 0.902753 458.723 0.658957C458.876 0.41516 459.092 0.225136 459.345 0.112928C459.598 0.000721216 459.876 -0.0286 460.145 0.0286028C460.414 0.0858057 460.66 0.226967 460.854 0.434299C461.048 0.641631 461.18 0.905797 461.233 1.19338C461.287 1.48095 461.259 1.77905 461.154 2.04994C461.05 2.32083 460.872 2.55237 460.644 2.71527C460.417 2.87817 460.149 2.96509 459.875 2.96509C459.508 2.96502 459.155 2.80884 458.896 2.53083C458.636 2.25282 458.49 1.87575 458.49 1.48259Z" fill="#406FBB"/>
<path fill-rule="evenodd" clip-rule="evenodd" d="M-0.000356436 638.708C-0.000356436 638.315 0.145584 637.938 0.405272 637.66C0.66496 637.382 1.01715 637.226 1.38441 637.226C1.56628 637.226 1.7464 637.264 1.91444 637.338C2.08249 637.413 2.23519 637.522 2.36381 637.66C2.49243 637.797 2.59447 637.961 2.66409 638.141C2.7337 638.321 2.76952 638.513 2.76953 638.708C2.76955 638.903 2.73378 639.096 2.66418 639.276C2.59458 639.455 2.49253 639.619 2.3639 639.757C2.23528 639.894 2.08259 640.004 1.91454 640.078C1.74648 640.153 1.5663 640.191 1.38441 640.191C1.20254 640.191 1.02248 640.153 0.854457 640.078C0.686437 640.003 0.533768 639.894 0.405181 639.757C0.276594 639.619 0.174572 639.455 0.104998 639.275C0.0354235 639.096 -0.000387669 638.903 -0.000356436 638.708Z" fill="#406FBB"/>
<path fill-rule="evenodd" clip-rule="evenodd" d="M567.754 586.117C567.754 585.824 567.836 585.537 567.988 585.293C568.14 585.049 568.356 584.859 568.609 584.747C568.862 584.635 569.141 584.606 569.409 584.663C569.678 584.72 569.925 584.861 570.119 585.068C570.312 585.276 570.444 585.54 570.498 585.828C570.551 586.115 570.524 586.413 570.419 586.684C570.314 586.955 570.137 587.187 569.909 587.35C569.681 587.513 569.413 587.6 569.14 587.6C568.772 587.6 568.42 587.443 568.16 587.165C567.9 586.887 567.755 586.51 567.754 586.117Z" fill="#406FBB"/>
<path fill-rule="evenodd" clip-rule="evenodd" d="M298.656 208.157C298.656 207.864 298.737 207.577 298.889 207.333C299.042 207.09 299.258 206.9 299.511 206.787C299.764 206.675 300.042 206.646 300.311 206.703C300.58 206.76 300.827 206.901 301.02 207.109C301.214 207.316 301.346 207.58 301.399 207.868C301.453 208.155 301.425 208.454 301.32 208.724C301.216 208.995 301.038 209.227 300.81 209.39C300.583 209.553 300.315 209.64 300.041 209.64C299.674 209.64 299.321 209.483 299.062 209.205C298.802 208.927 298.656 208.55 298.656 208.157Z" fill="#406FBB"/>
<path fill-rule="evenodd" clip-rule="evenodd" d="M739.372 412.594C739.372 412.301 739.453 412.014 739.605 411.77C739.757 411.527 739.974 411.337 740.227 411.224C740.48 411.112 740.758 411.083 741.027 411.14C741.296 411.197 741.542 411.338 741.736 411.546C741.93 411.753 742.062 412.017 742.115 412.305C742.168 412.592 742.141 412.891 742.036 413.161C741.931 413.432 741.754 413.664 741.526 413.827C741.298 413.99 741.031 414.077 740.757 414.077C740.389 414.077 740.037 413.92 739.778 413.642C739.518 413.364 739.372 412.987 739.372 412.594Z" fill="#406FBB"/>
<path fill-rule="evenodd" clip-rule="evenodd" d="M707.961 623.425C707.961 623.032 708.107 622.655 708.366 622.377C708.626 622.099 708.978 621.943 709.345 621.943C709.713 621.943 710.065 622.099 710.325 622.377C710.584 622.655 710.73 623.032 710.73 623.425C710.73 623.62 710.695 623.813 710.625 623.993C710.555 624.172 710.453 624.336 710.325 624.474C710.196 624.611 710.043 624.72 709.875 624.795C709.707 624.869 709.527 624.908 709.345 624.908C709.164 624.908 708.983 624.869 708.815 624.795C708.647 624.72 708.495 624.611 708.366 624.474C708.238 624.336 708.136 624.172 708.066 623.993C707.996 623.813 707.961 623.62 707.961 623.425Z" fill="#406FBB"/>
<path fill-rule="evenodd" clip-rule="evenodd" d="M412.905 273.617C412.905 273.323 412.986 273.037 413.138 272.793C413.29 272.549 413.507 272.359 413.76 272.247C414.013 272.134 414.291 272.105 414.56 272.162C414.829 272.219 415.075 272.361 415.269 272.568C415.463 272.775 415.595 273.04 415.648 273.327C415.702 273.615 415.674 273.913 415.569 274.184C415.464 274.455 415.287 274.686 415.059 274.849C414.831 275.012 414.564 275.099 414.29 275.099C413.922 275.099 413.57 274.943 413.31 274.665C413.051 274.387 412.905 274.01 412.905 273.617Z" fill="#406FBB"/>
<path fill-rule="evenodd" clip-rule="evenodd" d="M521.077 518.869C521.077 518.576 521.158 518.289 521.31 518.045C521.462 517.801 521.679 517.611 521.932 517.499C522.185 517.387 522.463 517.358 522.732 517.415C523 517.472 523.247 517.613 523.441 517.821C523.635 518.028 523.767 518.292 523.82 518.58C523.874 518.867 523.846 519.165 523.741 519.436C523.636 519.707 523.459 519.939 523.231 520.102C523.003 520.265 522.735 520.352 522.462 520.352C522.094 520.351 521.742 520.195 521.482 519.917C521.223 519.639 521.077 519.262 521.077 518.869Z" fill="#406FBB"/>
<path fill-rule="evenodd" clip-rule="evenodd" d="M197.33 165.206C197.33 164.913 197.411 164.626 197.563 164.383C197.715 164.139 197.932 163.949 198.185 163.836C198.438 163.724 198.716 163.695 198.985 163.752C199.254 163.809 199.5 163.95 199.694 164.158C199.888 164.365 200.02 164.629 200.073 164.917C200.126 165.205 200.099 165.503 199.994 165.774C199.889 166.045 199.712 166.276 199.484 166.439C199.256 166.602 198.988 166.689 198.715 166.689C198.347 166.689 197.995 166.533 197.735 166.255C197.476 165.977 197.33 165.6 197.33 165.206Z" fill="#406FBB"/>
<path fill-rule="evenodd" clip-rule="evenodd" d="M277.353 512.92C277.353 512.627 277.434 512.341 277.586 512.097C277.738 511.853 277.955 511.663 278.208 511.551C278.461 511.439 278.739 511.409 279.008 511.466C279.276 511.524 279.523 511.665 279.717 511.872C279.911 512.08 280.042 512.344 280.096 512.631C280.149 512.919 280.122 513.217 280.017 513.488C279.912 513.759 279.735 513.99 279.507 514.153C279.279 514.316 279.012 514.403 278.738 514.403C278.556 514.403 278.376 514.365 278.208 514.29C278.04 514.216 277.887 514.107 277.758 513.969C277.63 513.831 277.528 513.668 277.458 513.488C277.388 513.308 277.353 513.115 277.353 512.92Z" fill="#68B7E7"/>
<path fill-rule="evenodd" clip-rule="evenodd" d="M209.453 500.601C209.453 500.308 209.534 500.021 209.686 499.778C209.838 499.534 210.055 499.344 210.308 499.232C210.561 499.119 210.839 499.09 211.108 499.147C211.376 499.204 211.623 499.346 211.817 499.553C212.011 499.76 212.143 500.024 212.196 500.312C212.249 500.6 212.222 500.898 212.117 501.169C212.012 501.44 211.835 501.671 211.607 501.834C211.379 501.997 211.112 502.084 210.838 502.084C210.656 502.084 210.476 502.046 210.308 501.971C210.14 501.897 209.987 501.787 209.858 501.65C209.73 501.512 209.628 501.349 209.558 501.169C209.488 500.989 209.453 500.796 209.453 500.601Z" fill="#406FBB"/>
<path fill-rule="evenodd" clip-rule="evenodd" d="M368.885 116.287C368.885 115.993 368.966 115.707 369.118 115.463C369.271 115.219 369.487 115.029 369.74 114.917C369.993 114.805 370.271 114.775 370.54 114.833C370.808 114.89 371.055 115.031 371.249 115.238C371.442 115.446 371.574 115.71 371.628 115.997C371.681 116.285 371.654 116.583 371.549 116.854C371.444 117.125 371.267 117.356 371.039 117.519C370.811 117.682 370.543 117.769 370.27 117.769C370.088 117.769 369.908 117.731 369.74 117.656C369.572 117.582 369.419 117.473 369.291 117.335C369.162 117.197 369.06 117.034 368.99 116.854C368.921 116.674 368.885 116.481 368.885 116.287Z" fill="#406FBB"/>
<path fill-rule="evenodd" clip-rule="evenodd" d="M628.262 456.255C628.262 455.962 628.343 455.675 628.495 455.431C628.647 455.187 628.863 454.997 629.116 454.885C629.369 454.773 629.648 454.743 629.917 454.8C630.185 454.858 630.432 454.999 630.626 455.206C630.819 455.414 630.951 455.678 631.005 455.965C631.058 456.253 631.031 456.551 630.926 456.822C630.821 457.093 630.643 457.325 630.416 457.487C630.188 457.65 629.92 457.737 629.646 457.737C629.279 457.737 628.927 457.581 628.667 457.303C628.407 457.025 628.262 456.648 628.262 456.255Z" fill="#90FFFF"/>
<path d="M500.345 436.878C499.58 436.878 498.96 437.541 498.96 438.36C498.96 439.179 499.58 439.843 500.345 439.843C501.11 439.843 501.729 439.179 501.729 438.36C501.729 437.541 501.11 436.878 500.345 436.878Z" fill="#90FFFF"/>
<path fill-rule="evenodd" clip-rule="evenodd" d="M512.846 624.913C512.846 624.52 512.992 624.143 513.251 623.865C513.511 623.587 513.863 623.431 514.231 623.431C514.598 623.431 514.95 623.587 515.21 623.865C515.469 624.143 515.615 624.52 515.615 624.913C515.615 625.108 515.58 625.301 515.51 625.481C515.44 625.66 515.338 625.824 515.21 625.962C515.081 626.099 514.929 626.209 514.761 626.283C514.593 626.358 514.412 626.396 514.231 626.396C513.863 626.396 513.511 626.24 513.251 625.962C512.991 625.684 512.846 625.306 512.846 624.913Z" fill="#90FFFF"/>
<path fill-rule="evenodd" clip-rule="evenodd" d="M746.511 512.965C746.511 512.672 746.592 512.386 746.744 512.142C746.897 511.898 747.113 511.708 747.366 511.596C747.619 511.484 747.897 511.455 748.166 511.512C748.434 511.569 748.681 511.71 748.875 511.918C749.068 512.125 749.2 512.389 749.254 512.677C749.307 512.964 749.28 513.262 749.175 513.533C749.07 513.804 748.893 514.036 748.665 514.198C748.437 514.361 748.169 514.448 747.896 514.448C747.714 514.448 747.534 514.41 747.366 514.335C747.198 514.261 747.045 514.152 746.916 514.014C746.788 513.876 746.686 513.713 746.616 513.533C746.547 513.353 746.511 513.16 746.511 512.965Z" fill="#90FFFF"/>
<path fill-rule="evenodd" clip-rule="evenodd" d="M415.933 223.042C415.933 222.748 416.015 222.462 416.167 222.218C416.319 221.974 416.535 221.784 416.788 221.672C417.041 221.56 417.32 221.53 417.588 221.588C417.857 221.645 418.104 221.786 418.297 221.993C418.491 222.201 418.623 222.465 418.677 222.752C418.73 223.04 418.703 223.338 418.598 223.609C418.493 223.88 418.315 224.111 418.088 224.274C417.86 224.437 417.592 224.524 417.318 224.524C416.951 224.524 416.599 224.368 416.339 224.09C416.079 223.812 415.933 223.435 415.933 223.042Z" fill="#B7FFFF"/>
<path fill-rule="evenodd" clip-rule="evenodd" d="M473.236 571.066C473.236 570.773 473.317 570.486 473.469 570.242C473.622 569.998 473.838 569.808 474.091 569.696C474.344 569.584 474.622 569.555 474.891 569.612C475.16 569.669 475.407 569.81 475.6 570.018C475.794 570.225 475.926 570.489 475.979 570.777C476.033 571.064 476.005 571.363 475.9 571.633C475.796 571.904 475.618 572.136 475.39 572.299C475.163 572.462 474.895 572.549 474.621 572.549C474.439 572.549 474.259 572.51 474.091 572.436C473.923 572.361 473.77 572.252 473.642 572.115C473.513 571.977 473.411 571.813 473.341 571.633C473.272 571.454 473.236 571.261 473.236 571.066Z" fill="#90FFFF"/>
<path fill-rule="evenodd" clip-rule="evenodd" d="M210.837 368.264C210.837 367.97 210.918 367.684 211.07 367.44C211.222 367.196 211.438 367.006 211.691 366.894C211.944 366.782 212.223 366.752 212.491 366.81C212.76 366.867 213.007 367.008 213.2 367.215C213.394 367.423 213.526 367.687 213.579 367.974C213.633 368.262 213.605 368.56 213.501 368.831C213.396 369.102 213.218 369.333 212.991 369.496C212.763 369.659 212.495 369.746 212.221 369.746C211.854 369.746 211.502 369.59 211.242 369.312C210.982 369.034 210.837 368.657 210.837 368.264Z" fill="#90FFFF"/>
<path fill-rule="evenodd" clip-rule="evenodd" d="M491.888 218.172C491.888 217.878 491.97 217.592 492.122 217.348C492.274 217.104 492.49 216.914 492.743 216.802C492.996 216.69 493.275 216.66 493.543 216.717C493.812 216.775 494.059 216.916 494.253 217.123C494.446 217.331 494.578 217.595 494.632 217.882C494.685 218.17 494.658 218.468 494.553 218.739C494.448 219.01 494.27 219.241 494.043 219.404C493.815 219.567 493.547 219.654 493.273 219.654C492.906 219.654 492.554 219.498 492.294 219.22C492.034 218.942 491.888 218.565 491.888 218.172Z" fill="#90FFFF"/>
<path fill-rule="evenodd" clip-rule="evenodd" d="M683.031 205.238C683.031 204.945 683.112 204.659 683.264 204.415C683.417 204.171 683.633 203.981 683.886 203.869C684.139 203.757 684.417 203.727 684.686 203.784C684.955 203.842 685.201 203.983 685.395 204.19C685.589 204.397 685.721 204.662 685.774 204.949C685.828 205.237 685.8 205.535 685.695 205.806C685.591 206.077 685.413 206.308 685.185 206.471C684.958 206.634 684.69 206.721 684.416 206.721C684.234 206.721 684.054 206.683 683.886 206.608C683.718 206.534 683.565 206.425 683.437 206.287C683.308 206.149 683.206 205.986 683.136 205.806C683.067 205.626 683.031 205.433 683.031 205.238Z" fill="#90FFFF"/>
<path fill-rule="evenodd" clip-rule="evenodd" d="M212.221 647.357C212.221 647.162 212.257 646.969 212.327 646.789C212.396 646.61 212.498 646.446 212.627 646.308C212.755 646.171 212.908 646.061 213.076 645.987C213.244 645.912 213.424 645.874 213.606 645.874C213.788 645.874 213.968 645.912 214.136 645.987C214.304 646.061 214.457 646.171 214.585 646.308C214.714 646.446 214.816 646.609 214.885 646.789C214.955 646.969 214.991 647.162 214.991 647.357C214.991 647.552 214.955 647.744 214.885 647.924C214.816 648.104 214.714 648.268 214.585 648.405C214.456 648.543 214.304 648.652 214.136 648.727C213.968 648.801 213.788 648.839 213.606 648.839C213.239 648.839 212.886 648.683 212.627 648.405C212.367 648.127 212.221 647.75 212.221 647.357Z" fill="#90FFFF"/>
<path fill-rule="evenodd" clip-rule="evenodd" d="M306.13 541.314C306.13 541.021 306.211 540.734 306.363 540.49C306.515 540.246 306.731 540.056 306.985 539.944C307.238 539.832 307.516 539.802 307.785 539.859C308.053 539.917 308.3 540.058 308.494 540.265C308.688 540.473 308.819 540.737 308.873 541.024C308.926 541.312 308.899 541.61 308.794 541.881C308.689 542.152 308.512 542.384 308.284 542.547C308.056 542.709 307.788 542.796 307.514 542.796C307.147 542.796 306.795 542.64 306.535 542.362C306.276 542.084 306.13 541.707 306.13 541.314Z" fill="#90FFFF"/>
<path fill-rule="evenodd" clip-rule="evenodd" d="M353.12 456.255C353.12 455.962 353.201 455.675 353.353 455.431C353.505 455.187 353.722 454.997 353.975 454.885C354.228 454.773 354.506 454.743 354.775 454.8C355.043 454.858 355.29 454.999 355.484 455.206C355.678 455.413 355.81 455.678 355.863 455.965C355.916 456.253 355.889 456.551 355.784 456.822C355.68 457.093 355.502 457.324 355.274 457.487C355.047 457.65 354.779 457.737 354.505 457.737C354.323 457.737 354.143 457.699 353.975 457.625C353.807 457.55 353.654 457.441 353.526 457.303C353.397 457.165 353.295 457.002 353.225 456.822C353.156 456.642 353.12 456.449 353.12 456.255Z" fill="#90FFFF"/>
<path fill-rule="evenodd" clip-rule="evenodd" d="M496.207 455.782C496.207 455.489 496.288 455.202 496.44 454.958C496.592 454.714 496.809 454.524 497.062 454.412C497.315 454.3 497.593 454.271 497.862 454.328C498.131 454.385 498.377 454.526 498.571 454.734C498.765 454.941 498.897 455.205 498.95 455.493C499.003 455.78 498.976 456.078 498.871 456.349C498.766 456.62 498.589 456.852 498.361 457.015C498.133 457.178 497.865 457.265 497.592 457.265C497.41 457.265 497.23 457.226 497.062 457.152C496.894 457.077 496.741 456.968 496.612 456.83C496.484 456.693 496.382 456.529 496.312 456.349C496.243 456.17 496.207 455.977 496.207 455.782Z" fill="#90FFFF"/>
<path fill-rule="evenodd" clip-rule="evenodd" d="M451.67 197.163C451.67 196.87 451.751 196.583 451.903 196.339C452.055 196.096 452.271 195.906 452.524 195.793C452.778 195.681 453.056 195.652 453.325 195.709C453.593 195.766 453.84 195.907 454.034 196.115C454.228 196.322 454.359 196.586 454.413 196.874C454.466 197.162 454.439 197.46 454.334 197.731C454.229 198.002 454.052 198.233 453.824 198.396C453.596 198.559 453.328 198.646 453.054 198.646C452.687 198.646 452.335 198.49 452.075 198.212C451.816 197.934 451.67 197.556 451.67 197.163Z" fill="#90FFFF"/>
<path fill-rule="evenodd" clip-rule="evenodd" d="M490.486 325.186C490.486 324.892 490.567 324.606 490.719 324.362C490.872 324.118 491.088 323.928 491.341 323.816C491.594 323.703 491.872 323.674 492.141 323.731C492.41 323.788 492.656 323.93 492.85 324.137C493.044 324.344 493.176 324.608 493.229 324.896C493.283 325.184 493.255 325.482 493.15 325.753C493.046 326.024 492.868 326.255 492.641 326.418C492.413 326.581 492.145 326.668 491.871 326.668C491.504 326.668 491.152 326.512 490.892 326.234C490.632 325.956 490.486 325.579 490.486 325.186Z" fill="#68B7E7"/>
<path fill-rule="evenodd" clip-rule="evenodd" d="M577.67 385.883C577.67 385.59 577.752 385.303 577.904 385.059C578.056 384.815 578.272 384.625 578.525 384.513C578.778 384.401 579.057 384.372 579.326 384.429C579.594 384.486 579.841 384.627 580.035 384.835C580.229 385.042 580.36 385.306 580.414 385.594C580.467 385.881 580.44 386.18 580.335 386.45C580.23 386.721 580.053 386.953 579.825 387.116C579.597 387.279 579.329 387.366 579.055 387.366C578.688 387.366 578.336 387.209 578.076 386.931C577.816 386.653 577.671 386.276 577.67 385.883Z" fill="#406FBB"/>
<path fill-rule="evenodd" clip-rule="evenodd" d="M643.146 419.682C643.146 419.389 643.228 419.103 643.38 418.859C643.532 418.615 643.748 418.425 644.001 418.313C644.254 418.201 644.533 418.171 644.801 418.229C645.07 418.286 645.317 418.427 645.51 418.635C645.704 418.842 645.836 419.106 645.889 419.394C645.943 419.681 645.915 419.979 645.811 420.25C645.706 420.521 645.528 420.753 645.3 420.915C645.073 421.078 644.805 421.165 644.531 421.165C644.349 421.165 644.169 421.127 644.001 421.052C643.833 420.978 643.68 420.869 643.552 420.731C643.423 420.593 643.321 420.43 643.251 420.25C643.182 420.07 643.146 419.877 643.146 419.682Z" fill="#406FBB"/>
<path fill-rule="evenodd" clip-rule="evenodd" d="M724.471 487.427C724.471 487.134 724.552 486.847 724.705 486.603C724.857 486.36 725.073 486.17 725.326 486.057C725.579 485.945 725.858 485.916 726.126 485.973C726.395 486.03 726.642 486.171 726.835 486.379C727.029 486.586 727.161 486.85 727.215 487.138C727.268 487.425 727.241 487.723 727.136 487.994C727.031 488.265 726.854 488.497 726.626 488.66C726.398 488.823 726.13 488.91 725.856 488.91C725.489 488.91 725.137 488.754 724.877 488.476C724.617 488.198 724.471 487.821 724.471 487.427Z" fill="#365CBB"/>
<path fill-rule="evenodd" clip-rule="evenodd" d="M808.215 598.315C808.215 598.12 808.251 597.927 808.32 597.747C808.39 597.568 808.492 597.404 808.62 597.266C808.749 597.129 808.902 597.019 809.07 596.945C809.238 596.87 809.418 596.832 809.6 596.832C809.781 596.832 809.962 596.87 810.13 596.945C810.298 597.019 810.45 597.129 810.579 597.266C810.707 597.404 810.809 597.568 810.879 597.747C810.949 597.927 810.984 598.12 810.984 598.315C810.984 598.708 810.838 599.085 810.579 599.363C810.319 599.641 809.967 599.797 809.6 599.797C809.232 599.797 808.88 599.641 808.62 599.363C808.361 599.085 808.215 598.708 808.215 598.315Z" fill="#365CBB"/>
<path fill-rule="evenodd" clip-rule="evenodd" d="M644.531 649.018C644.531 648.624 644.677 648.247 644.937 647.969C645.196 647.691 645.549 647.535 645.916 647.535C646.283 647.535 646.635 647.691 646.895 647.969C647.155 648.247 647.301 648.624 647.301 649.018C647.301 649.411 647.155 649.788 646.895 650.066C646.635 650.344 646.283 650.5 645.916 650.5C645.549 650.5 645.196 650.344 644.937 650.066C644.677 649.788 644.531 649.411 644.531 649.018Z" fill="#365CBB"/>
<path fill-rule="evenodd" clip-rule="evenodd" d="M784.899 263.921C784.899 263.628 784.98 263.341 785.132 263.097C785.284 262.853 785.501 262.663 785.754 262.551C786.007 262.439 786.285 262.409 786.554 262.466C786.823 262.524 787.069 262.665 787.263 262.872C787.457 263.079 787.589 263.344 787.642 263.631C787.696 263.919 787.668 264.217 787.564 264.488C787.459 264.759 787.281 264.99 787.054 265.153C786.826 265.316 786.558 265.403 786.284 265.403C785.917 265.403 785.565 265.247 785.305 264.969C785.045 264.691 784.899 264.314 784.899 263.921Z" fill="#365CBB"/>
<path fill-rule="evenodd" clip-rule="evenodd" d="M556.515 387.367C556.515 387.073 556.596 386.787 556.749 386.543C556.901 386.299 557.117 386.109 557.37 385.997C557.623 385.885 557.902 385.855 558.17 385.912C558.439 385.97 558.686 386.111 558.879 386.318C559.073 386.526 559.205 386.79 559.259 387.077C559.312 387.365 559.285 387.663 559.18 387.934C559.075 388.205 558.897 388.436 558.67 388.599C558.442 388.762 558.174 388.849 557.9 388.849C557.718 388.849 557.538 388.811 557.37 388.737C557.202 388.662 557.05 388.553 556.921 388.415C556.792 388.277 556.69 388.114 556.621 387.934C556.551 387.754 556.515 387.561 556.515 387.367Z" fill="#365CBB"/>
<path fill-rule="evenodd" clip-rule="evenodd" d="M545.053 661.383C545.053 661.188 545.089 660.995 545.159 660.816C545.228 660.636 545.33 660.472 545.459 660.335C545.588 660.197 545.74 660.088 545.908 660.013C546.076 659.939 546.256 659.9 546.438 659.9C546.805 659.9 547.158 660.057 547.417 660.335C547.677 660.613 547.823 660.99 547.823 661.383C547.823 661.776 547.677 662.153 547.417 662.431C547.158 662.709 546.805 662.866 546.438 662.866C546.071 662.866 545.719 662.709 545.459 662.431C545.199 662.153 545.053 661.776 545.053 661.383Z" fill="#365CBB"/>
<path fill-rule="evenodd" clip-rule="evenodd" d="M861.035 503.42C861.035 503.127 861.116 502.84 861.268 502.596C861.42 502.352 861.637 502.162 861.89 502.05C862.143 501.938 862.421 501.908 862.69 501.965C862.959 502.023 863.205 502.164 863.399 502.371C863.593 502.579 863.725 502.843 863.778 503.13C863.832 503.418 863.804 503.716 863.699 503.987C863.594 504.258 863.417 504.49 863.189 504.653C862.961 504.815 862.694 504.902 862.42 504.902C862.052 504.902 861.7 504.746 861.44 504.468C861.181 504.19 861.035 503.813 861.035 503.42Z" fill="#406FBB"/>
<path fill-rule="evenodd" clip-rule="evenodd" d="M787.905 425.853C787.905 425.559 787.987 425.273 788.139 425.029C788.291 424.785 788.507 424.595 788.76 424.483C789.013 424.371 789.292 424.341 789.56 424.399C789.829 424.456 790.076 424.597 790.269 424.804C790.463 425.012 790.595 425.276 790.648 425.563C790.702 425.851 790.674 426.149 790.569 426.42C790.465 426.691 790.287 426.922 790.059 427.085C789.832 427.248 789.564 427.335 789.29 427.335C788.923 427.335 788.571 427.179 788.311 426.901C788.051 426.623 787.905 426.246 787.905 425.853Z" fill="#406FBB"/>
<path fill-rule="evenodd" clip-rule="evenodd" d="M769.765 608.739C769.765 608.346 769.911 607.969 770.171 607.691C770.431 607.412 770.783 607.256 771.15 607.256C771.517 607.256 771.87 607.412 772.129 607.69C772.389 607.969 772.535 608.346 772.535 608.739C772.535 609.132 772.389 609.509 772.13 609.787C771.87 610.065 771.517 610.222 771.15 610.222C770.968 610.222 770.788 610.183 770.62 610.109C770.452 610.034 770.3 609.925 770.171 609.787C770.042 609.65 769.94 609.486 769.871 609.306C769.801 609.126 769.765 608.934 769.765 608.739Z" fill="#406FBB"/>
<path fill-rule="evenodd" clip-rule="evenodd" d="M777.388 218.299C777.388 218.006 777.47 217.72 777.622 217.476C777.774 217.232 777.99 217.042 778.243 216.93C778.496 216.818 778.775 216.788 779.044 216.845C779.312 216.903 779.559 217.044 779.753 217.251C779.946 217.459 780.078 217.723 780.132 218.01C780.185 218.298 780.158 218.596 780.053 218.867C779.948 219.138 779.771 219.369 779.543 219.532C779.315 219.695 779.047 219.782 778.773 219.782C778.406 219.782 778.054 219.626 777.794 219.348C777.534 219.07 777.388 218.693 777.388 218.299Z" fill="#406FBB"/>
<path fill-rule="evenodd" clip-rule="evenodd" d="M941.382 435.216C941.382 434.923 941.463 434.636 941.615 434.392C941.767 434.149 941.983 433.959 942.236 433.846C942.489 433.734 942.768 433.705 943.037 433.762C943.305 433.819 943.552 433.96 943.746 434.168C943.939 434.375 944.071 434.639 944.125 434.927C944.178 435.214 944.151 435.512 944.046 435.783C943.941 436.054 943.764 436.286 943.536 436.449C943.308 436.612 943.041 436.699 942.767 436.699C942.585 436.699 942.405 436.66 942.237 436.586C942.069 436.511 941.916 436.402 941.787 436.265C941.659 436.127 941.557 435.964 941.487 435.784C941.417 435.604 941.382 435.411 941.382 435.216Z" fill="#406FBB"/>
<path fill-rule="evenodd" clip-rule="evenodd" d="M909.969 646.056C909.969 645.662 910.115 645.285 910.375 645.007C910.635 644.729 910.987 644.573 911.354 644.573C911.722 644.573 912.074 644.729 912.334 645.007C912.593 645.285 912.739 645.662 912.739 646.056C912.739 646.25 912.703 646.443 912.634 646.623C912.564 646.803 912.462 646.966 912.334 647.104C912.205 647.242 912.052 647.351 911.884 647.425C911.716 647.5 911.536 647.538 911.354 647.538C910.987 647.538 910.635 647.382 910.375 647.104C910.115 646.826 909.969 646.449 909.969 646.056Z" fill="#406FBB"/>
<path fill-rule="evenodd" clip-rule="evenodd" d="M723.088 541.496C723.088 541.203 723.169 540.916 723.321 540.672C723.473 540.428 723.689 540.238 723.942 540.126C724.196 540.014 724.474 539.984 724.743 540.042C725.011 540.099 725.258 540.24 725.452 540.447C725.646 540.655 725.777 540.919 725.831 541.207C725.884 541.494 725.857 541.792 725.752 542.063C725.647 542.334 725.47 542.566 725.242 542.729C725.014 542.892 724.746 542.979 724.472 542.979C724.105 542.979 723.753 542.822 723.493 542.544C723.234 542.266 723.088 541.889 723.088 541.496Z" fill="#406FBB"/>
<path fill-rule="evenodd" clip-rule="evenodd" d="M830.269 478.887C830.269 478.594 830.35 478.307 830.503 478.064C830.655 477.82 830.871 477.63 831.124 477.517C831.377 477.405 831.656 477.376 831.924 477.433C832.193 477.49 832.44 477.631 832.633 477.839C832.827 478.046 832.959 478.31 833.012 478.598C833.066 478.886 833.038 479.184 832.934 479.455C832.829 479.726 832.651 479.957 832.423 480.12C832.196 480.283 831.928 480.37 831.654 480.37C831.287 480.37 830.935 480.214 830.675 479.936C830.415 479.658 830.269 479.281 830.269 478.887Z" fill="#90FFFF"/>
<path fill-rule="evenodd" clip-rule="evenodd" d="M714.856 647.533C714.856 647.14 715.002 646.763 715.262 646.485C715.521 646.207 715.874 646.051 716.241 646.051C716.608 646.051 716.961 646.207 717.22 646.485C717.48 646.763 717.626 647.14 717.626 647.533C717.626 647.926 717.48 648.303 717.22 648.581C716.961 648.859 716.608 649.016 716.241 649.016C715.874 649.016 715.521 648.859 715.262 648.581C715.002 648.303 714.856 647.926 714.856 647.533Z" fill="#90FFFF"/>
<path fill-rule="evenodd" clip-rule="evenodd" d="M617.944 245.662C617.944 245.369 618.025 245.082 618.177 244.838C618.329 244.594 618.546 244.404 618.799 244.292C619.052 244.18 619.33 244.15 619.599 244.207C619.868 244.265 620.114 244.406 620.308 244.613C620.502 244.82 620.634 245.085 620.687 245.372C620.741 245.66 620.713 245.958 620.608 246.229C620.504 246.5 620.326 246.731 620.098 246.894C619.871 247.057 619.603 247.144 619.329 247.144C619.147 247.144 618.967 247.106 618.799 247.031C618.631 246.957 618.478 246.848 618.35 246.71C618.221 246.572 618.119 246.409 618.049 246.229C617.98 246.049 617.944 245.856 617.944 245.662Z" fill="#B7FFFF"/>
<path fill-rule="evenodd" clip-rule="evenodd" d="M693.899 240.797C693.899 240.504 693.98 240.217 694.132 239.974C694.285 239.73 694.501 239.54 694.754 239.427C695.007 239.315 695.285 239.286 695.554 239.343C695.823 239.4 696.069 239.541 696.263 239.749C696.457 239.956 696.589 240.22 696.642 240.508C696.696 240.795 696.668 241.093 696.564 241.364C696.459 241.635 696.281 241.867 696.054 242.03C695.826 242.193 695.558 242.28 695.284 242.28C694.917 242.28 694.565 242.124 694.305 241.846C694.045 241.568 693.899 241.19 693.899 240.797Z" fill="#90FFFF"/>
<path fill-rule="evenodd" clip-rule="evenodd" d="M885.042 227.866C885.042 227.573 885.123 227.286 885.275 227.042C885.427 226.799 885.643 226.608 885.896 226.496C886.149 226.384 886.428 226.355 886.697 226.412C886.965 226.469 887.212 226.61 887.406 226.817C887.599 227.025 887.731 227.289 887.785 227.577C887.838 227.864 887.811 228.162 887.706 228.433C887.601 228.704 887.424 228.936 887.196 229.099C886.968 229.262 886.701 229.349 886.427 229.349C886.245 229.349 886.065 229.31 885.897 229.236C885.729 229.161 885.576 229.052 885.447 228.915C885.319 228.777 885.217 228.613 885.147 228.434C885.077 228.254 885.042 228.061 885.042 227.866Z" fill="#90FFFF"/>
<path fill-rule="evenodd" clip-rule="evenodd" d="M508.139 563.935C508.139 563.642 508.221 563.355 508.373 563.111C508.525 562.867 508.741 562.677 508.994 562.565C509.247 562.453 509.526 562.423 509.794 562.481C510.063 562.538 510.31 562.679 510.504 562.886C510.697 563.094 510.829 563.358 510.883 563.646C510.936 563.933 510.909 564.231 510.804 564.502C510.699 564.773 510.521 565.005 510.294 565.168C510.066 565.331 509.798 565.418 509.524 565.417C509.342 565.418 509.162 565.379 508.994 565.305C508.826 565.23 508.673 565.121 508.545 564.983C508.416 564.846 508.314 564.682 508.245 564.502C508.175 564.322 508.139 564.13 508.139 563.935Z" fill="#90FFFF"/>
<path fill-rule="evenodd" clip-rule="evenodd" d="M555.13 478.887C555.13 478.594 555.212 478.307 555.364 478.064C555.516 477.82 555.732 477.63 555.985 477.517C556.238 477.405 556.517 477.376 556.786 477.433C557.054 477.49 557.301 477.631 557.495 477.839C557.688 478.046 557.82 478.31 557.874 478.598C557.927 478.886 557.9 479.184 557.795 479.455C557.69 479.726 557.513 479.957 557.285 480.12C557.057 480.283 556.789 480.37 556.515 480.37C556.148 480.37 555.796 480.214 555.536 479.936C555.276 479.658 555.13 479.281 555.13 478.887Z" fill="#90FFFF"/>
<path fill-rule="evenodd" clip-rule="evenodd" d="M693.742 467.956C693.742 467.663 693.823 467.377 693.975 467.133C694.127 466.889 694.344 466.699 694.597 466.587C694.85 466.474 695.128 466.445 695.397 466.502C695.666 466.559 695.912 466.7 696.106 466.908C696.3 467.115 696.432 467.379 696.485 467.667C696.539 467.955 696.511 468.253 696.406 468.524C696.302 468.794 696.124 469.026 695.896 469.189C695.669 469.352 695.401 469.439 695.127 469.439C694.945 469.439 694.765 469.401 694.597 469.326C694.429 469.252 694.276 469.143 694.148 469.005C694.019 468.867 693.917 468.704 693.847 468.524C693.778 468.344 693.742 468.151 693.742 467.956Z" fill="#90FFFF"/>
<path fill-rule="evenodd" clip-rule="evenodd" d="M653.68 219.783C653.68 219.49 653.762 219.203 653.914 218.959C654.066 218.715 654.282 218.525 654.535 218.413C654.788 218.301 655.067 218.271 655.335 218.328C655.604 218.386 655.851 218.527 656.044 218.734C656.238 218.941 656.37 219.206 656.424 219.493C656.477 219.781 656.45 220.079 656.345 220.35C656.24 220.621 656.063 220.852 655.835 221.015C655.607 221.178 655.339 221.265 655.065 221.265C654.884 221.265 654.704 221.227 654.535 221.153C654.367 221.078 654.215 220.969 654.086 220.831C653.958 220.694 653.856 220.53 653.786 220.35C653.716 220.17 653.68 219.978 653.68 219.783Z" fill="#90FFFF"/>
<path fill-rule="evenodd" clip-rule="evenodd" d="M306.431 226.884C306.431 226.591 306.512 226.304 306.664 226.06C306.817 225.817 307.033 225.627 307.286 225.514C307.539 225.402 307.817 225.373 308.086 225.43C308.355 225.487 308.601 225.628 308.795 225.836C308.989 226.043 309.121 226.307 309.174 226.595C309.228 226.883 309.2 227.181 309.095 227.452C308.99 227.723 308.813 227.954 308.585 228.117C308.357 228.28 308.09 228.367 307.816 228.367C307.448 228.367 307.096 228.211 306.837 227.933C306.577 227.655 306.431 227.278 306.431 226.884Z" fill="#90FFFF"/>
<path fill-rule="evenodd" clip-rule="evenodd" d="M112.903 414.073C112.903 413.78 112.984 413.493 113.136 413.25C113.289 413.006 113.505 412.816 113.758 412.703C114.011 412.591 114.289 412.562 114.558 412.619C114.827 412.676 115.073 412.817 115.267 413.025C115.461 413.232 115.593 413.496 115.646 413.784C115.7 414.071 115.672 414.37 115.568 414.64C115.463 414.911 115.285 415.143 115.057 415.306C114.83 415.469 114.562 415.556 114.288 415.556C113.921 415.556 113.569 415.4 113.309 415.122C113.049 414.844 112.903 414.467 112.903 414.073Z" fill="#406FBB"/>
<path fill-rule="evenodd" clip-rule="evenodd" d="M227.151 479.522C227.151 479.229 227.232 478.942 227.385 478.698C227.537 478.454 227.753 478.264 228.006 478.152C228.259 478.04 228.538 478.011 228.806 478.068C229.075 478.125 229.322 478.266 229.515 478.474C229.709 478.681 229.841 478.945 229.894 479.233C229.948 479.52 229.92 479.818 229.816 480.089C229.711 480.36 229.533 480.592 229.305 480.755C229.078 480.917 228.81 481.004 228.536 481.004C228.169 481.004 227.817 480.848 227.557 480.57C227.297 480.292 227.151 479.915 227.151 479.522Z" fill="#406FBB"/>
<path fill-rule="evenodd" clip-rule="evenodd" d="M833.457 629.851C833.457 629.657 833.493 629.464 833.562 629.284C833.632 629.104 833.734 628.941 833.862 628.803C833.991 628.665 834.144 628.556 834.312 628.482C834.48 628.407 834.66 628.369 834.842 628.369C835.209 628.369 835.561 628.525 835.821 628.803C836.081 629.081 836.227 629.458 836.227 629.851C836.227 630.245 836.081 630.622 835.821 630.9C835.561 631.178 835.209 631.334 834.842 631.334C834.66 631.334 834.48 631.296 834.312 631.221C834.144 631.147 833.991 631.038 833.862 630.9C833.734 630.762 833.632 630.599 833.562 630.419C833.493 630.239 833.457 630.046 833.457 629.851Z" fill="#406FBB"/>
<path fill-rule="evenodd" clip-rule="evenodd" d="M324.767 372.547C324.767 372.254 324.848 371.967 325 371.724C325.153 371.48 325.369 371.29 325.622 371.177C325.875 371.065 326.153 371.036 326.422 371.093C326.691 371.15 326.938 371.291 327.131 371.499C327.325 371.706 327.457 371.97 327.51 372.258C327.564 372.545 327.537 372.843 327.432 373.114C327.327 373.385 327.149 373.617 326.922 373.78C326.694 373.943 326.426 374.03 326.152 374.03C325.785 374.03 325.433 373.874 325.173 373.596C324.913 373.318 324.767 372.941 324.767 372.547Z" fill="#406FBB"/>
</g>
</svg>