<svg width="1137" height="574" viewBox="0 0 1137 574" fill="none" xmlns="http://www.w3.org/2000/svg">
<mask id="mask0_191_571" style="mask-type:alpha" maskUnits="userSpaceOnUse" x="0" y="0" width="1137" height="574">
<rect width="1137" height="574" fill="#D9D9D9"/>
</mask>
<g mask="url(#mask0_191_571)">
<g clip-path="url(#clip0_191_571)">
<path d="M568.109 1120.24C493.405 1120.24 420.956 1105.61 352.748 1076.77C286.864 1048.9 227.692 1009 176.876 958.184C126.06 907.368 86.1622 848.196 58.2938 782.312C29.4505 714.104 14.8247 641.655 14.8247 566.951C14.8247 492.246 29.4505 419.797 58.2938 351.589C86.1622 285.705 126.06 226.533 176.876 175.717C227.692 124.901 286.864 85.0033 352.748 57.135C420.956 28.2916 493.405 13.6658 568.109 13.6658C642.814 13.6658 715.263 28.2916 783.471 57.135C849.355 85.0033 908.527 124.901 959.343 175.717C1010.16 226.533 1050.06 285.705 1077.93 351.589C1106.77 419.797 1121.39 492.257 1121.39 566.951C1121.39 641.644 1106.77 714.104 1077.93 782.312C1050.06 848.196 1010.16 907.368 959.343 958.184C908.527 1009 849.355 1048.9 783.471 1076.77C715.263 1105.61 642.803 1120.24 568.109 1120.24Z" fill="#171614"/>
<path d="M568.109 27.2712C640.978 27.2712 711.646 41.5342 778.165 69.6746C842.428 96.8513 900.148 135.774 949.717 185.343C999.286 234.912 1038.21 292.633 1065.39 356.895C1093.53 423.414 1107.79 494.083 1107.79 566.951C1107.79 639.819 1093.53 710.487 1065.39 777.006C1038.21 841.269 999.286 898.99 949.717 948.559C900.148 998.127 842.428 1037.05 778.165 1064.23C711.646 1092.37 640.978 1106.63 568.109 1106.63C495.241 1106.63 424.573 1092.37 358.054 1064.23C293.791 1037.05 236.071 998.127 186.502 948.559C136.933 898.99 98.0101 841.269 70.8334 777.006C42.6929 710.487 28.43 639.819 28.43 566.951C28.43 494.083 42.6929 423.414 70.8334 356.895C98.0101 292.633 136.933 234.912 186.502 185.343C236.071 135.774 293.791 96.8513 358.054 69.6746C424.573 41.5342 495.241 27.2712 568.109 27.2712ZM568.109 0.0604858C255.027 0.0604858 1.21924 253.869 1.21924 566.951C1.21924 880.033 255.027 1133.84 568.109 1133.84C881.192 1133.84 1135 880.033 1135 566.951C1135 253.869 881.192 0.0604858 568.109 0.0604858Z" fill="url(#paint0_linear_191_571)"/>
<mask id="mask1_191_571" style="mask-type:luminance" maskUnits="userSpaceOnUse" x="221" y="86" width="694" height="932">
<path d="M780.149 742.755C780.149 742.755 757.45 800.101 756.759 815.283C756.078 830.453 633.948 922.912 633.948 922.912C633.948 922.912 625.898 842.04 607.735 784.92C600.127 761.02 558.744 746.972 542.179 779.398C525.626 811.825 567.338 959.704 567.338 959.704C567.338 959.704 584.141 1012.24 608.426 1017.45C632.712 1022.65 746.974 901.269 771.26 855.305C795.545 809.33 797.575 738.594 785.443 740.317C785.443 740.317 785.058 740.226 784.48 740.226C783.301 740.226 781.362 740.589 780.149 742.755ZM814.536 748.095C815.829 757.777 817.643 827.21 798.913 851.11C798.913 851.11 826.157 988.411 874.615 960.633C923.062 932.856 844.627 860.022 826.532 827.074C826.532 827.074 830.625 759.047 820.999 735.827C819.672 732.63 818.493 731.338 817.518 731.338C814.842 731.315 813.584 740.997 814.536 748.095ZM621 478.357C571.964 521.101 567.293 582.79 567.655 611.712C568.29 661.701 562.565 714.886 579.141 721.394C589.56 725.476 595.138 721.7 610.989 703.753C625.909 686.859 655.433 671.089 663.585 663.685C698.55 631.882 763.335 535.341 763.335 535.341C763.335 535.341 774.741 545.692 776.963 550.227C782.303 561.1 783.618 636.168 754.389 670.215C742.054 684.58 737.53 688.651 730.761 690.317C725.126 691.712 706.464 685.907 706.464 685.907C706.464 685.907 711.067 734.376 696.408 754.739C679.344 778.435 627.576 738.832 627.576 738.832C646.771 779.353 659.129 853.74 659.129 853.74C659.129 853.74 704.14 822.664 725.319 798.582C745.886 775.215 746.373 762.925 750.557 751.621C751.26 749.739 752.054 746.87 753.029 743.458L711.441 691.281L766.294 711.78C770.659 699.886 778.301 697.608 788.164 697.449C796.6 697.313 801.203 700.068 804.173 702.823C808.176 706.53 809.207 710.249 812.586 706.871C843.187 676.27 825.16 649.841 821.452 622.279C821.452 622.279 807.688 578.266 805.387 563.119C797.325 510.069 760.795 455.341 707.519 449.083C700.07 448.21 693.437 447.79 687.473 447.79C655.637 447.779 642.36 459.729 621 478.357ZM795.364 181.828C796.09 270.025 744.196 422.632 744.196 422.632C744.196 422.632 790.659 425.546 819.423 485.84C833.346 515.012 838.867 532.62 843.232 563.164C846.407 585.363 857.869 636.349 857.869 636.349C857.869 636.349 872.234 606.202 877.495 597.336C915.159 533.788 913.436 523.754 914.638 515.488C916.078 505.557 908.561 504.083 902.574 512.121C885.749 534.695 865.874 529.717 865.874 529.717C896.599 504.026 903.232 467.632 902.722 439.196C902.529 428.924 889.252 424.911 883.368 433.335C868.436 454.706 845.942 465.715 845.942 465.715C845.942 465.715 841.747 470.965 869.037 406.952C883.221 373.653 878.674 343.199 871.044 321.635C867.54 311.759 853.345 312.202 850.692 322.349C839.808 363.981 809.219 398.562 809.219 398.562C809.219 398.562 826.792 360.183 834.139 267.848C836.974 232.236 822.393 194.663 815.987 177.962C814.185 173.268 810.171 171.137 806.158 171.137C800.727 171.159 795.307 175.06 795.364 181.828ZM458.54 90.3888C427.566 129.255 371.239 225.49 426.557 364.458C426.557 364.458 380.185 319.764 349.119 237.259C345.979 228.914 334.029 229.141 331.285 237.622C319.335 274.492 307.271 350.387 365.434 436.691L297.804 340.501C293.36 334.186 283.632 335.535 281.115 342.825C270.004 374.9 255.889 449.344 326.387 521.6L248.78 443.085C243.757 438.006 235.186 440.115 233.009 446.917C225.583 470.092 220.549 520.103 282.011 577.382C292.283 586.962 320.333 618.47 320.333 618.47L236.977 569.831C231.297 566.509 224.018 569.831 222.884 576.304C218.576 600.839 218.927 655.601 293.428 694.444L306.818 701.927L254.528 688.753C248.995 687.347 243.36 691.134 242.816 696.825C241.149 713.957 249.369 749.104 331.546 777.358L282.941 770.442C277.963 769.739 273.258 773.015 272.317 777.97C269.494 792.766 273.043 823.956 339.085 850.18L388.892 868.264L350.627 866.598C343.11 866.269 338.19 874.432 342.056 880.872C350.4 894.795 369.074 914.375 409.482 920.94C429.844 924.25 527.86 943.593 523.03 927.504C503.642 862.89 496.409 836.269 495.49 770.736C494.742 717.562 516 704.512 516 704.512C516 704.512 498.2 467.484 600.989 435.149C600.989 435.149 475.434 292.111 475.388 96.3978C475.388 90.5702 470.661 86.8174 465.808 86.8174C463.178 86.8174 460.502 87.9172 458.54 90.3888Z" fill="white"/>
</mask>
<g mask="url(#mask1_191_571)">
<path d="M923.062 86.8174H218.565V1022.65H923.062V86.8174Z" fill="url(#paint1_linear_191_571)"/>
</g>
<mask id="mask2_191_571" style="mask-type:luminance" maskUnits="userSpaceOnUse" x="221" y="86" width="694" height="932">
<path d="M780.149 742.755C780.149 742.755 757.45 800.101 756.759 815.283C756.078 830.453 633.948 922.912 633.948 922.912C633.948 922.912 625.898 842.04 607.735 784.92C600.127 761.02 558.744 746.972 542.179 779.398C525.626 811.825 567.338 959.704 567.338 959.704C567.338 959.704 584.141 1012.24 608.426 1017.45C632.712 1022.65 746.974 901.269 771.26 855.305C795.545 809.33 797.575 738.594 785.443 740.317C785.443 740.317 785.058 740.226 784.48 740.226C783.301 740.226 781.362 740.589 780.149 742.755ZM814.536 748.095C815.829 757.777 817.643 827.21 798.913 851.11C798.913 851.11 826.157 988.411 874.615 960.633C923.062 932.856 844.627 860.022 826.532 827.074C826.532 827.074 830.625 759.047 820.999 735.827C819.672 732.63 818.493 731.338 817.518 731.338C814.842 731.315 813.584 740.997 814.536 748.095ZM621 478.357C571.964 521.101 567.293 582.79 567.655 611.712C568.29 661.701 562.565 714.886 579.141 721.394C589.56 725.476 595.138 721.7 610.989 703.753C625.909 686.859 655.433 671.089 663.585 663.685C698.55 631.882 763.335 535.341 763.335 535.341C763.335 535.341 774.741 545.692 776.963 550.227C782.303 561.1 783.618 636.168 754.389 670.215C742.054 684.58 737.53 688.651 730.761 690.317C725.126 691.712 706.464 685.907 706.464 685.907C706.464 685.907 711.067 734.376 696.408 754.739C679.344 778.435 627.576 738.832 627.576 738.832C646.771 779.353 659.129 853.74 659.129 853.74C659.129 853.74 704.14 822.664 725.319 798.582C745.886 775.215 746.373 762.925 750.557 751.621C751.26 749.739 752.054 746.87 753.029 743.458L711.441 691.281L766.294 711.78C770.659 699.886 778.301 697.608 788.164 697.449C796.6 697.313 801.203 700.068 804.173 702.823C808.176 706.53 809.207 710.249 812.586 706.871C843.187 676.27 825.16 649.841 821.452 622.279C821.452 622.279 807.688 578.266 805.387 563.119C797.325 510.069 760.795 455.341 707.519 449.083C700.07 448.21 693.437 447.79 687.473 447.79C655.637 447.779 642.36 459.729 621 478.357ZM795.364 181.828C796.09 270.025 744.196 422.632 744.196 422.632C744.196 422.632 790.659 425.546 819.423 485.84C833.346 515.012 838.867 532.62 843.232 563.164C846.407 585.363 857.869 636.349 857.869 636.349C857.869 636.349 872.234 606.202 877.495 597.336C915.159 533.788 913.436 523.754 914.638 515.488C916.078 505.557 908.561 504.083 902.574 512.121C885.749 534.695 865.874 529.717 865.874 529.717C896.599 504.026 903.232 467.632 902.722 439.196C902.529 428.924 889.252 424.911 883.368 433.335C868.436 454.706 845.942 465.715 845.942 465.715C845.942 465.715 841.747 470.965 869.037 406.952C883.221 373.653 878.674 343.199 871.044 321.635C867.54 311.759 853.345 312.202 850.692 322.349C839.808 363.981 809.219 398.562 809.219 398.562C809.219 398.562 826.792 360.183 834.139 267.848C836.974 232.236 822.393 194.663 815.987 177.962C814.185 173.268 810.171 171.137 806.158 171.137C800.727 171.159 795.307 175.06 795.364 181.828ZM458.54 90.3888C427.566 129.255 371.239 225.49 426.557 364.458C426.557 364.458 380.185 319.764 349.119 237.259C345.979 228.914 334.029 229.141 331.285 237.622C319.335 274.492 307.271 350.387 365.434 436.691L297.804 340.501C293.36 334.186 283.632 335.535 281.115 342.825C270.004 374.9 255.889 449.344 326.387 521.6L248.78 443.085C243.757 438.006 235.186 440.115 233.009 446.917C225.583 470.092 220.549 520.103 282.011 577.382C292.283 586.962 320.333 618.47 320.333 618.47L236.977 569.831C231.297 566.509 224.018 569.831 222.884 576.304C218.576 600.839 218.927 655.601 293.428 694.444L306.818 701.927L254.528 688.753C248.995 687.347 243.36 691.134 242.816 696.825C241.149 713.957 249.369 749.104 331.546 777.358L282.941 770.442C277.963 769.739 273.258 773.015 272.317 777.97C269.494 792.766 273.043 823.956 339.085 850.18L388.892 868.264L350.627 866.598C343.11 866.269 338.19 874.432 342.056 880.872C350.4 894.795 369.074 914.375 409.482 920.94C429.844 924.25 527.86 943.593 523.03 927.504C503.642 862.89 496.409 836.269 495.49 770.736C494.742 717.562 516 704.512 516 704.512C516 704.512 498.2 467.484 600.989 435.149C600.989 435.149 475.434 292.111 475.388 96.3978C475.388 90.5702 470.661 86.8174 465.808 86.8174C463.178 86.8174 460.502 87.9172 458.54 90.3888Z" fill="white"/>
</mask>
<g mask="url(#mask2_191_571)">
<path d="M340.242 229.617C340.242 229.617 340.695 479.91 534.889 531.429C534.889 531.429 379.085 515.749 334.697 376.249C290.299 236.749 340.242 229.617 340.242 229.617Z" fill="#B7792A"/>
</g>
<mask id="mask3_191_571" style="mask-type:luminance" maskUnits="userSpaceOnUse" x="221" y="86" width="694" height="932">
<path d="M780.149 742.755C780.149 742.755 757.45 800.101 756.759 815.283C756.078 830.453 633.948 922.912 633.948 922.912C633.948 922.912 625.898 842.04 607.735 784.92C600.127 761.02 558.744 746.972 542.179 779.398C525.626 811.825 567.338 959.704 567.338 959.704C567.338 959.704 584.141 1012.24 608.426 1017.45C632.712 1022.65 746.974 901.269 771.26 855.305C795.545 809.33 797.575 738.594 785.443 740.317C785.443 740.317 785.058 740.226 784.48 740.226C783.301 740.226 781.362 740.589 780.149 742.755ZM814.536 748.095C815.829 757.777 817.643 827.21 798.913 851.11C798.913 851.11 826.157 988.411 874.615 960.633C923.062 932.856 844.627 860.022 826.532 827.074C826.532 827.074 830.625 759.047 820.999 735.827C819.672 732.63 818.493 731.338 817.518 731.338C814.842 731.315 813.584 740.997 814.536 748.095ZM621 478.357C571.964 521.101 567.293 582.79 567.655 611.712C568.29 661.701 562.565 714.886 579.141 721.394C589.56 725.476 595.138 721.7 610.989 703.753C625.909 686.859 655.433 671.089 663.585 663.685C698.55 631.882 763.335 535.341 763.335 535.341C763.335 535.341 774.741 545.692 776.963 550.227C782.303 561.1 783.618 636.168 754.389 670.215C742.054 684.58 737.53 688.651 730.761 690.317C725.126 691.712 706.464 685.907 706.464 685.907C706.464 685.907 711.067 734.376 696.408 754.739C679.344 778.435 627.576 738.832 627.576 738.832C646.771 779.353 659.129 853.74 659.129 853.74C659.129 853.74 704.14 822.664 725.319 798.582C745.886 775.215 746.373 762.925 750.557 751.621C751.26 749.739 752.054 746.87 753.029 743.458L711.441 691.281L766.294 711.78C770.659 699.886 778.301 697.608 788.164 697.449C796.6 697.313 801.203 700.068 804.173 702.823C808.176 706.53 809.207 710.249 812.586 706.871C843.187 676.27 825.16 649.841 821.452 622.279C821.452 622.279 807.688 578.266 805.387 563.119C797.325 510.069 760.795 455.341 707.519 449.083C700.07 448.21 693.437 447.79 687.473 447.79C655.637 447.779 642.36 459.729 621 478.357ZM795.364 181.828C796.09 270.025 744.196 422.632 744.196 422.632C744.196 422.632 790.659 425.546 819.423 485.84C833.346 515.012 838.867 532.62 843.232 563.164C846.407 585.363 857.869 636.349 857.869 636.349C857.869 636.349 872.234 606.202 877.495 597.336C915.159 533.788 913.436 523.754 914.638 515.488C916.078 505.557 908.561 504.083 902.574 512.121C885.749 534.695 865.874 529.717 865.874 529.717C896.599 504.026 903.232 467.632 902.722 439.196C902.529 428.924 889.252 424.911 883.368 433.335C868.436 454.706 845.942 465.715 845.942 465.715C845.942 465.715 841.747 470.965 869.037 406.952C883.221 373.653 878.674 343.199 871.044 321.635C867.54 311.759 853.345 312.202 850.692 322.349C839.808 363.981 809.219 398.562 809.219 398.562C809.219 398.562 826.792 360.183 834.139 267.848C836.974 232.236 822.393 194.663 815.987 177.962C814.185 173.268 810.171 171.137 806.158 171.137C800.727 171.159 795.307 175.06 795.364 181.828ZM458.54 90.3888C427.566 129.255 371.239 225.49 426.557 364.458C426.557 364.458 380.185 319.764 349.119 237.259C345.979 228.914 334.029 229.141 331.285 237.622C319.335 274.492 307.271 350.387 365.434 436.691L297.804 340.501C293.36 334.186 283.632 335.535 281.115 342.825C270.004 374.9 255.889 449.344 326.387 521.6L248.78 443.085C243.757 438.006 235.186 440.115 233.009 446.917C225.583 470.092 220.549 520.103 282.011 577.382C292.283 586.962 320.333 618.47 320.333 618.47L236.977 569.831C231.297 566.509 224.018 569.831 222.884 576.304C218.576 600.839 218.927 655.601 293.428 694.444L306.818 701.927L254.528 688.753C248.995 687.347 243.36 691.134 242.816 696.825C241.149 713.957 249.369 749.104 331.546 777.358L282.941 770.442C277.963 769.739 273.258 773.015 272.317 777.97C269.494 792.766 273.043 823.956 339.085 850.18L388.892 868.264L350.627 866.598C343.11 866.269 338.19 874.432 342.056 880.872C350.4 894.795 369.074 914.375 409.482 920.94C429.844 924.25 527.86 943.593 523.03 927.504C503.642 862.89 496.409 836.269 495.49 770.736C494.742 717.562 516 704.512 516 704.512C516 704.512 498.2 467.484 600.989 435.149C600.989 435.149 475.434 292.111 475.388 96.3978C475.388 90.5702 470.661 86.8174 465.808 86.8174C463.178 86.8174 460.502 87.9172 458.54 90.3888Z" fill="white"/>
</mask>
<g mask="url(#mask3_191_571)">
<path d="M340.242 229.617C340.242 229.617 340.695 479.91 534.889 531.429C534.889 531.429 379.085 515.749 334.697 376.249C290.299 236.749 340.242 229.617 340.242 229.617Z" fill="#B7792A"/>
</g>
<mask id="mask4_191_571" style="mask-type:luminance" maskUnits="userSpaceOnUse" x="221" y="86" width="694" height="932">
<path d="M780.149 742.755C780.149 742.755 757.45 800.101 756.759 815.283C756.078 830.453 633.948 922.912 633.948 922.912C633.948 922.912 625.898 842.04 607.735 784.92C600.127 761.02 558.744 746.972 542.179 779.398C525.626 811.825 567.338 959.704 567.338 959.704C567.338 959.704 584.141 1012.24 608.426 1017.45C632.712 1022.65 746.974 901.269 771.26 855.305C795.545 809.33 797.575 738.594 785.443 740.317C785.443 740.317 785.058 740.226 784.48 740.226C783.301 740.226 781.362 740.589 780.149 742.755ZM814.536 748.095C815.829 757.777 817.643 827.21 798.913 851.11C798.913 851.11 826.157 988.411 874.615 960.633C923.062 932.856 844.627 860.022 826.532 827.074C826.532 827.074 830.625 759.047 820.999 735.827C819.672 732.63 818.493 731.338 817.518 731.338C814.842 731.315 813.584 740.997 814.536 748.095ZM621 478.357C571.964 521.101 567.293 582.79 567.655 611.712C568.29 661.701 562.565 714.886 579.141 721.394C589.56 725.476 595.138 721.7 610.989 703.753C625.909 686.859 655.433 671.089 663.585 663.685C698.55 631.882 763.335 535.341 763.335 535.341C763.335 535.341 774.741 545.692 776.963 550.227C782.303 561.1 783.618 636.168 754.389 670.215C742.054 684.58 737.53 688.651 730.761 690.317C725.126 691.712 706.464 685.907 706.464 685.907C706.464 685.907 711.067 734.376 696.408 754.739C679.344 778.435 627.576 738.832 627.576 738.832C646.771 779.353 659.129 853.74 659.129 853.74C659.129 853.74 704.14 822.664 725.319 798.582C745.886 775.215 746.373 762.925 750.557 751.621C751.26 749.739 752.054 746.87 753.029 743.458L711.441 691.281L766.294 711.78C770.659 699.886 778.301 697.608 788.164 697.449C796.6 697.313 801.203 700.068 804.173 702.823C808.176 706.53 809.207 710.249 812.586 706.871C843.187 676.27 825.16 649.841 821.452 622.279C821.452 622.279 807.688 578.266 805.387 563.119C797.325 510.069 760.795 455.341 707.519 449.083C700.07 448.21 693.437 447.79 687.473 447.79C655.637 447.779 642.36 459.729 621 478.357ZM795.364 181.828C796.09 270.025 744.196 422.632 744.196 422.632C744.196 422.632 790.659 425.546 819.423 485.84C833.346 515.012 838.867 532.62 843.232 563.164C846.407 585.363 857.869 636.349 857.869 636.349C857.869 636.349 872.234 606.202 877.495 597.336C915.159 533.788 913.436 523.754 914.638 515.488C916.078 505.557 908.561 504.083 902.574 512.121C885.749 534.695 865.874 529.717 865.874 529.717C896.599 504.026 903.232 467.632 902.722 439.196C902.529 428.924 889.252 424.911 883.368 433.335C868.436 454.706 845.942 465.715 845.942 465.715C845.942 465.715 841.747 470.965 869.037 406.952C883.221 373.653 878.674 343.199 871.044 321.635C867.54 311.759 853.345 312.202 850.692 322.349C839.808 363.981 809.219 398.562 809.219 398.562C809.219 398.562 826.792 360.183 834.139 267.848C836.974 232.236 822.393 194.663 815.987 177.962C814.185 173.268 810.171 171.137 806.158 171.137C800.727 171.159 795.307 175.06 795.364 181.828ZM458.54 90.3888C427.566 129.255 371.239 225.49 426.557 364.458C426.557 364.458 380.185 319.764 349.119 237.259C345.979 228.914 334.029 229.141 331.285 237.622C319.335 274.492 307.271 350.387 365.434 436.691L297.804 340.501C293.36 334.186 283.632 335.535 281.115 342.825C270.004 374.9 255.889 449.344 326.387 521.6L248.78 443.085C243.757 438.006 235.186 440.115 233.009 446.917C225.583 470.092 220.549 520.103 282.011 577.382C292.283 586.962 320.333 618.47 320.333 618.47L236.977 569.831C231.297 566.509 224.018 569.831 222.884 576.304C218.576 600.839 218.927 655.601 293.428 694.444L306.818 701.927L254.528 688.753C248.995 687.347 243.36 691.134 242.816 696.825C241.149 713.957 249.369 749.104 331.546 777.358L282.941 770.442C277.963 769.739 273.258 773.015 272.317 777.97C269.494 792.766 273.043 823.956 339.085 850.18L388.892 868.264L350.627 866.598C343.11 866.269 338.19 874.432 342.056 880.872C350.4 894.795 369.074 914.375 409.482 920.94C429.844 924.25 527.86 943.593 523.03 927.504C503.642 862.89 496.409 836.269 495.49 770.736C494.742 717.562 516 704.512 516 704.512C516 704.512 498.2 467.484 600.989 435.149C600.989 435.149 475.434 292.111 475.388 96.3978C475.388 90.5702 470.661 86.8174 465.808 86.8174C463.178 86.8174 460.502 87.9172 458.54 90.3888Z" fill="white"/>
</mask>
<g mask="url(#mask4_191_571)">
<path d="M272.691 329.424C272.691 329.424 316.194 575.908 516.352 593.254C516.352 593.254 360.174 604.615 292.453 474.831C224.721 345.036 272.691 329.424 272.691 329.424Z" fill="#B7792A"/>
</g>
<mask id="mask5_191_571" style="mask-type:luminance" maskUnits="userSpaceOnUse" x="221" y="86" width="694" height="932">
<path d="M780.149 742.755C780.149 742.755 757.45 800.101 756.759 815.283C756.078 830.453 633.948 922.912 633.948 922.912C633.948 922.912 625.898 842.04 607.735 784.92C600.127 761.02 558.744 746.972 542.179 779.398C525.626 811.825 567.338 959.704 567.338 959.704C567.338 959.704 584.141 1012.24 608.426 1017.45C632.712 1022.65 746.974 901.269 771.26 855.305C795.545 809.33 797.575 738.594 785.443 740.317C785.443 740.317 785.058 740.226 784.48 740.226C783.301 740.226 781.362 740.589 780.149 742.755ZM814.536 748.095C815.829 757.777 817.643 827.21 798.913 851.11C798.913 851.11 826.157 988.411 874.615 960.633C923.062 932.856 844.627 860.022 826.532 827.074C826.532 827.074 830.625 759.047 820.999 735.827C819.672 732.63 818.493 731.338 817.518 731.338C814.842 731.315 813.584 740.997 814.536 748.095ZM621 478.357C571.964 521.101 567.293 582.79 567.655 611.712C568.29 661.701 562.565 714.886 579.141 721.394C589.56 725.476 595.138 721.7 610.989 703.753C625.909 686.859 655.433 671.089 663.585 663.685C698.55 631.882 763.335 535.341 763.335 535.341C763.335 535.341 774.741 545.692 776.963 550.227C782.303 561.1 783.618 636.168 754.389 670.215C742.054 684.58 737.53 688.651 730.761 690.317C725.126 691.712 706.464 685.907 706.464 685.907C706.464 685.907 711.067 734.376 696.408 754.739C679.344 778.435 627.576 738.832 627.576 738.832C646.771 779.353 659.129 853.74 659.129 853.74C659.129 853.74 704.14 822.664 725.319 798.582C745.886 775.215 746.373 762.925 750.557 751.621C751.26 749.739 752.054 746.87 753.029 743.458L711.441 691.281L766.294 711.78C770.659 699.886 778.301 697.608 788.164 697.449C796.6 697.313 801.203 700.068 804.173 702.823C808.176 706.53 809.207 710.249 812.586 706.871C843.187 676.27 825.16 649.841 821.452 622.279C821.452 622.279 807.688 578.266 805.387 563.119C797.325 510.069 760.795 455.341 707.519 449.083C700.07 448.21 693.437 447.79 687.473 447.79C655.637 447.779 642.36 459.729 621 478.357ZM795.364 181.828C796.09 270.025 744.196 422.632 744.196 422.632C744.196 422.632 790.659 425.546 819.423 485.84C833.346 515.012 838.867 532.62 843.232 563.164C846.407 585.363 857.869 636.349 857.869 636.349C857.869 636.349 872.234 606.202 877.495 597.336C915.159 533.788 913.436 523.754 914.638 515.488C916.078 505.557 908.561 504.083 902.574 512.121C885.749 534.695 865.874 529.717 865.874 529.717C896.599 504.026 903.232 467.632 902.722 439.196C902.529 428.924 889.252 424.911 883.368 433.335C868.436 454.706 845.942 465.715 845.942 465.715C845.942 465.715 841.747 470.965 869.037 406.952C883.221 373.653 878.674 343.199 871.044 321.635C867.54 311.759 853.345 312.202 850.692 322.349C839.808 363.981 809.219 398.562 809.219 398.562C809.219 398.562 826.792 360.183 834.139 267.848C836.974 232.236 822.393 194.663 815.987 177.962C814.185 173.268 810.171 171.137 806.158 171.137C800.727 171.159 795.307 175.06 795.364 181.828ZM458.54 90.3888C427.566 129.255 371.239 225.49 426.557 364.458C426.557 364.458 380.185 319.764 349.119 237.259C345.979 228.914 334.029 229.141 331.285 237.622C319.335 274.492 307.271 350.387 365.434 436.691L297.804 340.501C293.36 334.186 283.632 335.535 281.115 342.825C270.004 374.9 255.889 449.344 326.387 521.6L248.78 443.085C243.757 438.006 235.186 440.115 233.009 446.917C225.583 470.092 220.549 520.103 282.011 577.382C292.283 586.962 320.333 618.47 320.333 618.47L236.977 569.831C231.297 566.509 224.018 569.831 222.884 576.304C218.576 600.839 218.927 655.601 293.428 694.444L306.818 701.927L254.528 688.753C248.995 687.347 243.36 691.134 242.816 696.825C241.149 713.957 249.369 749.104 331.546 777.358L282.941 770.442C277.963 769.739 273.258 773.015 272.317 777.97C269.494 792.766 273.043 823.956 339.085 850.18L388.892 868.264L350.627 866.598C343.11 866.269 338.19 874.432 342.056 880.872C350.4 894.795 369.074 914.375 409.482 920.94C429.844 924.25 527.86 943.593 523.03 927.504C503.642 862.89 496.409 836.269 495.49 770.736C494.742 717.562 516 704.512 516 704.512C516 704.512 498.2 467.484 600.989 435.149C600.989 435.149 475.434 292.111 475.388 96.3978C475.388 90.5702 470.661 86.8174 465.808 86.8174C463.178 86.8174 460.502 87.9172 458.54 90.3888Z" fill="white"/>
</mask>
<g mask="url(#mask5_191_571)">
<path d="M229.528 438.958C229.528 438.958 258.576 641.508 528.858 649.853C528.858 649.853 369.55 689.66 274.857 578.016C180.163 466.373 229.528 438.958 229.528 438.958Z" fill="#B7792A"/>
</g>
<mask id="mask6_191_571" style="mask-type:luminance" maskUnits="userSpaceOnUse" x="221" y="86" width="694" height="932">
<path d="M780.149 742.755C780.149 742.755 757.45 800.101 756.759 815.283C756.078 830.453 633.948 922.912 633.948 922.912C633.948 922.912 625.898 842.04 607.735 784.92C600.127 761.02 558.744 746.972 542.179 779.398C525.626 811.825 567.338 959.704 567.338 959.704C567.338 959.704 584.141 1012.24 608.426 1017.45C632.712 1022.65 746.974 901.269 771.26 855.305C795.545 809.33 797.575 738.594 785.443 740.317C785.443 740.317 785.058 740.226 784.48 740.226C783.301 740.226 781.362 740.589 780.149 742.755ZM814.536 748.095C815.829 757.777 817.643 827.21 798.913 851.11C798.913 851.11 826.157 988.411 874.615 960.633C923.062 932.856 844.627 860.022 826.532 827.074C826.532 827.074 830.625 759.047 820.999 735.827C819.672 732.63 818.493 731.338 817.518 731.338C814.842 731.315 813.584 740.997 814.536 748.095ZM621 478.357C571.964 521.101 567.293 582.79 567.655 611.712C568.29 661.701 562.565 714.886 579.141 721.394C589.56 725.476 595.138 721.7 610.989 703.753C625.909 686.859 655.433 671.089 663.585 663.685C698.55 631.882 763.335 535.341 763.335 535.341C763.335 535.341 774.741 545.692 776.963 550.227C782.303 561.1 783.618 636.168 754.389 670.215C742.054 684.58 737.53 688.651 730.761 690.317C725.126 691.712 706.464 685.907 706.464 685.907C706.464 685.907 711.067 734.376 696.408 754.739C679.344 778.435 627.576 738.832 627.576 738.832C646.771 779.353 659.129 853.74 659.129 853.74C659.129 853.74 704.14 822.664 725.319 798.582C745.886 775.215 746.373 762.925 750.557 751.621C751.26 749.739 752.054 746.87 753.029 743.458L711.441 691.281L766.294 711.78C770.659 699.886 778.301 697.608 788.164 697.449C796.6 697.313 801.203 700.068 804.173 702.823C808.176 706.53 809.207 710.249 812.586 706.871C843.187 676.27 825.16 649.841 821.452 622.279C821.452 622.279 807.688 578.266 805.387 563.119C797.325 510.069 760.795 455.341 707.519 449.083C700.07 448.21 693.437 447.79 687.473 447.79C655.637 447.779 642.36 459.729 621 478.357ZM795.364 181.828C796.09 270.025 744.196 422.632 744.196 422.632C744.196 422.632 790.659 425.546 819.423 485.84C833.346 515.012 838.867 532.62 843.232 563.164C846.407 585.363 857.869 636.349 857.869 636.349C857.869 636.349 872.234 606.202 877.495 597.336C915.159 533.788 913.436 523.754 914.638 515.488C916.078 505.557 908.561 504.083 902.574 512.121C885.749 534.695 865.874 529.717 865.874 529.717C896.599 504.026 903.232 467.632 902.722 439.196C902.529 428.924 889.252 424.911 883.368 433.335C868.436 454.706 845.942 465.715 845.942 465.715C845.942 465.715 841.747 470.965 869.037 406.952C883.221 373.653 878.674 343.199 871.044 321.635C867.54 311.759 853.345 312.202 850.692 322.349C839.808 363.981 809.219 398.562 809.219 398.562C809.219 398.562 826.792 360.183 834.139 267.848C836.974 232.236 822.393 194.663 815.987 177.962C814.185 173.268 810.171 171.137 806.158 171.137C800.727 171.159 795.307 175.06 795.364 181.828ZM458.54 90.3888C427.566 129.255 371.239 225.49 426.557 364.458C426.557 364.458 380.185 319.764 349.119 237.259C345.979 228.914 334.029 229.141 331.285 237.622C319.335 274.492 307.271 350.387 365.434 436.691L297.804 340.501C293.36 334.186 283.632 335.535 281.115 342.825C270.004 374.9 255.889 449.344 326.387 521.6L248.78 443.085C243.757 438.006 235.186 440.115 233.009 446.917C225.583 470.092 220.549 520.103 282.011 577.382C292.283 586.962 320.333 618.47 320.333 618.47L236.977 569.831C231.297 566.509 224.018 569.831 222.884 576.304C218.576 600.839 218.927 655.601 293.428 694.444L306.818 701.927L254.528 688.753C248.995 687.347 243.36 691.134 242.816 696.825C241.149 713.957 249.369 749.104 331.546 777.358L282.941 770.442C277.963 769.739 273.258 773.015 272.317 777.97C269.494 792.766 273.043 823.956 339.085 850.18L388.892 868.264L350.627 866.598C343.11 866.269 338.19 874.432 342.056 880.872C350.4 894.795 369.074 914.375 409.482 920.94C429.844 924.25 527.86 943.593 523.03 927.504C503.642 862.89 496.409 836.269 495.49 770.736C494.742 717.562 516 704.512 516 704.512C516 704.512 498.2 467.484 600.989 435.149C600.989 435.149 475.434 292.111 475.388 96.3978C475.388 90.5702 470.661 86.8174 465.808 86.8174C463.178 86.8174 460.502 87.9172 458.54 90.3888Z" fill="white"/>
</mask>
<g mask="url(#mask6_191_571)">
<path d="M464.663 86.0351C464.663 86.0351 390.298 363.335 546.941 489.139C546.941 489.139 387.237 414.899 400.162 217.826C409.731 71.7608 464.663 86.0351 464.663 86.0351Z" fill="#B7792A"/>
</g>
<mask id="mask7_191_571" style="mask-type:luminance" maskUnits="userSpaceOnUse" x="221" y="86" width="694" height="932">
<path d="M780.149 742.755C780.149 742.755 757.45 800.101 756.759 815.283C756.078 830.453 633.948 922.912 633.948 922.912C633.948 922.912 625.898 842.04 607.735 784.92C600.127 761.02 558.744 746.972 542.179 779.398C525.626 811.825 567.338 959.704 567.338 959.704C567.338 959.704 584.141 1012.24 608.426 1017.45C632.712 1022.65 746.974 901.269 771.26 855.305C795.545 809.33 797.575 738.594 785.443 740.317C785.443 740.317 785.058 740.226 784.48 740.226C783.301 740.226 781.362 740.589 780.149 742.755ZM814.536 748.095C815.829 757.777 817.643 827.21 798.913 851.11C798.913 851.11 826.157 988.411 874.615 960.633C923.062 932.856 844.627 860.022 826.532 827.074C826.532 827.074 830.625 759.047 820.999 735.827C819.672 732.63 818.493 731.338 817.518 731.338C814.842 731.315 813.584 740.997 814.536 748.095ZM621 478.357C571.964 521.101 567.293 582.79 567.655 611.712C568.29 661.701 562.565 714.886 579.141 721.394C589.56 725.476 595.138 721.7 610.989 703.753C625.909 686.859 655.433 671.089 663.585 663.685C698.55 631.882 763.335 535.341 763.335 535.341C763.335 535.341 774.741 545.692 776.963 550.227C782.303 561.1 783.618 636.168 754.389 670.215C742.054 684.58 737.53 688.651 730.761 690.317C725.126 691.712 706.464 685.907 706.464 685.907C706.464 685.907 711.067 734.376 696.408 754.739C679.344 778.435 627.576 738.832 627.576 738.832C646.771 779.353 659.129 853.74 659.129 853.74C659.129 853.74 704.14 822.664 725.319 798.582C745.886 775.215 746.373 762.925 750.557 751.621C751.26 749.739 752.054 746.87 753.029 743.458L711.441 691.281L766.294 711.78C770.659 699.886 778.301 697.608 788.164 697.449C796.6 697.313 801.203 700.068 804.173 702.823C808.176 706.53 809.207 710.249 812.586 706.871C843.187 676.27 825.16 649.841 821.452 622.279C821.452 622.279 807.688 578.266 805.387 563.119C797.325 510.069 760.795 455.341 707.519 449.083C700.07 448.21 693.437 447.79 687.473 447.79C655.637 447.779 642.36 459.729 621 478.357ZM795.364 181.828C796.09 270.025 744.196 422.632 744.196 422.632C744.196 422.632 790.659 425.546 819.423 485.84C833.346 515.012 838.867 532.62 843.232 563.164C846.407 585.363 857.869 636.349 857.869 636.349C857.869 636.349 872.234 606.202 877.495 597.336C915.159 533.788 913.436 523.754 914.638 515.488C916.078 505.557 908.561 504.083 902.574 512.121C885.749 534.695 865.874 529.717 865.874 529.717C896.599 504.026 903.232 467.632 902.722 439.196C902.529 428.924 889.252 424.911 883.368 433.335C868.436 454.706 845.942 465.715 845.942 465.715C845.942 465.715 841.747 470.965 869.037 406.952C883.221 373.653 878.674 343.199 871.044 321.635C867.54 311.759 853.345 312.202 850.692 322.349C839.808 363.981 809.219 398.562 809.219 398.562C809.219 398.562 826.792 360.183 834.139 267.848C836.974 232.236 822.393 194.663 815.987 177.962C814.185 173.268 810.171 171.137 806.158 171.137C800.727 171.159 795.307 175.06 795.364 181.828ZM458.54 90.3888C427.566 129.255 371.239 225.49 426.557 364.458C426.557 364.458 380.185 319.764 349.119 237.259C345.979 228.914 334.029 229.141 331.285 237.622C319.335 274.492 307.271 350.387 365.434 436.691L297.804 340.501C293.36 334.186 283.632 335.535 281.115 342.825C270.004 374.9 255.889 449.344 326.387 521.6L248.78 443.085C243.757 438.006 235.186 440.115 233.009 446.917C225.583 470.092 220.549 520.103 282.011 577.382C292.283 586.962 320.333 618.47 320.333 618.47L236.977 569.831C231.297 566.509 224.018 569.831 222.884 576.304C218.576 600.839 218.927 655.601 293.428 694.444L306.818 701.927L254.528 688.753C248.995 687.347 243.36 691.134 242.816 696.825C241.149 713.957 249.369 749.104 331.546 777.358L282.941 770.442C277.963 769.739 273.258 773.015 272.317 777.97C269.494 792.766 273.043 823.956 339.085 850.18L388.892 868.264L350.627 866.598C343.11 866.269 338.19 874.432 342.056 880.872C350.4 894.795 369.074 914.375 409.482 920.94C429.844 924.25 527.86 943.593 523.03 927.504C503.642 862.89 496.409 836.269 495.49 770.736C494.742 717.562 516 704.512 516 704.512C516 704.512 498.2 467.484 600.989 435.149C600.989 435.149 475.434 292.111 475.388 96.3978C475.388 90.5702 470.661 86.8174 465.808 86.8174C463.178 86.8174 460.502 87.9172 458.54 90.3888Z" fill="white"/>
</mask>
<g mask="url(#mask7_191_571)">
<path d="M168.451 521.112C168.451 521.112 219.007 719.388 488.642 698.741C488.642 698.741 334.516 755.374 228.406 654.513C122.307 553.663 168.451 521.112 168.451 521.112Z" fill="#B97D2B"/>
</g>
<mask id="mask8_191_571" style="mask-type:luminance" maskUnits="userSpaceOnUse" x="221" y="86" width="694" height="932">
<path d="M780.149 742.755C780.149 742.755 757.45 800.101 756.759 815.283C756.078 830.453 633.948 922.912 633.948 922.912C633.948 922.912 625.898 842.04 607.735 784.92C600.127 761.02 558.744 746.972 542.179 779.398C525.626 811.825 567.338 959.704 567.338 959.704C567.338 959.704 584.141 1012.24 608.426 1017.45C632.712 1022.65 746.974 901.269 771.26 855.305C795.545 809.33 797.575 738.594 785.443 740.317C785.443 740.317 785.058 740.226 784.48 740.226C783.301 740.226 781.362 740.589 780.149 742.755ZM814.536 748.095C815.829 757.777 817.643 827.21 798.913 851.11C798.913 851.11 826.157 988.411 874.615 960.633C923.062 932.856 844.627 860.022 826.532 827.074C826.532 827.074 830.625 759.047 820.999 735.827C819.672 732.63 818.493 731.338 817.518 731.338C814.842 731.315 813.584 740.997 814.536 748.095ZM621 478.357C571.964 521.101 567.293 582.79 567.655 611.712C568.29 661.701 562.565 714.886 579.141 721.394C589.56 725.476 595.138 721.7 610.989 703.753C625.909 686.859 655.433 671.089 663.585 663.685C698.55 631.882 763.335 535.341 763.335 535.341C763.335 535.341 774.741 545.692 776.963 550.227C782.303 561.1 783.618 636.168 754.389 670.215C742.054 684.58 737.53 688.651 730.761 690.317C725.126 691.712 706.464 685.907 706.464 685.907C706.464 685.907 711.067 734.376 696.408 754.739C679.344 778.435 627.576 738.832 627.576 738.832C646.771 779.353 659.129 853.74 659.129 853.74C659.129 853.74 704.14 822.664 725.319 798.582C745.886 775.215 746.373 762.925 750.557 751.621C751.26 749.739 752.054 746.87 753.029 743.458L711.441 691.281L766.294 711.78C770.659 699.886 778.301 697.608 788.164 697.449C796.6 697.313 801.203 700.068 804.173 702.823C808.176 706.53 809.207 710.249 812.586 706.871C843.187 676.27 825.16 649.841 821.452 622.279C821.452 622.279 807.688 578.266 805.387 563.119C797.325 510.069 760.795 455.341 707.519 449.083C700.07 448.21 693.437 447.79 687.473 447.79C655.637 447.779 642.36 459.729 621 478.357ZM795.364 181.828C796.09 270.025 744.196 422.632 744.196 422.632C744.196 422.632 790.659 425.546 819.423 485.84C833.346 515.012 838.867 532.62 843.232 563.164C846.407 585.363 857.869 636.349 857.869 636.349C857.869 636.349 872.234 606.202 877.495 597.336C915.159 533.788 913.436 523.754 914.638 515.488C916.078 505.557 908.561 504.083 902.574 512.121C885.749 534.695 865.874 529.717 865.874 529.717C896.599 504.026 903.232 467.632 902.722 439.196C902.529 428.924 889.252 424.911 883.368 433.335C868.436 454.706 845.942 465.715 845.942 465.715C845.942 465.715 841.747 470.965 869.037 406.952C883.221 373.653 878.674 343.199 871.044 321.635C867.54 311.759 853.345 312.202 850.692 322.349C839.808 363.981 809.219 398.562 809.219 398.562C809.219 398.562 826.792 360.183 834.139 267.848C836.974 232.236 822.393 194.663 815.987 177.962C814.185 173.268 810.171 171.137 806.158 171.137C800.727 171.159 795.307 175.06 795.364 181.828ZM458.54 90.3888C427.566 129.255 371.239 225.49 426.557 364.458C426.557 364.458 380.185 319.764 349.119 237.259C345.979 228.914 334.029 229.141 331.285 237.622C319.335 274.492 307.271 350.387 365.434 436.691L297.804 340.501C293.36 334.186 283.632 335.535 281.115 342.825C270.004 374.9 255.889 449.344 326.387 521.6L248.78 443.085C243.757 438.006 235.186 440.115 233.009 446.917C225.583 470.092 220.549 520.103 282.011 577.382C292.283 586.962 320.333 618.47 320.333 618.47L236.977 569.831C231.297 566.509 224.018 569.831 222.884 576.304C218.576 600.839 218.927 655.601 293.428 694.444L306.818 701.927L254.528 688.753C248.995 687.347 243.36 691.134 242.816 696.825C241.149 713.957 249.369 749.104 331.546 777.358L282.941 770.442C277.963 769.739 273.258 773.015 272.317 777.97C269.494 792.766 273.043 823.956 339.085 850.18L388.892 868.264L350.627 866.598C343.11 866.269 338.19 874.432 342.056 880.872C350.4 894.795 369.074 914.375 409.482 920.94C429.844 924.25 527.86 943.593 523.03 927.504C503.642 862.89 496.409 836.269 495.49 770.736C494.742 717.562 516 704.512 516 704.512C516 704.512 498.2 467.484 600.989 435.149C600.989 435.149 475.434 292.111 475.388 96.3978C475.388 90.5702 470.661 86.8174 465.808 86.8174C463.178 86.8174 460.502 87.9172 458.54 90.3888Z" fill="white"/>
</mask>
<g mask="url(#mask8_191_571)">
<path d="M647.984 708.571C647.984 708.571 592.735 637.381 696.578 529.786C750.501 473.913 715.648 423.063 648.767 451.849C581.885 480.636 516.364 629.581 546.84 699.841C577.316 770.102 647.984 708.571 647.984 708.571Z" fill="#9E6227"/>
</g>
<mask id="mask9_191_571" style="mask-type:luminance" maskUnits="userSpaceOnUse" x="221" y="86" width="694" height="932">
<path d="M780.149 742.755C780.149 742.755 757.45 800.101 756.759 815.283C756.078 830.453 633.948 922.912 633.948 922.912C633.948 922.912 625.898 842.04 607.735 784.92C600.127 761.02 558.744 746.972 542.179 779.398C525.626 811.825 567.338 959.704 567.338 959.704C567.338 959.704 584.141 1012.24 608.426 1017.45C632.712 1022.65 746.974 901.269 771.26 855.305C795.545 809.33 797.575 738.594 785.443 740.317C785.443 740.317 785.058 740.226 784.48 740.226C783.301 740.226 781.362 740.589 780.149 742.755ZM814.536 748.095C815.829 757.777 817.643 827.21 798.913 851.11C798.913 851.11 826.157 988.411 874.615 960.633C923.062 932.856 844.627 860.022 826.532 827.074C826.532 827.074 830.625 759.047 820.999 735.827C819.672 732.63 818.493 731.338 817.518 731.338C814.842 731.315 813.584 740.997 814.536 748.095ZM621 478.357C571.964 521.101 567.293 582.79 567.655 611.712C568.29 661.701 562.565 714.886 579.141 721.394C589.56 725.476 595.138 721.7 610.989 703.753C625.909 686.859 655.433 671.089 663.585 663.685C698.55 631.882 763.335 535.341 763.335 535.341C763.335 535.341 774.741 545.692 776.963 550.227C782.303 561.1 783.618 636.168 754.389 670.215C742.054 684.58 737.53 688.651 730.761 690.317C725.126 691.712 706.464 685.907 706.464 685.907C706.464 685.907 711.067 734.376 696.408 754.739C679.344 778.435 627.576 738.832 627.576 738.832C646.771 779.353 659.129 853.74 659.129 853.74C659.129 853.74 704.14 822.664 725.319 798.582C745.886 775.215 746.373 762.925 750.557 751.621C751.26 749.739 752.054 746.87 753.029 743.458L711.441 691.281L766.294 711.78C770.659 699.886 778.301 697.608 788.164 697.449C796.6 697.313 801.203 700.068 804.173 702.823C808.176 706.53 809.207 710.249 812.586 706.871C843.187 676.27 825.16 649.841 821.452 622.279C821.452 622.279 807.688 578.266 805.387 563.119C797.325 510.069 760.795 455.341 707.519 449.083C700.07 448.21 693.437 447.79 687.473 447.79C655.637 447.779 642.36 459.729 621 478.357ZM795.364 181.828C796.09 270.025 744.196 422.632 744.196 422.632C744.196 422.632 790.659 425.546 819.423 485.84C833.346 515.012 838.867 532.62 843.232 563.164C846.407 585.363 857.869 636.349 857.869 636.349C857.869 636.349 872.234 606.202 877.495 597.336C915.159 533.788 913.436 523.754 914.638 515.488C916.078 505.557 908.561 504.083 902.574 512.121C885.749 534.695 865.874 529.717 865.874 529.717C896.599 504.026 903.232 467.632 902.722 439.196C902.529 428.924 889.252 424.911 883.368 433.335C868.436 454.706 845.942 465.715 845.942 465.715C845.942 465.715 841.747 470.965 869.037 406.952C883.221 373.653 878.674 343.199 871.044 321.635C867.54 311.759 853.345 312.202 850.692 322.349C839.808 363.981 809.219 398.562 809.219 398.562C809.219 398.562 826.792 360.183 834.139 267.848C836.974 232.236 822.393 194.663 815.987 177.962C814.185 173.268 810.171 171.137 806.158 171.137C800.727 171.159 795.307 175.06 795.364 181.828ZM458.54 90.3888C427.566 129.255 371.239 225.49 426.557 364.458C426.557 364.458 380.185 319.764 349.119 237.259C345.979 228.914 334.029 229.141 331.285 237.622C319.335 274.492 307.271 350.387 365.434 436.691L297.804 340.501C293.36 334.186 283.632 335.535 281.115 342.825C270.004 374.9 255.889 449.344 326.387 521.6L248.78 443.085C243.757 438.006 235.186 440.115 233.009 446.917C225.583 470.092 220.549 520.103 282.011 577.382C292.283 586.962 320.333 618.47 320.333 618.47L236.977 569.831C231.297 566.509 224.018 569.831 222.884 576.304C218.576 600.839 218.927 655.601 293.428 694.444L306.818 701.927L254.528 688.753C248.995 687.347 243.36 691.134 242.816 696.825C241.149 713.957 249.369 749.104 331.546 777.358L282.941 770.442C277.963 769.739 273.258 773.015 272.317 777.97C269.494 792.766 273.043 823.956 339.085 850.18L388.892 868.264L350.627 866.598C343.11 866.269 338.19 874.432 342.056 880.872C350.4 894.795 369.074 914.375 409.482 920.94C429.844 924.25 527.86 943.593 523.03 927.504C503.642 862.89 496.409 836.269 495.49 770.736C494.742 717.562 516 704.512 516 704.512C516 704.512 498.2 467.484 600.989 435.149C600.989 435.149 475.434 292.111 475.388 96.3978C475.388 90.5702 470.661 86.8174 465.808 86.8174C463.178 86.8174 460.502 87.9172 458.54 90.3888Z" fill="white"/>
</mask>
<g mask="url(#mask9_191_571)">
<path d="M741.487 455.625C741.487 455.625 795.443 516.044 796.521 566.769C797.598 617.483 834.343 668.685 801.963 689.184C769.593 709.682 801.906 742.641 821.328 718.911C840.749 695.17 858.017 677.903 837.518 606.69C817.008 535.466 791.112 454.548 741.487 455.625Z" fill="#FFE9BC"/>
</g>
<mask id="mask10_191_571" style="mask-type:luminance" maskUnits="userSpaceOnUse" x="221" y="86" width="694" height="932">
<path d="M780.149 742.755C780.149 742.755 757.45 800.101 756.759 815.283C756.078 830.453 633.948 922.912 633.948 922.912C633.948 922.912 625.898 842.04 607.735 784.92C600.127 761.02 558.744 746.972 542.179 779.398C525.626 811.825 567.338 959.704 567.338 959.704C567.338 959.704 584.141 1012.24 608.426 1017.45C632.712 1022.65 746.974 901.269 771.26 855.305C795.545 809.33 797.575 738.594 785.443 740.317C785.443 740.317 785.058 740.226 784.48 740.226C783.301 740.226 781.362 740.589 780.149 742.755ZM814.536 748.095C815.829 757.777 817.643 827.21 798.913 851.11C798.913 851.11 826.157 988.411 874.615 960.633C923.062 932.856 844.627 860.022 826.532 827.074C826.532 827.074 830.625 759.047 820.999 735.827C819.672 732.63 818.493 731.338 817.518 731.338C814.842 731.315 813.584 740.997 814.536 748.095ZM621 478.357C571.964 521.101 567.293 582.79 567.655 611.712C568.29 661.701 562.565 714.886 579.141 721.394C589.56 725.476 595.138 721.7 610.989 703.753C625.909 686.859 655.433 671.089 663.585 663.685C698.55 631.882 763.335 535.341 763.335 535.341C763.335 535.341 774.741 545.692 776.963 550.227C782.303 561.1 783.618 636.168 754.389 670.215C742.054 684.58 737.53 688.651 730.761 690.317C725.126 691.712 706.464 685.907 706.464 685.907C706.464 685.907 711.067 734.376 696.408 754.739C679.344 778.435 627.576 738.832 627.576 738.832C646.771 779.353 659.129 853.74 659.129 853.74C659.129 853.74 704.14 822.664 725.319 798.582C745.886 775.215 746.373 762.925 750.557 751.621C751.26 749.739 752.054 746.87 753.029 743.458L711.441 691.281L766.294 711.78C770.659 699.886 778.301 697.608 788.164 697.449C796.6 697.313 801.203 700.068 804.173 702.823C808.176 706.53 809.207 710.249 812.586 706.871C843.187 676.27 825.16 649.841 821.452 622.279C821.452 622.279 807.688 578.266 805.387 563.119C797.325 510.069 760.795 455.341 707.519 449.083C700.07 448.21 693.437 447.79 687.473 447.79C655.637 447.779 642.36 459.729 621 478.357ZM795.364 181.828C796.09 270.025 744.196 422.632 744.196 422.632C744.196 422.632 790.659 425.546 819.423 485.84C833.346 515.012 838.867 532.62 843.232 563.164C846.407 585.363 857.869 636.349 857.869 636.349C857.869 636.349 872.234 606.202 877.495 597.336C915.159 533.788 913.436 523.754 914.638 515.488C916.078 505.557 908.561 504.083 902.574 512.121C885.749 534.695 865.874 529.717 865.874 529.717C896.599 504.026 903.232 467.632 902.722 439.196C902.529 428.924 889.252 424.911 883.368 433.335C868.436 454.706 845.942 465.715 845.942 465.715C845.942 465.715 841.747 470.965 869.037 406.952C883.221 373.653 878.674 343.199 871.044 321.635C867.54 311.759 853.345 312.202 850.692 322.349C839.808 363.981 809.219 398.562 809.219 398.562C809.219 398.562 826.792 360.183 834.139 267.848C836.974 232.236 822.393 194.663 815.987 177.962C814.185 173.268 810.171 171.137 806.158 171.137C800.727 171.159 795.307 175.06 795.364 181.828ZM458.54 90.3888C427.566 129.255 371.239 225.49 426.557 364.458C426.557 364.458 380.185 319.764 349.119 237.259C345.979 228.914 334.029 229.141 331.285 237.622C319.335 274.492 307.271 350.387 365.434 436.691L297.804 340.501C293.36 334.186 283.632 335.535 281.115 342.825C270.004 374.9 255.889 449.344 326.387 521.6L248.78 443.085C243.757 438.006 235.186 440.115 233.009 446.917C225.583 470.092 220.549 520.103 282.011 577.382C292.283 586.962 320.333 618.47 320.333 618.47L236.977 569.831C231.297 566.509 224.018 569.831 222.884 576.304C218.576 600.839 218.927 655.601 293.428 694.444L306.818 701.927L254.528 688.753C248.995 687.347 243.36 691.134 242.816 696.825C241.149 713.957 249.369 749.104 331.546 777.358L282.941 770.442C277.963 769.739 273.258 773.015 272.317 777.97C269.494 792.766 273.043 823.956 339.085 850.18L388.892 868.264L350.627 866.598C343.11 866.269 338.19 874.432 342.056 880.872C350.4 894.795 369.074 914.375 409.482 920.94C429.844 924.25 527.86 943.593 523.03 927.504C503.642 862.89 496.409 836.269 495.49 770.736C494.742 717.562 516 704.512 516 704.512C516 704.512 498.2 467.484 600.989 435.149C600.989 435.149 475.434 292.111 475.388 96.3978C475.388 90.5702 470.661 86.8174 465.808 86.8174C463.178 86.8174 460.502 87.9172 458.54 90.3888Z" fill="white"/>
</mask>
<g mask="url(#mask10_191_571)">
<path d="M850.194 620.204C850.194 620.204 909.048 555.783 909.853 508.051C910.647 460.33 978.254 528.731 936.1 587.586C893.946 646.44 870.092 684.615 861.339 655.987L850.194 620.204Z" fill="white"/>
</g>
<mask id="mask11_191_571" style="mask-type:luminance" maskUnits="userSpaceOnUse" x="221" y="86" width="694" height="932">
<path d="M780.149 742.755C780.149 742.755 757.45 800.101 756.759 815.283C756.078 830.453 633.948 922.912 633.948 922.912C633.948 922.912 625.898 842.04 607.735 784.92C600.127 761.02 558.744 746.972 542.179 779.398C525.626 811.825 567.338 959.704 567.338 959.704C567.338 959.704 584.141 1012.24 608.426 1017.45C632.712 1022.65 746.974 901.269 771.26 855.305C795.545 809.33 797.575 738.594 785.443 740.317C785.443 740.317 785.058 740.226 784.48 740.226C783.301 740.226 781.362 740.589 780.149 742.755ZM814.536 748.095C815.829 757.777 817.643 827.21 798.913 851.11C798.913 851.11 826.157 988.411 874.615 960.633C923.062 932.856 844.627 860.022 826.532 827.074C826.532 827.074 830.625 759.047 820.999 735.827C819.672 732.63 818.493 731.338 817.518 731.338C814.842 731.315 813.584 740.997 814.536 748.095ZM621 478.357C571.964 521.101 567.293 582.79 567.655 611.712C568.29 661.701 562.565 714.886 579.141 721.394C589.56 725.476 595.138 721.7 610.989 703.753C625.909 686.859 655.433 671.089 663.585 663.685C698.55 631.882 763.335 535.341 763.335 535.341C763.335 535.341 774.741 545.692 776.963 550.227C782.303 561.1 783.618 636.168 754.389 670.215C742.054 684.58 737.53 688.651 730.761 690.317C725.126 691.712 706.464 685.907 706.464 685.907C706.464 685.907 711.067 734.376 696.408 754.739C679.344 778.435 627.576 738.832 627.576 738.832C646.771 779.353 659.129 853.74 659.129 853.74C659.129 853.74 704.14 822.664 725.319 798.582C745.886 775.215 746.373 762.925 750.557 751.621C751.26 749.739 752.054 746.87 753.029 743.458L711.441 691.281L766.294 711.78C770.659 699.886 778.301 697.608 788.164 697.449C796.6 697.313 801.203 700.068 804.173 702.823C808.176 706.53 809.207 710.249 812.586 706.871C843.187 676.27 825.16 649.841 821.452 622.279C821.452 622.279 807.688 578.266 805.387 563.119C797.325 510.069 760.795 455.341 707.519 449.083C700.07 448.21 693.437 447.79 687.473 447.79C655.637 447.779 642.36 459.729 621 478.357ZM795.364 181.828C796.09 270.025 744.196 422.632 744.196 422.632C744.196 422.632 790.659 425.546 819.423 485.84C833.346 515.012 838.867 532.62 843.232 563.164C846.407 585.363 857.869 636.349 857.869 636.349C857.869 636.349 872.234 606.202 877.495 597.336C915.159 533.788 913.436 523.754 914.638 515.488C916.078 505.557 908.561 504.083 902.574 512.121C885.749 534.695 865.874 529.717 865.874 529.717C896.599 504.026 903.232 467.632 902.722 439.196C902.529 428.924 889.252 424.911 883.368 433.335C868.436 454.706 845.942 465.715 845.942 465.715C845.942 465.715 841.747 470.965 869.037 406.952C883.221 373.653 878.674 343.199 871.044 321.635C867.54 311.759 853.345 312.202 850.692 322.349C839.808 363.981 809.219 398.562 809.219 398.562C809.219 398.562 826.792 360.183 834.139 267.848C836.974 232.236 822.393 194.663 815.987 177.962C814.185 173.268 810.171 171.137 806.158 171.137C800.727 171.159 795.307 175.06 795.364 181.828ZM458.54 90.3888C427.566 129.255 371.239 225.49 426.557 364.458C426.557 364.458 380.185 319.764 349.119 237.259C345.979 228.914 334.029 229.141 331.285 237.622C319.335 274.492 307.271 350.387 365.434 436.691L297.804 340.501C293.36 334.186 283.632 335.535 281.115 342.825C270.004 374.9 255.889 449.344 326.387 521.6L248.78 443.085C243.757 438.006 235.186 440.115 233.009 446.917C225.583 470.092 220.549 520.103 282.011 577.382C292.283 586.962 320.333 618.47 320.333 618.47L236.977 569.831C231.297 566.509 224.018 569.831 222.884 576.304C218.576 600.839 218.927 655.601 293.428 694.444L306.818 701.927L254.528 688.753C248.995 687.347 243.36 691.134 242.816 696.825C241.149 713.957 249.369 749.104 331.546 777.358L282.941 770.442C277.963 769.739 273.258 773.015 272.317 777.97C269.494 792.766 273.043 823.956 339.085 850.18L388.892 868.264L350.627 866.598C343.11 866.269 338.19 874.432 342.056 880.872C350.4 894.795 369.074 914.375 409.482 920.94C429.844 924.25 527.86 943.593 523.03 927.504C503.642 862.89 496.409 836.269 495.49 770.736C494.742 717.562 516 704.512 516 704.512C516 704.512 498.2 467.484 600.989 435.149C600.989 435.149 475.434 292.111 475.388 96.3978C475.388 90.5702 470.661 86.8174 465.808 86.8174C463.178 86.8174 460.502 87.9172 458.54 90.3888Z" fill="white"/>
</mask>
<g mask="url(#mask11_191_571)">
<path d="M865.874 529.729C865.874 529.729 904.581 473.935 893.107 425.512C881.633 377.088 914.127 412.133 910.306 439.525C906.486 466.929 905.204 503.244 896.293 512.166C887.37 521.089 865.874 529.729 865.874 529.729Z" fill="white"/>
</g>
<mask id="mask12_191_571" style="mask-type:luminance" maskUnits="userSpaceOnUse" x="221" y="86" width="694" height="932">
<path d="M780.149 742.755C780.149 742.755 757.45 800.101 756.759 815.283C756.078 830.453 633.948 922.912 633.948 922.912C633.948 922.912 625.898 842.04 607.735 784.92C600.127 761.02 558.744 746.972 542.179 779.398C525.626 811.825 567.338 959.704 567.338 959.704C567.338 959.704 584.141 1012.24 608.426 1017.45C632.712 1022.65 746.974 901.269 771.26 855.305C795.545 809.33 797.575 738.594 785.443 740.317C785.443 740.317 785.058 740.226 784.48 740.226C783.301 740.226 781.362 740.589 780.149 742.755ZM814.536 748.095C815.829 757.777 817.643 827.21 798.913 851.11C798.913 851.11 826.157 988.411 874.615 960.633C923.062 932.856 844.627 860.022 826.532 827.074C826.532 827.074 830.625 759.047 820.999 735.827C819.672 732.63 818.493 731.338 817.518 731.338C814.842 731.315 813.584 740.997 814.536 748.095ZM621 478.357C571.964 521.101 567.293 582.79 567.655 611.712C568.29 661.701 562.565 714.886 579.141 721.394C589.56 725.476 595.138 721.7 610.989 703.753C625.909 686.859 655.433 671.089 663.585 663.685C698.55 631.882 763.335 535.341 763.335 535.341C763.335 535.341 774.741 545.692 776.963 550.227C782.303 561.1 783.618 636.168 754.389 670.215C742.054 684.58 737.53 688.651 730.761 690.317C725.126 691.712 706.464 685.907 706.464 685.907C706.464 685.907 711.067 734.376 696.408 754.739C679.344 778.435 627.576 738.832 627.576 738.832C646.771 779.353 659.129 853.74 659.129 853.74C659.129 853.74 704.14 822.664 725.319 798.582C745.886 775.215 746.373 762.925 750.557 751.621C751.26 749.739 752.054 746.87 753.029 743.458L711.441 691.281L766.294 711.78C770.659 699.886 778.301 697.608 788.164 697.449C796.6 697.313 801.203 700.068 804.173 702.823C808.176 706.53 809.207 710.249 812.586 706.871C843.187 676.27 825.16 649.841 821.452 622.279C821.452 622.279 807.688 578.266 805.387 563.119C797.325 510.069 760.795 455.341 707.519 449.083C700.07 448.21 693.437 447.79 687.473 447.79C655.637 447.779 642.36 459.729 621 478.357ZM795.364 181.828C796.09 270.025 744.196 422.632 744.196 422.632C744.196 422.632 790.659 425.546 819.423 485.84C833.346 515.012 838.867 532.62 843.232 563.164C846.407 585.363 857.869 636.349 857.869 636.349C857.869 636.349 872.234 606.202 877.495 597.336C915.159 533.788 913.436 523.754 914.638 515.488C916.078 505.557 908.561 504.083 902.574 512.121C885.749 534.695 865.874 529.717 865.874 529.717C896.599 504.026 903.232 467.632 902.722 439.196C902.529 428.924 889.252 424.911 883.368 433.335C868.436 454.706 845.942 465.715 845.942 465.715C845.942 465.715 841.747 470.965 869.037 406.952C883.221 373.653 878.674 343.199 871.044 321.635C867.54 311.759 853.345 312.202 850.692 322.349C839.808 363.981 809.219 398.562 809.219 398.562C809.219 398.562 826.792 360.183 834.139 267.848C836.974 232.236 822.393 194.663 815.987 177.962C814.185 173.268 810.171 171.137 806.158 171.137C800.727 171.159 795.307 175.06 795.364 181.828ZM458.54 90.3888C427.566 129.255 371.239 225.49 426.557 364.458C426.557 364.458 380.185 319.764 349.119 237.259C345.979 228.914 334.029 229.141 331.285 237.622C319.335 274.492 307.271 350.387 365.434 436.691L297.804 340.501C293.36 334.186 283.632 335.535 281.115 342.825C270.004 374.9 255.889 449.344 326.387 521.6L248.78 443.085C243.757 438.006 235.186 440.115 233.009 446.917C225.583 470.092 220.549 520.103 282.011 577.382C292.283 586.962 320.333 618.47 320.333 618.47L236.977 569.831C231.297 566.509 224.018 569.831 222.884 576.304C218.576 600.839 218.927 655.601 293.428 694.444L306.818 701.927L254.528 688.753C248.995 687.347 243.36 691.134 242.816 696.825C241.149 713.957 249.369 749.104 331.546 777.358L282.941 770.442C277.963 769.739 273.258 773.015 272.317 777.97C269.494 792.766 273.043 823.956 339.085 850.18L388.892 868.264L350.627 866.598C343.11 866.269 338.19 874.432 342.056 880.872C350.4 894.795 369.074 914.375 409.482 920.94C429.844 924.25 527.86 943.593 523.03 927.504C503.642 862.89 496.409 836.269 495.49 770.736C494.742 717.562 516 704.512 516 704.512C516 704.512 498.2 467.484 600.989 435.149C600.989 435.149 475.434 292.111 475.388 96.3978C475.388 90.5702 470.661 86.8174 465.808 86.8174C463.178 86.8174 460.502 87.9172 458.54 90.3888Z" fill="white"/>
</mask>
<g mask="url(#mask12_191_571)">
<path d="M845.931 465.727C845.931 465.727 881.532 358.483 859.004 314.061C836.464 269.639 915.659 319.208 901.498 356.555C887.325 393.902 845.931 465.727 845.931 465.727Z" fill="white"/>
</g>
<mask id="mask13_191_571" style="mask-type:luminance" maskUnits="userSpaceOnUse" x="221" y="86" width="694" height="932">
<path d="M780.149 742.755C780.149 742.755 757.45 800.101 756.759 815.283C756.078 830.453 633.948 922.912 633.948 922.912C633.948 922.912 625.898 842.04 607.735 784.92C600.127 761.02 558.744 746.972 542.179 779.398C525.626 811.825 567.338 959.704 567.338 959.704C567.338 959.704 584.141 1012.24 608.426 1017.45C632.712 1022.65 746.974 901.269 771.26 855.305C795.545 809.33 797.575 738.594 785.443 740.317C785.443 740.317 785.058 740.226 784.48 740.226C783.301 740.226 781.362 740.589 780.149 742.755ZM814.536 748.095C815.829 757.777 817.643 827.21 798.913 851.11C798.913 851.11 826.157 988.411 874.615 960.633C923.062 932.856 844.627 860.022 826.532 827.074C826.532 827.074 830.625 759.047 820.999 735.827C819.672 732.63 818.493 731.338 817.518 731.338C814.842 731.315 813.584 740.997 814.536 748.095ZM621 478.357C571.964 521.101 567.293 582.79 567.655 611.712C568.29 661.701 562.565 714.886 579.141 721.394C589.56 725.476 595.138 721.7 610.989 703.753C625.909 686.859 655.433 671.089 663.585 663.685C698.55 631.882 763.335 535.341 763.335 535.341C763.335 535.341 774.741 545.692 776.963 550.227C782.303 561.1 783.618 636.168 754.389 670.215C742.054 684.58 737.53 688.651 730.761 690.317C725.126 691.712 706.464 685.907 706.464 685.907C706.464 685.907 711.067 734.376 696.408 754.739C679.344 778.435 627.576 738.832 627.576 738.832C646.771 779.353 659.129 853.74 659.129 853.74C659.129 853.74 704.14 822.664 725.319 798.582C745.886 775.215 746.373 762.925 750.557 751.621C751.26 749.739 752.054 746.87 753.029 743.458L711.441 691.281L766.294 711.78C770.659 699.886 778.301 697.608 788.164 697.449C796.6 697.313 801.203 700.068 804.173 702.823C808.176 706.53 809.207 710.249 812.586 706.871C843.187 676.27 825.16 649.841 821.452 622.279C821.452 622.279 807.688 578.266 805.387 563.119C797.325 510.069 760.795 455.341 707.519 449.083C700.07 448.21 693.437 447.79 687.473 447.79C655.637 447.779 642.36 459.729 621 478.357ZM795.364 181.828C796.09 270.025 744.196 422.632 744.196 422.632C744.196 422.632 790.659 425.546 819.423 485.84C833.346 515.012 838.867 532.62 843.232 563.164C846.407 585.363 857.869 636.349 857.869 636.349C857.869 636.349 872.234 606.202 877.495 597.336C915.159 533.788 913.436 523.754 914.638 515.488C916.078 505.557 908.561 504.083 902.574 512.121C885.749 534.695 865.874 529.717 865.874 529.717C896.599 504.026 903.232 467.632 902.722 439.196C902.529 428.924 889.252 424.911 883.368 433.335C868.436 454.706 845.942 465.715 845.942 465.715C845.942 465.715 841.747 470.965 869.037 406.952C883.221 373.653 878.674 343.199 871.044 321.635C867.54 311.759 853.345 312.202 850.692 322.349C839.808 363.981 809.219 398.562 809.219 398.562C809.219 398.562 826.792 360.183 834.139 267.848C836.974 232.236 822.393 194.663 815.987 177.962C814.185 173.268 810.171 171.137 806.158 171.137C800.727 171.159 795.307 175.06 795.364 181.828ZM458.54 90.3888C427.566 129.255 371.239 225.49 426.557 364.458C426.557 364.458 380.185 319.764 349.119 237.259C345.979 228.914 334.029 229.141 331.285 237.622C319.335 274.492 307.271 350.387 365.434 436.691L297.804 340.501C293.36 334.186 283.632 335.535 281.115 342.825C270.004 374.9 255.889 449.344 326.387 521.6L248.78 443.085C243.757 438.006 235.186 440.115 233.009 446.917C225.583 470.092 220.549 520.103 282.011 577.382C292.283 586.962 320.333 618.47 320.333 618.47L236.977 569.831C231.297 566.509 224.018 569.831 222.884 576.304C218.576 600.839 218.927 655.601 293.428 694.444L306.818 701.927L254.528 688.753C248.995 687.347 243.36 691.134 242.816 696.825C241.149 713.957 249.369 749.104 331.546 777.358L282.941 770.442C277.963 769.739 273.258 773.015 272.317 777.97C269.494 792.766 273.043 823.956 339.085 850.18L388.892 868.264L350.627 866.598C343.11 866.269 338.19 874.432 342.056 880.872C350.4 894.795 369.074 914.375 409.482 920.94C429.844 924.25 527.86 943.593 523.03 927.504C503.642 862.89 496.409 836.269 495.49 770.736C494.742 717.562 516 704.512 516 704.512C516 704.512 498.2 467.484 600.989 435.149C600.989 435.149 475.434 292.111 475.388 96.3978C475.388 90.5702 470.661 86.8174 465.808 86.8174C463.178 86.8174 460.502 87.9172 458.54 90.3888Z" fill="white"/>
</mask>
<g mask="url(#mask13_191_571)">
<path d="M808.788 396.476C808.788 396.476 833.255 216.851 808.788 167.928C784.321 118.994 878.323 221.363 857.722 256.771C837.121 292.179 822.314 378.448 822.314 378.448L808.788 396.476Z" fill="white"/>
</g>
<mask id="mask14_191_571" style="mask-type:luminance" maskUnits="userSpaceOnUse" x="221" y="86" width="694" height="932">
<path d="M780.149 742.755C780.149 742.755 757.45 800.101 756.759 815.283C756.078 830.453 633.948 922.912 633.948 922.912C633.948 922.912 625.898 842.04 607.735 784.92C600.127 761.02 558.744 746.972 542.179 779.398C525.626 811.825 567.338 959.704 567.338 959.704C567.338 959.704 584.141 1012.24 608.426 1017.45C632.712 1022.65 746.974 901.269 771.26 855.305C795.545 809.33 797.575 738.594 785.443 740.317C785.443 740.317 785.058 740.226 784.48 740.226C783.301 740.226 781.362 740.589 780.149 742.755ZM814.536 748.095C815.829 757.777 817.643 827.21 798.913 851.11C798.913 851.11 826.157 988.411 874.615 960.633C923.062 932.856 844.627 860.022 826.532 827.074C826.532 827.074 830.625 759.047 820.999 735.827C819.672 732.63 818.493 731.338 817.518 731.338C814.842 731.315 813.584 740.997 814.536 748.095ZM621 478.357C571.964 521.101 567.293 582.79 567.655 611.712C568.29 661.701 562.565 714.886 579.141 721.394C589.56 725.476 595.138 721.7 610.989 703.753C625.909 686.859 655.433 671.089 663.585 663.685C698.55 631.882 763.335 535.341 763.335 535.341C763.335 535.341 774.741 545.692 776.963 550.227C782.303 561.1 783.618 636.168 754.389 670.215C742.054 684.58 737.53 688.651 730.761 690.317C725.126 691.712 706.464 685.907 706.464 685.907C706.464 685.907 711.067 734.376 696.408 754.739C679.344 778.435 627.576 738.832 627.576 738.832C646.771 779.353 659.129 853.74 659.129 853.74C659.129 853.74 704.14 822.664 725.319 798.582C745.886 775.215 746.373 762.925 750.557 751.621C751.26 749.739 752.054 746.87 753.029 743.458L711.441 691.281L766.294 711.78C770.659 699.886 778.301 697.608 788.164 697.449C796.6 697.313 801.203 700.068 804.173 702.823C808.176 706.53 809.207 710.249 812.586 706.871C843.187 676.27 825.16 649.841 821.452 622.279C821.452 622.279 807.688 578.266 805.387 563.119C797.325 510.069 760.795 455.341 707.519 449.083C700.07 448.21 693.437 447.79 687.473 447.79C655.637 447.779 642.36 459.729 621 478.357ZM795.364 181.828C796.09 270.025 744.196 422.632 744.196 422.632C744.196 422.632 790.659 425.546 819.423 485.84C833.346 515.012 838.867 532.62 843.232 563.164C846.407 585.363 857.869 636.349 857.869 636.349C857.869 636.349 872.234 606.202 877.495 597.336C915.159 533.788 913.436 523.754 914.638 515.488C916.078 505.557 908.561 504.083 902.574 512.121C885.749 534.695 865.874 529.717 865.874 529.717C896.599 504.026 903.232 467.632 902.722 439.196C902.529 428.924 889.252 424.911 883.368 433.335C868.436 454.706 845.942 465.715 845.942 465.715C845.942 465.715 841.747 470.965 869.037 406.952C883.221 373.653 878.674 343.199 871.044 321.635C867.54 311.759 853.345 312.202 850.692 322.349C839.808 363.981 809.219 398.562 809.219 398.562C809.219 398.562 826.792 360.183 834.139 267.848C836.974 232.236 822.393 194.663 815.987 177.962C814.185 173.268 810.171 171.137 806.158 171.137C800.727 171.159 795.307 175.06 795.364 181.828ZM458.54 90.3888C427.566 129.255 371.239 225.49 426.557 364.458C426.557 364.458 380.185 319.764 349.119 237.259C345.979 228.914 334.029 229.141 331.285 237.622C319.335 274.492 307.271 350.387 365.434 436.691L297.804 340.501C293.36 334.186 283.632 335.535 281.115 342.825C270.004 374.9 255.889 449.344 326.387 521.6L248.78 443.085C243.757 438.006 235.186 440.115 233.009 446.917C225.583 470.092 220.549 520.103 282.011 577.382C292.283 586.962 320.333 618.47 320.333 618.47L236.977 569.831C231.297 566.509 224.018 569.831 222.884 576.304C218.576 600.839 218.927 655.601 293.428 694.444L306.818 701.927L254.528 688.753C248.995 687.347 243.36 691.134 242.816 696.825C241.149 713.957 249.369 749.104 331.546 777.358L282.941 770.442C277.963 769.739 273.258 773.015 272.317 777.97C269.494 792.766 273.043 823.956 339.085 850.18L388.892 868.264L350.627 866.598C343.11 866.269 338.19 874.432 342.056 880.872C350.4 894.795 369.074 914.375 409.482 920.94C429.844 924.25 527.86 943.593 523.03 927.504C503.642 862.89 496.409 836.269 495.49 770.736C494.742 717.562 516 704.512 516 704.512C516 704.512 498.2 467.484 600.989 435.149C600.989 435.149 475.434 292.111 475.388 96.3978C475.388 90.5702 470.661 86.8174 465.808 86.8174C463.178 86.8174 460.502 87.9172 458.54 90.3888Z" fill="white"/>
</mask>
<g mask="url(#mask14_191_571)">
<path d="M601.113 442.224C601.113 442.224 464.413 401.85 472.746 90.2301C479.606 -166.48 625.013 433.527 625.013 433.527L601.113 442.224Z" fill="#FFE9BC"/>
</g>
<mask id="mask15_191_571" style="mask-type:luminance" maskUnits="userSpaceOnUse" x="221" y="86" width="694" height="932">
<path d="M780.149 742.755C780.149 742.755 757.45 800.101 756.759 815.283C756.078 830.453 633.948 922.912 633.948 922.912C633.948 922.912 625.898 842.04 607.735 784.92C600.127 761.02 558.744 746.972 542.179 779.398C525.626 811.825 567.338 959.704 567.338 959.704C567.338 959.704 584.141 1012.24 608.426 1017.45C632.712 1022.65 746.974 901.269 771.26 855.305C795.545 809.33 797.575 738.594 785.443 740.317C785.443 740.317 785.058 740.226 784.48 740.226C783.301 740.226 781.362 740.589 780.149 742.755ZM814.536 748.095C815.829 757.777 817.643 827.21 798.913 851.11C798.913 851.11 826.157 988.411 874.615 960.633C923.062 932.856 844.627 860.022 826.532 827.074C826.532 827.074 830.625 759.047 820.999 735.827C819.672 732.63 818.493 731.338 817.518 731.338C814.842 731.315 813.584 740.997 814.536 748.095ZM621 478.357C571.964 521.101 567.293 582.79 567.655 611.712C568.29 661.701 562.565 714.886 579.141 721.394C589.56 725.476 595.138 721.7 610.989 703.753C625.909 686.859 655.433 671.089 663.585 663.685C698.55 631.882 763.335 535.341 763.335 535.341C763.335 535.341 774.741 545.692 776.963 550.227C782.303 561.1 783.618 636.168 754.389 670.215C742.054 684.58 737.53 688.651 730.761 690.317C725.126 691.712 706.464 685.907 706.464 685.907C706.464 685.907 711.067 734.376 696.408 754.739C679.344 778.435 627.576 738.832 627.576 738.832C646.771 779.353 659.129 853.74 659.129 853.74C659.129 853.74 704.14 822.664 725.319 798.582C745.886 775.215 746.373 762.925 750.557 751.621C751.26 749.739 752.054 746.87 753.029 743.458L711.441 691.281L766.294 711.78C770.659 699.886 778.301 697.608 788.164 697.449C796.6 697.313 801.203 700.068 804.173 702.823C808.176 706.53 809.207 710.249 812.586 706.871C843.187 676.27 825.16 649.841 821.452 622.279C821.452 622.279 807.688 578.266 805.387 563.119C797.325 510.069 760.795 455.341 707.519 449.083C700.07 448.21 693.437 447.79 687.473 447.79C655.637 447.779 642.36 459.729 621 478.357ZM795.364 181.828C796.09 270.025 744.196 422.632 744.196 422.632C744.196 422.632 790.659 425.546 819.423 485.84C833.346 515.012 838.867 532.62 843.232 563.164C846.407 585.363 857.869 636.349 857.869 636.349C857.869 636.349 872.234 606.202 877.495 597.336C915.159 533.788 913.436 523.754 914.638 515.488C916.078 505.557 908.561 504.083 902.574 512.121C885.749 534.695 865.874 529.717 865.874 529.717C896.599 504.026 903.232 467.632 902.722 439.196C902.529 428.924 889.252 424.911 883.368 433.335C868.436 454.706 845.942 465.715 845.942 465.715C845.942 465.715 841.747 470.965 869.037 406.952C883.221 373.653 878.674 343.199 871.044 321.635C867.54 311.759 853.345 312.202 850.692 322.349C839.808 363.981 809.219 398.562 809.219 398.562C809.219 398.562 826.792 360.183 834.139 267.848C836.974 232.236 822.393 194.663 815.987 177.962C814.185 173.268 810.171 171.137 806.158 171.137C800.727 171.159 795.307 175.06 795.364 181.828ZM458.54 90.3888C427.566 129.255 371.239 225.49 426.557 364.458C426.557 364.458 380.185 319.764 349.119 237.259C345.979 228.914 334.029 229.141 331.285 237.622C319.335 274.492 307.271 350.387 365.434 436.691L297.804 340.501C293.36 334.186 283.632 335.535 281.115 342.825C270.004 374.9 255.889 449.344 326.387 521.6L248.78 443.085C243.757 438.006 235.186 440.115 233.009 446.917C225.583 470.092 220.549 520.103 282.011 577.382C292.283 586.962 320.333 618.47 320.333 618.47L236.977 569.831C231.297 566.509 224.018 569.831 222.884 576.304C218.576 600.839 218.927 655.601 293.428 694.444L306.818 701.927L254.528 688.753C248.995 687.347 243.36 691.134 242.816 696.825C241.149 713.957 249.369 749.104 331.546 777.358L282.941 770.442C277.963 769.739 273.258 773.015 272.317 777.97C269.494 792.766 273.043 823.956 339.085 850.18L388.892 868.264L350.627 866.598C343.11 866.269 338.19 874.432 342.056 880.872C350.4 894.795 369.074 914.375 409.482 920.94C429.844 924.25 527.86 943.593 523.03 927.504C503.642 862.89 496.409 836.269 495.49 770.736C494.742 717.562 516 704.512 516 704.512C516 704.512 498.2 467.484 600.989 435.149C600.989 435.149 475.434 292.111 475.388 96.3978C475.388 90.5702 470.661 86.8174 465.808 86.8174C463.178 86.8174 460.502 87.9172 458.54 90.3888Z" fill="white"/>
</mask>
<g mask="url(#mask15_191_571)">
<path d="M345.968 228.846C345.968 228.846 370.084 315.569 397.986 346.26C403.927 352.802 436.739 385.285 417.646 348.176C398.553 311.045 345.968 228.846 345.968 228.846Z" fill="#FFD78E"/>
</g>
<mask id="mask16_191_571" style="mask-type:luminance" maskUnits="userSpaceOnUse" x="221" y="86" width="694" height="932">
<path d="M780.149 742.755C780.149 742.755 757.45 800.101 756.759 815.283C756.078 830.453 633.948 922.912 633.948 922.912C633.948 922.912 625.898 842.04 607.735 784.92C600.127 761.02 558.744 746.972 542.179 779.398C525.626 811.825 567.338 959.704 567.338 959.704C567.338 959.704 584.141 1012.24 608.426 1017.45C632.712 1022.65 746.974 901.269 771.26 855.305C795.545 809.33 797.575 738.594 785.443 740.317C785.443 740.317 785.058 740.226 784.48 740.226C783.301 740.226 781.362 740.589 780.149 742.755ZM814.536 748.095C815.829 757.777 817.643 827.21 798.913 851.11C798.913 851.11 826.157 988.411 874.615 960.633C923.062 932.856 844.627 860.022 826.532 827.074C826.532 827.074 830.625 759.047 820.999 735.827C819.672 732.63 818.493 731.338 817.518 731.338C814.842 731.315 813.584 740.997 814.536 748.095ZM621 478.357C571.964 521.101 567.293 582.79 567.655 611.712C568.29 661.701 562.565 714.886 579.141 721.394C589.56 725.476 595.138 721.7 610.989 703.753C625.909 686.859 655.433 671.089 663.585 663.685C698.55 631.882 763.335 535.341 763.335 535.341C763.335 535.341 774.741 545.692 776.963 550.227C782.303 561.1 783.618 636.168 754.389 670.215C742.054 684.58 737.53 688.651 730.761 690.317C725.126 691.712 706.464 685.907 706.464 685.907C706.464 685.907 711.067 734.376 696.408 754.739C679.344 778.435 627.576 738.832 627.576 738.832C646.771 779.353 659.129 853.74 659.129 853.74C659.129 853.74 704.14 822.664 725.319 798.582C745.886 775.215 746.373 762.925 750.557 751.621C751.26 749.739 752.054 746.87 753.029 743.458L711.441 691.281L766.294 711.78C770.659 699.886 778.301 697.608 788.164 697.449C796.6 697.313 801.203 700.068 804.173 702.823C808.176 706.53 809.207 710.249 812.586 706.871C843.187 676.27 825.16 649.841 821.452 622.279C821.452 622.279 807.688 578.266 805.387 563.119C797.325 510.069 760.795 455.341 707.519 449.083C700.07 448.21 693.437 447.79 687.473 447.79C655.637 447.779 642.36 459.729 621 478.357ZM795.364 181.828C796.09 270.025 744.196 422.632 744.196 422.632C744.196 422.632 790.659 425.546 819.423 485.84C833.346 515.012 838.867 532.62 843.232 563.164C846.407 585.363 857.869 636.349 857.869 636.349C857.869 636.349 872.234 606.202 877.495 597.336C915.159 533.788 913.436 523.754 914.638 515.488C916.078 505.557 908.561 504.083 902.574 512.121C885.749 534.695 865.874 529.717 865.874 529.717C896.599 504.026 903.232 467.632 902.722 439.196C902.529 428.924 889.252 424.911 883.368 433.335C868.436 454.706 845.942 465.715 845.942 465.715C845.942 465.715 841.747 470.965 869.037 406.952C883.221 373.653 878.674 343.199 871.044 321.635C867.54 311.759 853.345 312.202 850.692 322.349C839.808 363.981 809.219 398.562 809.219 398.562C809.219 398.562 826.792 360.183 834.139 267.848C836.974 232.236 822.393 194.663 815.987 177.962C814.185 173.268 810.171 171.137 806.158 171.137C800.727 171.159 795.307 175.06 795.364 181.828ZM458.54 90.3888C427.566 129.255 371.239 225.49 426.557 364.458C426.557 364.458 380.185 319.764 349.119 237.259C345.979 228.914 334.029 229.141 331.285 237.622C319.335 274.492 307.271 350.387 365.434 436.691L297.804 340.501C293.36 334.186 283.632 335.535 281.115 342.825C270.004 374.9 255.889 449.344 326.387 521.6L248.78 443.085C243.757 438.006 235.186 440.115 233.009 446.917C225.583 470.092 220.549 520.103 282.011 577.382C292.283 586.962 320.333 618.47 320.333 618.47L236.977 569.831C231.297 566.509 224.018 569.831 222.884 576.304C218.576 600.839 218.927 655.601 293.428 694.444L306.818 701.927L254.528 688.753C248.995 687.347 243.36 691.134 242.816 696.825C241.149 713.957 249.369 749.104 331.546 777.358L282.941 770.442C277.963 769.739 273.258 773.015 272.317 777.97C269.494 792.766 273.043 823.956 339.085 850.18L388.892 868.264L350.627 866.598C343.11 866.269 338.19 874.432 342.056 880.872C350.4 894.795 369.074 914.375 409.482 920.94C429.844 924.25 527.86 943.593 523.03 927.504C503.642 862.89 496.409 836.269 495.49 770.736C494.742 717.562 516 704.512 516 704.512C516 704.512 498.2 467.484 600.989 435.149C600.989 435.149 475.434 292.111 475.388 96.3978C475.388 90.5702 470.661 86.8174 465.808 86.8174C463.178 86.8174 460.502 87.9172 458.54 90.3888Z" fill="white"/>
</mask>
<g mask="url(#mask16_191_571)">
<path d="M293.609 334.877C293.609 334.877 308.132 393.324 357.543 427.598C357.543 427.598 355.434 415.727 322.94 369.752C290.434 323.789 293.609 334.877 293.609 334.877Z" fill="#FFD78E"/>
</g>
<mask id="mask17_191_571" style="mask-type:luminance" maskUnits="userSpaceOnUse" x="221" y="86" width="694" height="932">
<path d="M780.149 742.755C780.149 742.755 757.45 800.101 756.759 815.283C756.078 830.453 633.948 922.912 633.948 922.912C633.948 922.912 625.898 842.04 607.735 784.92C600.127 761.02 558.744 746.972 542.179 779.398C525.626 811.825 567.338 959.704 567.338 959.704C567.338 959.704 584.141 1012.24 608.426 1017.45C632.712 1022.65 746.974 901.269 771.26 855.305C795.545 809.33 797.575 738.594 785.443 740.317C785.443 740.317 785.058 740.226 784.48 740.226C783.301 740.226 781.362 740.589 780.149 742.755ZM814.536 748.095C815.829 757.777 817.643 827.21 798.913 851.11C798.913 851.11 826.157 988.411 874.615 960.633C923.062 932.856 844.627 860.022 826.532 827.074C826.532 827.074 830.625 759.047 820.999 735.827C819.672 732.63 818.493 731.338 817.518 731.338C814.842 731.315 813.584 740.997 814.536 748.095ZM621 478.357C571.964 521.101 567.293 582.79 567.655 611.712C568.29 661.701 562.565 714.886 579.141 721.394C589.56 725.476 595.138 721.7 610.989 703.753C625.909 686.859 655.433 671.089 663.585 663.685C698.55 631.882 763.335 535.341 763.335 535.341C763.335 535.341 774.741 545.692 776.963 550.227C782.303 561.1 783.618 636.168 754.389 670.215C742.054 684.58 737.53 688.651 730.761 690.317C725.126 691.712 706.464 685.907 706.464 685.907C706.464 685.907 711.067 734.376 696.408 754.739C679.344 778.435 627.576 738.832 627.576 738.832C646.771 779.353 659.129 853.74 659.129 853.74C659.129 853.74 704.14 822.664 725.319 798.582C745.886 775.215 746.373 762.925 750.557 751.621C751.26 749.739 752.054 746.87 753.029 743.458L711.441 691.281L766.294 711.78C770.659 699.886 778.301 697.608 788.164 697.449C796.6 697.313 801.203 700.068 804.173 702.823C808.176 706.53 809.207 710.249 812.586 706.871C843.187 676.27 825.16 649.841 821.452 622.279C821.452 622.279 807.688 578.266 805.387 563.119C797.325 510.069 760.795 455.341 707.519 449.083C700.07 448.21 693.437 447.79 687.473 447.79C655.637 447.779 642.36 459.729 621 478.357ZM795.364 181.828C796.09 270.025 744.196 422.632 744.196 422.632C744.196 422.632 790.659 425.546 819.423 485.84C833.346 515.012 838.867 532.62 843.232 563.164C846.407 585.363 857.869 636.349 857.869 636.349C857.869 636.349 872.234 606.202 877.495 597.336C915.159 533.788 913.436 523.754 914.638 515.488C916.078 505.557 908.561 504.083 902.574 512.121C885.749 534.695 865.874 529.717 865.874 529.717C896.599 504.026 903.232 467.632 902.722 439.196C902.529 428.924 889.252 424.911 883.368 433.335C868.436 454.706 845.942 465.715 845.942 465.715C845.942 465.715 841.747 470.965 869.037 406.952C883.221 373.653 878.674 343.199 871.044 321.635C867.54 311.759 853.345 312.202 850.692 322.349C839.808 363.981 809.219 398.562 809.219 398.562C809.219 398.562 826.792 360.183 834.139 267.848C836.974 232.236 822.393 194.663 815.987 177.962C814.185 173.268 810.171 171.137 806.158 171.137C800.727 171.159 795.307 175.06 795.364 181.828ZM458.54 90.3888C427.566 129.255 371.239 225.49 426.557 364.458C426.557 364.458 380.185 319.764 349.119 237.259C345.979 228.914 334.029 229.141 331.285 237.622C319.335 274.492 307.271 350.387 365.434 436.691L297.804 340.501C293.36 334.186 283.632 335.535 281.115 342.825C270.004 374.9 255.889 449.344 326.387 521.6L248.78 443.085C243.757 438.006 235.186 440.115 233.009 446.917C225.583 470.092 220.549 520.103 282.011 577.382C292.283 586.962 320.333 618.47 320.333 618.47L236.977 569.831C231.297 566.509 224.018 569.831 222.884 576.304C218.576 600.839 218.927 655.601 293.428 694.444L306.818 701.927L254.528 688.753C248.995 687.347 243.36 691.134 242.816 696.825C241.149 713.957 249.369 749.104 331.546 777.358L282.941 770.442C277.963 769.739 273.258 773.015 272.317 777.97C269.494 792.766 273.043 823.956 339.085 850.18L388.892 868.264L350.627 866.598C343.11 866.269 338.19 874.432 342.056 880.872C350.4 894.795 369.074 914.375 409.482 920.94C429.844 924.25 527.86 943.593 523.03 927.504C503.642 862.89 496.409 836.269 495.49 770.736C494.742 717.562 516 704.512 516 704.512C516 704.512 498.2 467.484 600.989 435.149C600.989 435.149 475.434 292.111 475.388 96.3978C475.388 90.5702 470.661 86.8174 465.808 86.8174C463.178 86.8174 460.502 87.9172 458.54 90.3888Z" fill="white"/>
</mask>
<g mask="url(#mask17_191_571)">
<path d="M234.88 435.217C234.88 435.217 262.952 490.353 318.394 513.652C318.394 513.652 307.351 499.241 270.798 463.255C230.662 423.777 234.88 435.217 234.88 435.217Z" fill="#FFD78E"/>
</g>
<mask id="mask18_191_571" style="mask-type:luminance" maskUnits="userSpaceOnUse" x="221" y="86" width="694" height="932">
<path d="M780.149 742.755C780.149 742.755 757.45 800.101 756.759 815.283C756.078 830.453 633.948 922.912 633.948 922.912C633.948 922.912 625.898 842.04 607.735 784.92C600.127 761.02 558.744 746.972 542.179 779.398C525.626 811.825 567.338 959.704 567.338 959.704C567.338 959.704 584.141 1012.24 608.426 1017.45C632.712 1022.65 746.974 901.269 771.26 855.305C795.545 809.33 797.575 738.594 785.443 740.317C785.443 740.317 785.058 740.226 784.48 740.226C783.301 740.226 781.362 740.589 780.149 742.755ZM814.536 748.095C815.829 757.777 817.643 827.21 798.913 851.11C798.913 851.11 826.157 988.411 874.615 960.633C923.062 932.856 844.627 860.022 826.532 827.074C826.532 827.074 830.625 759.047 820.999 735.827C819.672 732.63 818.493 731.338 817.518 731.338C814.842 731.315 813.584 740.997 814.536 748.095ZM621 478.357C571.964 521.101 567.293 582.79 567.655 611.712C568.29 661.701 562.565 714.886 579.141 721.394C589.56 725.476 595.138 721.7 610.989 703.753C625.909 686.859 655.433 671.089 663.585 663.685C698.55 631.882 763.335 535.341 763.335 535.341C763.335 535.341 774.741 545.692 776.963 550.227C782.303 561.1 783.618 636.168 754.389 670.215C742.054 684.58 737.53 688.651 730.761 690.317C725.126 691.712 706.464 685.907 706.464 685.907C706.464 685.907 711.067 734.376 696.408 754.739C679.344 778.435 627.576 738.832 627.576 738.832C646.771 779.353 659.129 853.74 659.129 853.74C659.129 853.74 704.14 822.664 725.319 798.582C745.886 775.215 746.373 762.925 750.557 751.621C751.26 749.739 752.054 746.87 753.029 743.458L711.441 691.281L766.294 711.78C770.659 699.886 778.301 697.608 788.164 697.449C796.6 697.313 801.203 700.068 804.173 702.823C808.176 706.53 809.207 710.249 812.586 706.871C843.187 676.27 825.16 649.841 821.452 622.279C821.452 622.279 807.688 578.266 805.387 563.119C797.325 510.069 760.795 455.341 707.519 449.083C700.07 448.21 693.437 447.79 687.473 447.79C655.637 447.779 642.36 459.729 621 478.357ZM795.364 181.828C796.09 270.025 744.196 422.632 744.196 422.632C744.196 422.632 790.659 425.546 819.423 485.84C833.346 515.012 838.867 532.62 843.232 563.164C846.407 585.363 857.869 636.349 857.869 636.349C857.869 636.349 872.234 606.202 877.495 597.336C915.159 533.788 913.436 523.754 914.638 515.488C916.078 505.557 908.561 504.083 902.574 512.121C885.749 534.695 865.874 529.717 865.874 529.717C896.599 504.026 903.232 467.632 902.722 439.196C902.529 428.924 889.252 424.911 883.368 433.335C868.436 454.706 845.942 465.715 845.942 465.715C845.942 465.715 841.747 470.965 869.037 406.952C883.221 373.653 878.674 343.199 871.044 321.635C867.54 311.759 853.345 312.202 850.692 322.349C839.808 363.981 809.219 398.562 809.219 398.562C809.219 398.562 826.792 360.183 834.139 267.848C836.974 232.236 822.393 194.663 815.987 177.962C814.185 173.268 810.171 171.137 806.158 171.137C800.727 171.159 795.307 175.06 795.364 181.828ZM458.54 90.3888C427.566 129.255 371.239 225.49 426.557 364.458C426.557 364.458 380.185 319.764 349.119 237.259C345.979 228.914 334.029 229.141 331.285 237.622C319.335 274.492 307.271 350.387 365.434 436.691L297.804 340.501C293.36 334.186 283.632 335.535 281.115 342.825C270.004 374.9 255.889 449.344 326.387 521.6L248.78 443.085C243.757 438.006 235.186 440.115 233.009 446.917C225.583 470.092 220.549 520.103 282.011 577.382C292.283 586.962 320.333 618.47 320.333 618.47L236.977 569.831C231.297 566.509 224.018 569.831 222.884 576.304C218.576 600.839 218.927 655.601 293.428 694.444L306.818 701.927L254.528 688.753C248.995 687.347 243.36 691.134 242.816 696.825C241.149 713.957 249.369 749.104 331.546 777.358L282.941 770.442C277.963 769.739 273.258 773.015 272.317 777.97C269.494 792.766 273.043 823.956 339.085 850.18L388.892 868.264L350.627 866.598C343.11 866.269 338.19 874.432 342.056 880.872C350.4 894.795 369.074 914.375 409.482 920.94C429.844 924.25 527.86 943.593 523.03 927.504C503.642 862.89 496.409 836.269 495.49 770.736C494.742 717.562 516 704.512 516 704.512C516 704.512 498.2 467.484 600.989 435.149C600.989 435.149 475.434 292.111 475.388 96.3978C475.388 90.5702 470.661 86.8174 465.808 86.8174C463.178 86.8174 460.502 87.9172 458.54 90.3888Z" fill="white"/>
</mask>
<g mask="url(#mask18_191_571)">
<path d="M219.21 561.157C219.21 561.157 259.528 608.096 318.904 617.631C318.904 617.631 304.765 606.236 260.741 579.91C212.419 551.032 219.21 561.157 219.21 561.157Z" fill="#FFD78E"/>
</g>
</g>
</g>
<defs>
<linearGradient id="paint0_linear_191_571" x1="568.109" y1="0.0604858" x2="568.109" y2="1133.84" gradientUnits="userSpaceOnUse">
<stop stop-color="#FBB042"/>
<stop offset="0.461538" stop-color="#432D0B"/>
</linearGradient>
<linearGradient id="paint1_linear_191_571" x1="221.344" y1="554.711" x2="914.74" y2="554.711" gradientUnits="userSpaceOnUse">
<stop stop-color="#FBB03C"/>
<stop offset="0.5307" stop-color="#B7792A"/>
<stop offset="0.9525" stop-color="#FDDB47"/>
<stop offset="1" stop-color="#FDDB47"/>
</linearGradient>
<clipPath id="clip0_191_571">
<rect width="1137.66" height="683.951" fill="white" transform="translate(-1.31641 -98.9696)"/>
</clipPath>
</defs>
</svg>
