<svg width="1134" height="704" viewBox="0 0 1134 704" fill="none" xmlns="http://www.w3.org/2000/svg">
<g clip-path="url(#clip0_148_950)">
<path d="M566.89 1122.17C492.185 1122.17 419.737 1107.55 351.529 1078.71C285.645 1050.84 226.473 1010.94 175.657 960.124C124.841 909.308 84.9428 850.136 57.0745 784.252C28.2311 716.044 13.6054 643.595 13.6054 568.89C13.6054 494.185 28.2311 421.737 57.0745 353.529C84.9428 287.645 124.841 228.473 175.657 177.657C226.473 126.841 285.645 86.9428 351.529 59.0745C419.737 30.2311 492.185 15.6053 566.89 15.6053C641.595 15.6053 714.044 30.2311 782.252 59.0745C848.136 86.9428 907.308 126.841 958.124 177.657C1008.94 228.473 1048.84 287.645 1076.71 353.529C1105.55 421.737 1120.18 494.197 1120.18 568.89C1120.18 643.584 1105.55 716.044 1076.71 784.252C1048.84 850.136 1008.94 909.308 958.124 960.124C907.308 1010.94 848.136 1050.84 782.252 1078.71C714.044 1107.55 641.584 1122.17 566.89 1122.17Z" fill="#171614"/>
<path d="M566.89 29.2107C639.758 29.2107 710.427 43.4737 776.946 71.6141C841.208 98.7908 898.929 137.714 948.498 187.282C998.067 236.851 1036.99 294.572 1064.17 358.835C1092.31 425.354 1106.57 496.022 1106.57 568.89C1106.57 641.758 1092.31 712.427 1064.17 778.946C1036.99 843.208 998.067 900.929 948.498 950.498C898.929 1000.07 841.208 1038.99 776.946 1066.17C710.427 1094.31 639.758 1108.57 566.89 1108.57C494.022 1108.57 423.354 1094.31 356.835 1066.17C292.572 1038.99 234.851 1000.07 185.282 950.498C135.714 900.929 96.7908 843.208 69.6141 778.946C41.4737 712.427 27.2107 641.758 27.2107 568.89C27.2107 496.022 41.4737 425.354 69.6141 358.835C96.7908 294.572 135.714 236.851 185.282 187.282C234.851 137.714 292.572 98.7908 356.835 71.6141C423.354 43.4737 494.022 29.2107 566.89 29.2107ZM566.89 2C253.808 2 0 255.808 0 568.89C0 881.972 253.808 1135.78 566.89 1135.78C879.972 1135.78 1133.78 881.972 1133.78 568.89C1133.78 255.808 879.972 2 566.89 2Z" fill="url(#paint0_linear_148_950)"/>
<mask id="mask0_148_950" style="mask-type:luminance" maskUnits="userSpaceOnUse" x="220" y="88" width="694" height="932">
<path d="M778.929 744.694C778.929 744.694 756.231 802.041 755.54 817.222C754.859 832.392 632.728 924.852 632.728 924.852C632.728 924.852 624.679 843.979 606.515 786.859C598.908 762.959 557.525 748.912 540.96 781.338C524.407 813.764 566.119 961.643 566.119 961.643C566.119 961.643 582.921 1014.18 607.207 1019.39C631.493 1024.59 745.755 903.208 770.041 857.245C794.326 811.27 796.356 740.533 784.224 742.257C784.224 742.257 783.839 742.166 783.26 742.166C782.081 742.166 780.143 742.529 778.929 744.694ZM813.317 750.034C814.609 759.717 816.424 829.149 797.693 853.05C797.693 853.05 824.938 990.35 873.396 962.573C921.842 934.795 843.407 861.961 825.312 829.013C825.312 829.013 829.405 760.987 819.779 737.767C818.453 734.57 817.274 733.277 816.299 733.277C813.623 733.254 812.365 742.937 813.317 750.034ZM619.781 480.297C570.745 523.04 566.073 584.729 566.436 613.652C567.071 663.64 561.346 716.826 577.921 723.334C588.341 727.415 593.919 723.64 609.769 705.692C624.69 688.799 654.214 673.028 662.365 665.624C697.331 633.822 762.115 537.28 762.115 537.28C762.115 537.28 773.521 547.632 775.743 552.167C781.084 563.04 782.399 638.107 753.17 672.155C740.834 686.52 736.311 690.59 729.542 692.257C723.907 693.651 705.245 687.846 705.245 687.846C705.245 687.846 709.848 736.316 695.188 756.678C678.125 780.374 626.357 740.771 626.357 740.771C645.551 781.293 657.91 855.68 657.91 855.68C657.91 855.68 702.921 824.603 724.1 800.522C744.667 777.154 745.154 764.864 749.338 753.56C750.041 751.678 750.834 748.81 751.809 745.397L710.222 693.221L765.075 713.719C769.44 701.826 777.081 699.547 786.945 699.388C795.381 699.252 799.984 702.007 802.954 704.762C806.956 708.47 807.988 712.189 811.367 708.81C841.968 678.209 823.94 651.781 820.233 624.219C820.233 624.219 806.469 580.205 804.167 565.058C796.106 512.008 759.576 457.281 706.299 451.022C698.85 450.149 692.218 449.73 686.254 449.73C654.418 449.719 641.141 461.669 619.781 480.297ZM794.145 183.768C794.87 271.964 742.977 424.571 742.977 424.571C742.977 424.571 789.439 427.485 818.204 487.78C832.126 516.952 837.648 534.559 842.013 565.103C845.187 587.303 856.65 638.289 856.65 638.289C856.65 638.289 871.015 608.142 876.276 599.276C913.94 535.727 912.217 525.693 913.418 517.428C914.858 507.496 907.341 506.022 901.355 514.061C884.53 536.634 864.655 531.657 864.655 531.657C895.38 505.965 902.013 469.571 901.502 441.136C901.31 430.864 888.033 426.85 882.149 435.274C867.217 456.646 844.723 467.655 844.723 467.655C844.723 467.655 840.528 472.904 867.818 408.891C882.001 375.592 877.455 345.139 869.825 323.574C866.321 313.699 852.126 314.141 849.473 324.288C838.589 365.921 807.999 400.501 807.999 400.501C807.999 400.501 825.573 362.123 832.92 269.788C835.754 234.176 821.174 196.602 814.768 179.901C812.965 175.208 808.952 173.076 804.938 173.076C799.508 173.099 794.088 176.999 794.145 183.768ZM457.321 92.3282C426.346 131.194 370.02 227.43 425.337 366.397C425.337 366.397 378.966 321.703 347.9 239.198C344.76 230.854 332.809 231.08 330.066 239.561C318.116 276.432 306.052 352.327 364.215 438.63L296.585 342.44C292.141 336.125 282.413 337.474 279.896 344.764C268.785 376.839 254.669 451.283 325.168 523.539L247.561 445.025C242.538 439.945 233.966 442.054 231.79 448.857C224.363 472.031 219.329 522.042 280.792 579.321C291.064 588.901 319.113 620.409 319.113 620.409L235.758 571.77C230.078 568.448 222.799 571.77 221.665 578.244C217.357 602.779 217.708 657.54 292.209 696.384L305.599 703.867L253.309 690.692C247.776 689.286 242.141 693.073 241.597 698.765C239.93 715.896 248.15 751.043 330.326 779.297L281.721 772.381C276.744 771.678 272.039 774.955 271.098 779.909C268.275 794.705 271.823 825.896 337.866 852.12L387.673 870.204L349.408 868.537C341.891 868.208 336.97 876.371 340.837 882.811C349.181 896.734 367.855 916.314 408.263 922.879C428.625 926.19 526.641 945.532 521.811 929.444C502.423 864.83 495.189 838.208 494.271 772.676C493.523 719.502 514.781 706.452 514.781 706.452C514.781 706.452 496.981 469.424 599.769 437.088C599.769 437.088 474.215 294.05 474.169 98.3373C474.169 92.5097 469.441 88.7568 464.589 88.7568C461.958 88.7568 459.283 89.8566 457.321 92.3282Z" fill="white"/>
</mask>
<g mask="url(#mask0_148_950)">
<path d="M921.843 88.7568H217.346V1024.59H921.843V88.7568Z" fill="url(#paint1_linear_148_950)"/>
</g>
<mask id="mask1_148_950" style="mask-type:luminance" maskUnits="userSpaceOnUse" x="220" y="88" width="694" height="932">
<path d="M778.929 744.694C778.929 744.694 756.231 802.041 755.54 817.222C754.859 832.392 632.728 924.852 632.728 924.852C632.728 924.852 624.679 843.979 606.515 786.859C598.908 762.959 557.525 748.912 540.96 781.338C524.407 813.764 566.119 961.643 566.119 961.643C566.119 961.643 582.921 1014.18 607.207 1019.39C631.493 1024.59 745.755 903.208 770.041 857.245C794.326 811.27 796.356 740.533 784.224 742.257C784.224 742.257 783.839 742.166 783.26 742.166C782.081 742.166 780.143 742.529 778.929 744.694ZM813.317 750.034C814.609 759.717 816.424 829.149 797.693 853.05C797.693 853.05 824.938 990.35 873.396 962.573C921.842 934.795 843.407 861.961 825.312 829.013C825.312 829.013 829.405 760.987 819.779 737.767C818.453 734.57 817.274 733.277 816.299 733.277C813.623 733.254 812.365 742.937 813.317 750.034ZM619.781 480.297C570.745 523.04 566.073 584.729 566.436 613.652C567.071 663.64 561.346 716.826 577.921 723.334C588.341 727.415 593.919 723.64 609.769 705.692C624.69 688.799 654.214 673.028 662.365 665.624C697.331 633.822 762.115 537.28 762.115 537.28C762.115 537.28 773.521 547.632 775.743 552.167C781.084 563.04 782.399 638.107 753.17 672.155C740.834 686.52 736.311 690.59 729.542 692.257C723.907 693.651 705.245 687.846 705.245 687.846C705.245 687.846 709.848 736.316 695.188 756.678C678.125 780.374 626.357 740.771 626.357 740.771C645.551 781.293 657.91 855.68 657.91 855.68C657.91 855.68 702.921 824.603 724.1 800.522C744.667 777.154 745.154 764.864 749.338 753.56C750.041 751.678 750.834 748.81 751.809 745.397L710.222 693.221L765.075 713.719C769.44 701.826 777.081 699.547 786.945 699.388C795.381 699.252 799.984 702.007 802.954 704.762C806.956 708.47 807.988 712.189 811.367 708.81C841.968 678.209 823.94 651.781 820.233 624.219C820.233 624.219 806.469 580.205 804.167 565.058C796.106 512.008 759.576 457.281 706.299 451.022C698.85 450.149 692.218 449.73 686.254 449.73C654.418 449.719 641.141 461.669 619.781 480.297ZM794.145 183.768C794.87 271.964 742.977 424.571 742.977 424.571C742.977 424.571 789.439 427.485 818.204 487.78C832.126 516.952 837.648 534.559 842.013 565.103C845.187 587.303 856.65 638.289 856.65 638.289C856.65 638.289 871.015 608.142 876.276 599.276C913.94 535.727 912.217 525.693 913.418 517.428C914.858 507.496 907.341 506.022 901.355 514.061C884.53 536.634 864.655 531.657 864.655 531.657C895.38 505.965 902.013 469.571 901.502 441.136C901.31 430.864 888.033 426.85 882.149 435.274C867.217 456.646 844.723 467.655 844.723 467.655C844.723 467.655 840.528 472.904 867.818 408.891C882.001 375.592 877.455 345.139 869.825 323.574C866.321 313.699 852.126 314.141 849.473 324.288C838.589 365.921 807.999 400.501 807.999 400.501C807.999 400.501 825.573 362.123 832.92 269.788C835.754 234.176 821.174 196.602 814.768 179.901C812.965 175.208 808.952 173.076 804.938 173.076C799.508 173.099 794.088 176.999 794.145 183.768ZM457.321 92.3282C426.346 131.194 370.02 227.43 425.337 366.397C425.337 366.397 378.966 321.703 347.9 239.198C344.76 230.854 332.809 231.08 330.066 239.561C318.116 276.432 306.052 352.327 364.215 438.63L296.585 342.44C292.141 336.125 282.413 337.474 279.896 344.764C268.785 376.839 254.669 451.283 325.168 523.539L247.561 445.025C242.538 439.945 233.966 442.054 231.79 448.857C224.363 472.031 219.329 522.042 280.792 579.321C291.064 588.901 319.113 620.409 319.113 620.409L235.758 571.77C230.078 568.448 222.799 571.77 221.665 578.244C217.357 602.779 217.708 657.54 292.209 696.384L305.599 703.867L253.309 690.692C247.776 689.286 242.141 693.073 241.597 698.765C239.93 715.896 248.15 751.043 330.326 779.297L281.721 772.381C276.744 771.678 272.039 774.955 271.098 779.909C268.275 794.705 271.823 825.896 337.866 852.12L387.673 870.204L349.408 868.537C341.891 868.208 336.97 876.371 340.837 882.811C349.181 896.734 367.855 916.314 408.263 922.879C428.625 926.19 526.641 945.532 521.811 929.444C502.423 864.83 495.189 838.208 494.271 772.676C493.523 719.502 514.781 706.452 514.781 706.452C514.781 706.452 496.981 469.424 599.769 437.088C599.769 437.088 474.215 294.05 474.169 98.3373C474.169 92.5097 469.441 88.7568 464.589 88.7568C461.958 88.7568 459.283 89.8566 457.321 92.3282Z" fill="white"/>
</mask>
<g mask="url(#mask1_148_950)">
<path d="M339.023 231.557C339.023 231.557 339.476 481.85 533.67 533.369C533.67 533.369 377.866 517.689 333.478 378.188C289.08 238.688 339.023 231.557 339.023 231.557Z" fill="#B7792A"/>
</g>
<mask id="mask2_148_950" style="mask-type:luminance" maskUnits="userSpaceOnUse" x="220" y="88" width="694" height="932">
<path d="M778.929 744.694C778.929 744.694 756.231 802.041 755.54 817.222C754.859 832.392 632.728 924.852 632.728 924.852C632.728 924.852 624.679 843.979 606.515 786.859C598.908 762.959 557.525 748.912 540.96 781.338C524.407 813.764 566.119 961.643 566.119 961.643C566.119 961.643 582.921 1014.18 607.207 1019.39C631.493 1024.59 745.755 903.208 770.041 857.245C794.326 811.27 796.356 740.533 784.224 742.257C784.224 742.257 783.839 742.166 783.26 742.166C782.081 742.166 780.143 742.529 778.929 744.694ZM813.317 750.034C814.609 759.717 816.424 829.149 797.693 853.05C797.693 853.05 824.938 990.35 873.396 962.573C921.842 934.795 843.407 861.961 825.312 829.013C825.312 829.013 829.405 760.987 819.779 737.767C818.453 734.57 817.274 733.277 816.299 733.277C813.623 733.254 812.365 742.937 813.317 750.034ZM619.781 480.297C570.745 523.04 566.073 584.729 566.436 613.652C567.071 663.64 561.346 716.826 577.921 723.334C588.341 727.415 593.919 723.64 609.769 705.692C624.69 688.799 654.214 673.028 662.365 665.624C697.331 633.822 762.115 537.28 762.115 537.28C762.115 537.28 773.521 547.632 775.743 552.167C781.084 563.04 782.399 638.107 753.17 672.155C740.834 686.52 736.311 690.59 729.542 692.257C723.907 693.651 705.245 687.846 705.245 687.846C705.245 687.846 709.848 736.316 695.188 756.678C678.125 780.374 626.357 740.771 626.357 740.771C645.551 781.293 657.91 855.68 657.91 855.68C657.91 855.68 702.921 824.603 724.1 800.522C744.667 777.154 745.154 764.864 749.338 753.56C750.041 751.678 750.834 748.81 751.809 745.397L710.222 693.221L765.075 713.719C769.44 701.826 777.081 699.547 786.945 699.388C795.381 699.252 799.984 702.007 802.954 704.762C806.956 708.47 807.988 712.189 811.367 708.81C841.968 678.209 823.94 651.781 820.233 624.219C820.233 624.219 806.469 580.205 804.167 565.058C796.106 512.008 759.576 457.281 706.299 451.022C698.85 450.149 692.218 449.73 686.254 449.73C654.418 449.719 641.141 461.669 619.781 480.297ZM794.145 183.768C794.87 271.964 742.977 424.571 742.977 424.571C742.977 424.571 789.439 427.485 818.204 487.78C832.126 516.952 837.648 534.559 842.013 565.103C845.187 587.303 856.65 638.289 856.65 638.289C856.65 638.289 871.015 608.142 876.276 599.276C913.94 535.727 912.217 525.693 913.418 517.428C914.858 507.496 907.341 506.022 901.355 514.061C884.53 536.634 864.655 531.657 864.655 531.657C895.38 505.965 902.013 469.571 901.502 441.136C901.31 430.864 888.033 426.85 882.149 435.274C867.217 456.646 844.723 467.655 844.723 467.655C844.723 467.655 840.528 472.904 867.818 408.891C882.001 375.592 877.455 345.139 869.825 323.574C866.321 313.699 852.126 314.141 849.473 324.288C838.589 365.921 807.999 400.501 807.999 400.501C807.999 400.501 825.573 362.123 832.92 269.788C835.754 234.176 821.174 196.602 814.768 179.901C812.965 175.208 808.952 173.076 804.938 173.076C799.508 173.099 794.088 176.999 794.145 183.768ZM457.321 92.3282C426.346 131.194 370.02 227.43 425.337 366.397C425.337 366.397 378.966 321.703 347.9 239.198C344.76 230.854 332.809 231.08 330.066 239.561C318.116 276.432 306.052 352.327 364.215 438.63L296.585 342.44C292.141 336.125 282.413 337.474 279.896 344.764C268.785 376.839 254.669 451.283 325.168 523.539L247.561 445.025C242.538 439.945 233.966 442.054 231.79 448.857C224.363 472.031 219.329 522.042 280.792 579.321C291.064 588.901 319.113 620.409 319.113 620.409L235.758 571.77C230.078 568.448 222.799 571.77 221.665 578.244C217.357 602.779 217.708 657.54 292.209 696.384L305.599 703.867L253.309 690.692C247.776 689.286 242.141 693.073 241.597 698.765C239.93 715.896 248.15 751.043 330.326 779.297L281.721 772.381C276.744 771.678 272.039 774.955 271.098 779.909C268.275 794.705 271.823 825.896 337.866 852.12L387.673 870.204L349.408 868.537C341.891 868.208 336.97 876.371 340.837 882.811C349.181 896.734 367.855 916.314 408.263 922.879C428.625 926.19 526.641 945.532 521.811 929.444C502.423 864.83 495.189 838.208 494.271 772.676C493.523 719.502 514.781 706.452 514.781 706.452C514.781 706.452 496.981 469.424 599.769 437.088C599.769 437.088 474.215 294.05 474.169 98.3373C474.169 92.5097 469.441 88.7568 464.589 88.7568C461.958 88.7568 459.283 89.8566 457.321 92.3282Z" fill="white"/>
</mask>
<g mask="url(#mask2_148_950)">
<path d="M339.023 231.557C339.023 231.557 339.476 481.85 533.67 533.369C533.67 533.369 377.866 517.689 333.478 378.188C289.08 238.688 339.023 231.557 339.023 231.557Z" fill="#B7792A"/>
</g>
<mask id="mask3_148_950" style="mask-type:luminance" maskUnits="userSpaceOnUse" x="220" y="88" width="694" height="932">
<path d="M778.929 744.694C778.929 744.694 756.231 802.041 755.54 817.222C754.859 832.392 632.728 924.852 632.728 924.852C632.728 924.852 624.679 843.979 606.515 786.859C598.908 762.959 557.525 748.912 540.96 781.338C524.407 813.764 566.119 961.643 566.119 961.643C566.119 961.643 582.921 1014.18 607.207 1019.39C631.493 1024.59 745.755 903.208 770.041 857.245C794.326 811.27 796.356 740.533 784.224 742.257C784.224 742.257 783.839 742.166 783.26 742.166C782.081 742.166 780.143 742.529 778.929 744.694ZM813.317 750.034C814.609 759.717 816.424 829.149 797.693 853.05C797.693 853.05 824.938 990.35 873.396 962.573C921.842 934.795 843.407 861.961 825.312 829.013C825.312 829.013 829.405 760.987 819.779 737.767C818.453 734.57 817.274 733.277 816.299 733.277C813.623 733.254 812.365 742.937 813.317 750.034ZM619.781 480.297C570.745 523.04 566.073 584.729 566.436 613.652C567.071 663.64 561.346 716.826 577.921 723.334C588.341 727.415 593.919 723.64 609.769 705.692C624.69 688.799 654.214 673.028 662.365 665.624C697.331 633.822 762.115 537.28 762.115 537.28C762.115 537.28 773.521 547.632 775.743 552.167C781.084 563.04 782.399 638.107 753.17 672.155C740.834 686.52 736.311 690.59 729.542 692.257C723.907 693.651 705.245 687.846 705.245 687.846C705.245 687.846 709.848 736.316 695.188 756.678C678.125 780.374 626.357 740.771 626.357 740.771C645.551 781.293 657.91 855.68 657.91 855.68C657.91 855.68 702.921 824.603 724.1 800.522C744.667 777.154 745.154 764.864 749.338 753.56C750.041 751.678 750.834 748.81 751.809 745.397L710.222 693.221L765.075 713.719C769.44 701.826 777.081 699.547 786.945 699.388C795.381 699.252 799.984 702.007 802.954 704.762C806.956 708.47 807.988 712.189 811.367 708.81C841.968 678.209 823.94 651.781 820.233 624.219C820.233 624.219 806.469 580.205 804.167 565.058C796.106 512.008 759.576 457.281 706.299 451.022C698.85 450.149 692.218 449.73 686.254 449.73C654.418 449.719 641.141 461.669 619.781 480.297ZM794.145 183.768C794.87 271.964 742.977 424.571 742.977 424.571C742.977 424.571 789.439 427.485 818.204 487.78C832.126 516.952 837.648 534.559 842.013 565.103C845.187 587.303 856.65 638.289 856.65 638.289C856.65 638.289 871.015 608.142 876.276 599.276C913.94 535.727 912.217 525.693 913.418 517.428C914.858 507.496 907.341 506.022 901.355 514.061C884.53 536.634 864.655 531.657 864.655 531.657C895.38 505.965 902.013 469.571 901.502 441.136C901.31 430.864 888.033 426.85 882.149 435.274C867.217 456.646 844.723 467.655 844.723 467.655C844.723 467.655 840.528 472.904 867.818 408.891C882.001 375.592 877.455 345.139 869.825 323.574C866.321 313.699 852.126 314.141 849.473 324.288C838.589 365.921 807.999 400.501 807.999 400.501C807.999 400.501 825.573 362.123 832.92 269.788C835.754 234.176 821.174 196.602 814.768 179.901C812.965 175.208 808.952 173.076 804.938 173.076C799.508 173.099 794.088 176.999 794.145 183.768ZM457.321 92.3282C426.346 131.194 370.02 227.43 425.337 366.397C425.337 366.397 378.966 321.703 347.9 239.198C344.76 230.854 332.809 231.08 330.066 239.561C318.116 276.432 306.052 352.327 364.215 438.63L296.585 342.44C292.141 336.125 282.413 337.474 279.896 344.764C268.785 376.839 254.669 451.283 325.168 523.539L247.561 445.025C242.538 439.945 233.966 442.054 231.79 448.857C224.363 472.031 219.329 522.042 280.792 579.321C291.064 588.901 319.113 620.409 319.113 620.409L235.758 571.77C230.078 568.448 222.799 571.77 221.665 578.244C217.357 602.779 217.708 657.54 292.209 696.384L305.599 703.867L253.309 690.692C247.776 689.286 242.141 693.073 241.597 698.765C239.93 715.896 248.15 751.043 330.326 779.297L281.721 772.381C276.744 771.678 272.039 774.955 271.098 779.909C268.275 794.705 271.823 825.896 337.866 852.12L387.673 870.204L349.408 868.537C341.891 868.208 336.97 876.371 340.837 882.811C349.181 896.734 367.855 916.314 408.263 922.879C428.625 926.19 526.641 945.532 521.811 929.444C502.423 864.83 495.189 838.208 494.271 772.676C493.523 719.502 514.781 706.452 514.781 706.452C514.781 706.452 496.981 469.424 599.769 437.088C599.769 437.088 474.215 294.05 474.169 98.3373C474.169 92.5097 469.441 88.7568 464.589 88.7568C461.958 88.7568 459.283 89.8566 457.321 92.3282Z" fill="white"/>
</mask>
<g mask="url(#mask3_148_950)">
<path d="M271.472 331.363C271.472 331.363 314.975 577.847 515.133 595.194C515.133 595.194 358.954 606.554 291.234 476.771C223.502 346.975 271.472 331.363 271.472 331.363Z" fill="#B7792A"/>
</g>
<mask id="mask4_148_950" style="mask-type:luminance" maskUnits="userSpaceOnUse" x="220" y="88" width="694" height="932">
<path d="M778.929 744.694C778.929 744.694 756.231 802.041 755.54 817.222C754.859 832.392 632.728 924.852 632.728 924.852C632.728 924.852 624.679 843.979 606.515 786.859C598.908 762.959 557.525 748.912 540.96 781.338C524.407 813.764 566.119 961.643 566.119 961.643C566.119 961.643 582.921 1014.18 607.207 1019.39C631.493 1024.59 745.755 903.208 770.041 857.245C794.326 811.27 796.356 740.533 784.224 742.257C784.224 742.257 783.839 742.166 783.26 742.166C782.081 742.166 780.143 742.529 778.929 744.694ZM813.317 750.034C814.609 759.717 816.424 829.149 797.693 853.05C797.693 853.05 824.938 990.35 873.396 962.573C921.842 934.795 843.407 861.961 825.312 829.013C825.312 829.013 829.405 760.987 819.779 737.767C818.453 734.57 817.274 733.277 816.299 733.277C813.623 733.254 812.365 742.937 813.317 750.034ZM619.781 480.297C570.745 523.04 566.073 584.729 566.436 613.652C567.071 663.64 561.346 716.826 577.921 723.334C588.341 727.415 593.919 723.64 609.769 705.692C624.69 688.799 654.214 673.028 662.365 665.624C697.331 633.822 762.115 537.28 762.115 537.28C762.115 537.28 773.521 547.632 775.743 552.167C781.084 563.04 782.399 638.107 753.17 672.155C740.834 686.52 736.311 690.59 729.542 692.257C723.907 693.651 705.245 687.846 705.245 687.846C705.245 687.846 709.848 736.316 695.188 756.678C678.125 780.374 626.357 740.771 626.357 740.771C645.551 781.293 657.91 855.68 657.91 855.68C657.91 855.68 702.921 824.603 724.1 800.522C744.667 777.154 745.154 764.864 749.338 753.56C750.041 751.678 750.834 748.81 751.809 745.397L710.222 693.221L765.075 713.719C769.44 701.826 777.081 699.547 786.945 699.388C795.381 699.252 799.984 702.007 802.954 704.762C806.956 708.47 807.988 712.189 811.367 708.81C841.968 678.209 823.94 651.781 820.233 624.219C820.233 624.219 806.469 580.205 804.167 565.058C796.106 512.008 759.576 457.281 706.299 451.022C698.85 450.149 692.218 449.73 686.254 449.73C654.418 449.719 641.141 461.669 619.781 480.297ZM794.145 183.768C794.87 271.964 742.977 424.571 742.977 424.571C742.977 424.571 789.439 427.485 818.204 487.78C832.126 516.952 837.648 534.559 842.013 565.103C845.187 587.303 856.65 638.289 856.65 638.289C856.65 638.289 871.015 608.142 876.276 599.276C913.94 535.727 912.217 525.693 913.418 517.428C914.858 507.496 907.341 506.022 901.355 514.061C884.53 536.634 864.655 531.657 864.655 531.657C895.38 505.965 902.013 469.571 901.502 441.136C901.31 430.864 888.033 426.85 882.149 435.274C867.217 456.646 844.723 467.655 844.723 467.655C844.723 467.655 840.528 472.904 867.818 408.891C882.001 375.592 877.455 345.139 869.825 323.574C866.321 313.699 852.126 314.141 849.473 324.288C838.589 365.921 807.999 400.501 807.999 400.501C807.999 400.501 825.573 362.123 832.92 269.788C835.754 234.176 821.174 196.602 814.768 179.901C812.965 175.208 808.952 173.076 804.938 173.076C799.508 173.099 794.088 176.999 794.145 183.768ZM457.321 92.3282C426.346 131.194 370.02 227.43 425.337 366.397C425.337 366.397 378.966 321.703 347.9 239.198C344.76 230.854 332.809 231.08 330.066 239.561C318.116 276.432 306.052 352.327 364.215 438.63L296.585 342.44C292.141 336.125 282.413 337.474 279.896 344.764C268.785 376.839 254.669 451.283 325.168 523.539L247.561 445.025C242.538 439.945 233.966 442.054 231.79 448.857C224.363 472.031 219.329 522.042 280.792 579.321C291.064 588.901 319.113 620.409 319.113 620.409L235.758 571.77C230.078 568.448 222.799 571.77 221.665 578.244C217.357 602.779 217.708 657.54 292.209 696.384L305.599 703.867L253.309 690.692C247.776 689.286 242.141 693.073 241.597 698.765C239.93 715.896 248.15 751.043 330.326 779.297L281.721 772.381C276.744 771.678 272.039 774.955 271.098 779.909C268.275 794.705 271.823 825.896 337.866 852.12L387.673 870.204L349.408 868.537C341.891 868.208 336.97 876.371 340.837 882.811C349.181 896.734 367.855 916.314 408.263 922.879C428.625 926.19 526.641 945.532 521.811 929.444C502.423 864.83 495.189 838.208 494.271 772.676C493.523 719.502 514.781 706.452 514.781 706.452C514.781 706.452 496.981 469.424 599.769 437.088C599.769 437.088 474.215 294.05 474.169 98.3373C474.169 92.5097 469.441 88.7568 464.589 88.7568C461.958 88.7568 459.283 89.8566 457.321 92.3282Z" fill="white"/>
</mask>
<g mask="url(#mask4_148_950)">
<path d="M228.309 440.898C228.309 440.898 257.356 643.448 527.638 651.792C527.638 651.792 368.331 691.599 273.637 579.956C178.944 468.313 228.309 440.898 228.309 440.898Z" fill="#B7792A"/>
</g>
<mask id="mask5_148_950" style="mask-type:luminance" maskUnits="userSpaceOnUse" x="220" y="88" width="694" height="932">
<path d="M778.929 744.694C778.929 744.694 756.231 802.041 755.54 817.222C754.859 832.392 632.728 924.852 632.728 924.852C632.728 924.852 624.679 843.979 606.515 786.859C598.908 762.959 557.525 748.912 540.96 781.338C524.407 813.764 566.119 961.643 566.119 961.643C566.119 961.643 582.921 1014.18 607.207 1019.39C631.493 1024.59 745.755 903.208 770.041 857.245C794.326 811.27 796.356 740.533 784.224 742.257C784.224 742.257 783.839 742.166 783.26 742.166C782.081 742.166 780.143 742.529 778.929 744.694ZM813.317 750.034C814.609 759.717 816.424 829.149 797.693 853.05C797.693 853.05 824.938 990.35 873.396 962.573C921.842 934.795 843.407 861.961 825.312 829.013C825.312 829.013 829.405 760.987 819.779 737.767C818.453 734.57 817.274 733.277 816.299 733.277C813.623 733.254 812.365 742.937 813.317 750.034ZM619.781 480.297C570.745 523.04 566.073 584.729 566.436 613.652C567.071 663.64 561.346 716.826 577.921 723.334C588.341 727.415 593.919 723.64 609.769 705.692C624.69 688.799 654.214 673.028 662.365 665.624C697.331 633.822 762.115 537.28 762.115 537.28C762.115 537.28 773.521 547.632 775.743 552.167C781.084 563.04 782.399 638.107 753.17 672.155C740.834 686.52 736.311 690.59 729.542 692.257C723.907 693.651 705.245 687.846 705.245 687.846C705.245 687.846 709.848 736.316 695.188 756.678C678.125 780.374 626.357 740.771 626.357 740.771C645.551 781.293 657.91 855.68 657.91 855.68C657.91 855.68 702.921 824.603 724.1 800.522C744.667 777.154 745.154 764.864 749.338 753.56C750.041 751.678 750.834 748.81 751.809 745.397L710.222 693.221L765.075 713.719C769.44 701.826 777.081 699.547 786.945 699.388C795.381 699.252 799.984 702.007 802.954 704.762C806.956 708.47 807.988 712.189 811.367 708.81C841.968 678.209 823.94 651.781 820.233 624.219C820.233 624.219 806.469 580.205 804.167 565.058C796.106 512.008 759.576 457.281 706.299 451.022C698.85 450.149 692.218 449.73 686.254 449.73C654.418 449.719 641.141 461.669 619.781 480.297ZM794.145 183.768C794.87 271.964 742.977 424.571 742.977 424.571C742.977 424.571 789.439 427.485 818.204 487.78C832.126 516.952 837.648 534.559 842.013 565.103C845.187 587.303 856.65 638.289 856.65 638.289C856.65 638.289 871.015 608.142 876.276 599.276C913.94 535.727 912.217 525.693 913.418 517.428C914.858 507.496 907.341 506.022 901.355 514.061C884.53 536.634 864.655 531.657 864.655 531.657C895.38 505.965 902.013 469.571 901.502 441.136C901.31 430.864 888.033 426.85 882.149 435.274C867.217 456.646 844.723 467.655 844.723 467.655C844.723 467.655 840.528 472.904 867.818 408.891C882.001 375.592 877.455 345.139 869.825 323.574C866.321 313.699 852.126 314.141 849.473 324.288C838.589 365.921 807.999 400.501 807.999 400.501C807.999 400.501 825.573 362.123 832.92 269.788C835.754 234.176 821.174 196.602 814.768 179.901C812.965 175.208 808.952 173.076 804.938 173.076C799.508 173.099 794.088 176.999 794.145 183.768ZM457.321 92.3282C426.346 131.194 370.02 227.43 425.337 366.397C425.337 366.397 378.966 321.703 347.9 239.198C344.76 230.854 332.809 231.08 330.066 239.561C318.116 276.432 306.052 352.327 364.215 438.63L296.585 342.44C292.141 336.125 282.413 337.474 279.896 344.764C268.785 376.839 254.669 451.283 325.168 523.539L247.561 445.025C242.538 439.945 233.966 442.054 231.79 448.857C224.363 472.031 219.329 522.042 280.792 579.321C291.064 588.901 319.113 620.409 319.113 620.409L235.758 571.77C230.078 568.448 222.799 571.77 221.665 578.244C217.357 602.779 217.708 657.54 292.209 696.384L305.599 703.867L253.309 690.692C247.776 689.286 242.141 693.073 241.597 698.765C239.93 715.896 248.15 751.043 330.326 779.297L281.721 772.381C276.744 771.678 272.039 774.955 271.098 779.909C268.275 794.705 271.823 825.896 337.866 852.12L387.673 870.204L349.408 868.537C341.891 868.208 336.97 876.371 340.837 882.811C349.181 896.734 367.855 916.314 408.263 922.879C428.625 926.19 526.641 945.532 521.811 929.444C502.423 864.83 495.189 838.208 494.271 772.676C493.523 719.502 514.781 706.452 514.781 706.452C514.781 706.452 496.981 469.424 599.769 437.088C599.769 437.088 474.215 294.05 474.169 98.3373C474.169 92.5097 469.441 88.7568 464.589 88.7568C461.958 88.7568 459.283 89.8566 457.321 92.3282Z" fill="white"/>
</mask>
<g mask="url(#mask5_148_950)">
<path d="M463.443 87.9746C463.443 87.9746 389.079 365.275 545.722 491.079C545.722 491.079 386.017 416.839 398.942 219.765C408.512 73.7003 463.443 87.9746 463.443 87.9746Z" fill="#B7792A"/>
</g>
<mask id="mask6_148_950" style="mask-type:luminance" maskUnits="userSpaceOnUse" x="220" y="88" width="694" height="932">
<path d="M778.929 744.694C778.929 744.694 756.231 802.041 755.54 817.222C754.859 832.392 632.728 924.852 632.728 924.852C632.728 924.852 624.679 843.979 606.515 786.859C598.908 762.959 557.525 748.912 540.96 781.338C524.407 813.764 566.119 961.643 566.119 961.643C566.119 961.643 582.921 1014.18 607.207 1019.39C631.493 1024.59 745.755 903.208 770.041 857.245C794.326 811.27 796.356 740.533 784.224 742.257C784.224 742.257 783.839 742.166 783.26 742.166C782.081 742.166 780.143 742.529 778.929 744.694ZM813.317 750.034C814.609 759.717 816.424 829.149 797.693 853.05C797.693 853.05 824.938 990.35 873.396 962.573C921.842 934.795 843.407 861.961 825.312 829.013C825.312 829.013 829.405 760.987 819.779 737.767C818.453 734.57 817.274 733.277 816.299 733.277C813.623 733.254 812.365 742.937 813.317 750.034ZM619.781 480.297C570.745 523.04 566.073 584.729 566.436 613.652C567.071 663.64 561.346 716.826 577.921 723.334C588.341 727.415 593.919 723.64 609.769 705.692C624.69 688.799 654.214 673.028 662.365 665.624C697.331 633.822 762.115 537.28 762.115 537.28C762.115 537.28 773.521 547.632 775.743 552.167C781.084 563.04 782.399 638.107 753.17 672.155C740.834 686.52 736.311 690.59 729.542 692.257C723.907 693.651 705.245 687.846 705.245 687.846C705.245 687.846 709.848 736.316 695.188 756.678C678.125 780.374 626.357 740.771 626.357 740.771C645.551 781.293 657.91 855.68 657.91 855.68C657.91 855.68 702.921 824.603 724.1 800.522C744.667 777.154 745.154 764.864 749.338 753.56C750.041 751.678 750.834 748.81 751.809 745.397L710.222 693.221L765.075 713.719C769.44 701.826 777.081 699.547 786.945 699.388C795.381 699.252 799.984 702.007 802.954 704.762C806.956 708.47 807.988 712.189 811.367 708.81C841.968 678.209 823.94 651.781 820.233 624.219C820.233 624.219 806.469 580.205 804.167 565.058C796.106 512.008 759.576 457.281 706.299 451.022C698.85 450.149 692.218 449.73 686.254 449.73C654.418 449.719 641.141 461.669 619.781 480.297ZM794.145 183.768C794.87 271.964 742.977 424.571 742.977 424.571C742.977 424.571 789.439 427.485 818.204 487.78C832.126 516.952 837.648 534.559 842.013 565.103C845.187 587.303 856.65 638.289 856.65 638.289C856.65 638.289 871.015 608.142 876.276 599.276C913.94 535.727 912.217 525.693 913.418 517.428C914.858 507.496 907.341 506.022 901.355 514.061C884.53 536.634 864.655 531.657 864.655 531.657C895.38 505.965 902.013 469.571 901.502 441.136C901.31 430.864 888.033 426.85 882.149 435.274C867.217 456.646 844.723 467.655 844.723 467.655C844.723 467.655 840.528 472.904 867.818 408.891C882.001 375.592 877.455 345.139 869.825 323.574C866.321 313.699 852.126 314.141 849.473 324.288C838.589 365.921 807.999 400.501 807.999 400.501C807.999 400.501 825.573 362.123 832.92 269.788C835.754 234.176 821.174 196.602 814.768 179.901C812.965 175.208 808.952 173.076 804.938 173.076C799.508 173.099 794.088 176.999 794.145 183.768ZM457.321 92.3282C426.346 131.194 370.02 227.43 425.337 366.397C425.337 366.397 378.966 321.703 347.9 239.198C344.76 230.854 332.809 231.08 330.066 239.561C318.116 276.432 306.052 352.327 364.215 438.63L296.585 342.44C292.141 336.125 282.413 337.474 279.896 344.764C268.785 376.839 254.669 451.283 325.168 523.539L247.561 445.025C242.538 439.945 233.966 442.054 231.79 448.857C224.363 472.031 219.329 522.042 280.792 579.321C291.064 588.901 319.113 620.409 319.113 620.409L235.758 571.77C230.078 568.448 222.799 571.77 221.665 578.244C217.357 602.779 217.708 657.54 292.209 696.384L305.599 703.867L253.309 690.692C247.776 689.286 242.141 693.073 241.597 698.765C239.93 715.896 248.15 751.043 330.326 779.297L281.721 772.381C276.744 771.678 272.039 774.955 271.098 779.909C268.275 794.705 271.823 825.896 337.866 852.12L387.673 870.204L349.408 868.537C341.891 868.208 336.97 876.371 340.837 882.811C349.181 896.734 367.855 916.314 408.263 922.879C428.625 926.19 526.641 945.532 521.811 929.444C502.423 864.83 495.189 838.208 494.271 772.676C493.523 719.502 514.781 706.452 514.781 706.452C514.781 706.452 496.981 469.424 599.769 437.088C599.769 437.088 474.215 294.05 474.169 98.3373C474.169 92.5097 469.441 88.7568 464.589 88.7568C461.958 88.7568 459.283 89.8566 457.321 92.3282Z" fill="white"/>
</mask>
<g mask="url(#mask6_148_950)">
<path d="M167.232 523.052C167.232 523.052 217.787 721.327 487.423 700.681C487.423 700.681 333.297 757.313 227.186 656.452C121.087 555.602 167.232 523.052 167.232 523.052Z" fill="#B97D2B"/>
</g>
<mask id="mask7_148_950" style="mask-type:luminance" maskUnits="userSpaceOnUse" x="220" y="88" width="694" height="932">
<path d="M778.929 744.694C778.929 744.694 756.231 802.041 755.54 817.222C754.859 832.392 632.728 924.852 632.728 924.852C632.728 924.852 624.679 843.979 606.515 786.859C598.908 762.959 557.525 748.912 540.96 781.338C524.407 813.764 566.119 961.643 566.119 961.643C566.119 961.643 582.921 1014.18 607.207 1019.39C631.493 1024.59 745.755 903.208 770.041 857.245C794.326 811.27 796.356 740.533 784.224 742.257C784.224 742.257 783.839 742.166 783.26 742.166C782.081 742.166 780.143 742.529 778.929 744.694ZM813.317 750.034C814.609 759.717 816.424 829.149 797.693 853.05C797.693 853.05 824.938 990.35 873.396 962.573C921.842 934.795 843.407 861.961 825.312 829.013C825.312 829.013 829.405 760.987 819.779 737.767C818.453 734.57 817.274 733.277 816.299 733.277C813.623 733.254 812.365 742.937 813.317 750.034ZM619.781 480.297C570.745 523.04 566.073 584.729 566.436 613.652C567.071 663.64 561.346 716.826 577.921 723.334C588.341 727.415 593.919 723.64 609.769 705.692C624.69 688.799 654.214 673.028 662.365 665.624C697.331 633.822 762.115 537.28 762.115 537.28C762.115 537.28 773.521 547.632 775.743 552.167C781.084 563.04 782.399 638.107 753.17 672.155C740.834 686.52 736.311 690.59 729.542 692.257C723.907 693.651 705.245 687.846 705.245 687.846C705.245 687.846 709.848 736.316 695.188 756.678C678.125 780.374 626.357 740.771 626.357 740.771C645.551 781.293 657.91 855.68 657.91 855.68C657.91 855.68 702.921 824.603 724.1 800.522C744.667 777.154 745.154 764.864 749.338 753.56C750.041 751.678 750.834 748.81 751.809 745.397L710.222 693.221L765.075 713.719C769.44 701.826 777.081 699.547 786.945 699.388C795.381 699.252 799.984 702.007 802.954 704.762C806.956 708.47 807.988 712.189 811.367 708.81C841.968 678.209 823.94 651.781 820.233 624.219C820.233 624.219 806.469 580.205 804.167 565.058C796.106 512.008 759.576 457.281 706.299 451.022C698.85 450.149 692.218 449.73 686.254 449.73C654.418 449.719 641.141 461.669 619.781 480.297ZM794.145 183.768C794.87 271.964 742.977 424.571 742.977 424.571C742.977 424.571 789.439 427.485 818.204 487.78C832.126 516.952 837.648 534.559 842.013 565.103C845.187 587.303 856.65 638.289 856.65 638.289C856.65 638.289 871.015 608.142 876.276 599.276C913.94 535.727 912.217 525.693 913.418 517.428C914.858 507.496 907.341 506.022 901.355 514.061C884.53 536.634 864.655 531.657 864.655 531.657C895.38 505.965 902.013 469.571 901.502 441.136C901.31 430.864 888.033 426.85 882.149 435.274C867.217 456.646 844.723 467.655 844.723 467.655C844.723 467.655 840.528 472.904 867.818 408.891C882.001 375.592 877.455 345.139 869.825 323.574C866.321 313.699 852.126 314.141 849.473 324.288C838.589 365.921 807.999 400.501 807.999 400.501C807.999 400.501 825.573 362.123 832.92 269.788C835.754 234.176 821.174 196.602 814.768 179.901C812.965 175.208 808.952 173.076 804.938 173.076C799.508 173.099 794.088 176.999 794.145 183.768ZM457.321 92.3282C426.346 131.194 370.02 227.43 425.337 366.397C425.337 366.397 378.966 321.703 347.9 239.198C344.76 230.854 332.809 231.08 330.066 239.561C318.116 276.432 306.052 352.327 364.215 438.63L296.585 342.44C292.141 336.125 282.413 337.474 279.896 344.764C268.785 376.839 254.669 451.283 325.168 523.539L247.561 445.025C242.538 439.945 233.966 442.054 231.79 448.857C224.363 472.031 219.329 522.042 280.792 579.321C291.064 588.901 319.113 620.409 319.113 620.409L235.758 571.77C230.078 568.448 222.799 571.77 221.665 578.244C217.357 602.779 217.708 657.54 292.209 696.384L305.599 703.867L253.309 690.692C247.776 689.286 242.141 693.073 241.597 698.765C239.93 715.896 248.15 751.043 330.326 779.297L281.721 772.381C276.744 771.678 272.039 774.955 271.098 779.909C268.275 794.705 271.823 825.896 337.866 852.12L387.673 870.204L349.408 868.537C341.891 868.208 336.97 876.371 340.837 882.811C349.181 896.734 367.855 916.314 408.263 922.879C428.625 926.19 526.641 945.532 521.811 929.444C502.423 864.83 495.189 838.208 494.271 772.676C493.523 719.502 514.781 706.452 514.781 706.452C514.781 706.452 496.981 469.424 599.769 437.088C599.769 437.088 474.215 294.05 474.169 98.3373C474.169 92.5097 469.441 88.7568 464.589 88.7568C461.958 88.7568 459.283 89.8566 457.321 92.3282Z" fill="white"/>
</mask>
<g mask="url(#mask7_148_950)">
<path d="M191.019 625.103C191.019 625.103 276.154 828.367 471.006 758.855C471.006 758.855 390.043 827.199 266.699 750.295C142.47 672.847 191.019 625.103 191.019 625.103Z" fill="#9E6227"/>
</g>
<mask id="mask8_148_950" style="mask-type:luminance" maskUnits="userSpaceOnUse" x="220" y="88" width="694" height="932">
<path d="M778.929 744.694C778.929 744.694 756.231 802.041 755.54 817.222C754.859 832.392 632.728 924.852 632.728 924.852C632.728 924.852 624.679 843.979 606.515 786.859C598.908 762.959 557.525 748.912 540.96 781.338C524.407 813.764 566.119 961.643 566.119 961.643C566.119 961.643 582.921 1014.18 607.207 1019.39C631.493 1024.59 745.755 903.208 770.041 857.245C794.326 811.27 796.356 740.533 784.224 742.257C784.224 742.257 783.839 742.166 783.26 742.166C782.081 742.166 780.143 742.529 778.929 744.694ZM813.317 750.034C814.609 759.717 816.424 829.149 797.693 853.05C797.693 853.05 824.938 990.35 873.396 962.573C921.842 934.795 843.407 861.961 825.312 829.013C825.312 829.013 829.405 760.987 819.779 737.767C818.453 734.57 817.274 733.277 816.299 733.277C813.623 733.254 812.365 742.937 813.317 750.034ZM619.781 480.297C570.745 523.04 566.073 584.729 566.436 613.652C567.071 663.64 561.346 716.826 577.921 723.334C588.341 727.415 593.919 723.64 609.769 705.692C624.69 688.799 654.214 673.028 662.365 665.624C697.331 633.822 762.115 537.28 762.115 537.28C762.115 537.28 773.521 547.632 775.743 552.167C781.084 563.04 782.399 638.107 753.17 672.155C740.834 686.52 736.311 690.59 729.542 692.257C723.907 693.651 705.245 687.846 705.245 687.846C705.245 687.846 709.848 736.316 695.188 756.678C678.125 780.374 626.357 740.771 626.357 740.771C645.551 781.293 657.91 855.68 657.91 855.68C657.91 855.68 702.921 824.603 724.1 800.522C744.667 777.154 745.154 764.864 749.338 753.56C750.041 751.678 750.834 748.81 751.809 745.397L710.222 693.221L765.075 713.719C769.44 701.826 777.081 699.547 786.945 699.388C795.381 699.252 799.984 702.007 802.954 704.762C806.956 708.47 807.988 712.189 811.367 708.81C841.968 678.209 823.94 651.781 820.233 624.219C820.233 624.219 806.469 580.205 804.167 565.058C796.106 512.008 759.576 457.281 706.299 451.022C698.85 450.149 692.218 449.73 686.254 449.73C654.418 449.719 641.141 461.669 619.781 480.297ZM794.145 183.768C794.87 271.964 742.977 424.571 742.977 424.571C742.977 424.571 789.439 427.485 818.204 487.78C832.126 516.952 837.648 534.559 842.013 565.103C845.187 587.303 856.65 638.289 856.65 638.289C856.65 638.289 871.015 608.142 876.276 599.276C913.94 535.727 912.217 525.693 913.418 517.428C914.858 507.496 907.341 506.022 901.355 514.061C884.53 536.634 864.655 531.657 864.655 531.657C895.38 505.965 902.013 469.571 901.502 441.136C901.31 430.864 888.033 426.85 882.149 435.274C867.217 456.646 844.723 467.655 844.723 467.655C844.723 467.655 840.528 472.904 867.818 408.891C882.001 375.592 877.455 345.139 869.825 323.574C866.321 313.699 852.126 314.141 849.473 324.288C838.589 365.921 807.999 400.501 807.999 400.501C807.999 400.501 825.573 362.123 832.92 269.788C835.754 234.176 821.174 196.602 814.768 179.901C812.965 175.208 808.952 173.076 804.938 173.076C799.508 173.099 794.088 176.999 794.145 183.768ZM457.321 92.3282C426.346 131.194 370.02 227.43 425.337 366.397C425.337 366.397 378.966 321.703 347.9 239.198C344.76 230.854 332.809 231.08 330.066 239.561C318.116 276.432 306.052 352.327 364.215 438.63L296.585 342.44C292.141 336.125 282.413 337.474 279.896 344.764C268.785 376.839 254.669 451.283 325.168 523.539L247.561 445.025C242.538 439.945 233.966 442.054 231.79 448.857C224.363 472.031 219.329 522.042 280.792 579.321C291.064 588.901 319.113 620.409 319.113 620.409L235.758 571.77C230.078 568.448 222.799 571.77 221.665 578.244C217.357 602.779 217.708 657.54 292.209 696.384L305.599 703.867L253.309 690.692C247.776 689.286 242.141 693.073 241.597 698.765C239.93 715.896 248.15 751.043 330.326 779.297L281.721 772.381C276.744 771.678 272.039 774.955 271.098 779.909C268.275 794.705 271.823 825.896 337.866 852.12L387.673 870.204L349.408 868.537C341.891 868.208 336.97 876.371 340.837 882.811C349.181 896.734 367.855 916.314 408.263 922.879C428.625 926.19 526.641 945.532 521.811 929.444C502.423 864.83 495.189 838.208 494.271 772.676C493.523 719.502 514.781 706.452 514.781 706.452C514.781 706.452 496.981 469.424 599.769 437.088C599.769 437.088 474.215 294.05 474.169 98.3373C474.169 92.5097 469.441 88.7568 464.589 88.7568C461.958 88.7568 459.283 89.8566 457.321 92.3282Z" fill="white"/>
</mask>
<g mask="url(#mask8_148_950)">
<path d="M646.765 710.511C646.765 710.511 591.516 639.321 695.359 531.725C749.281 475.852 714.429 425.002 647.547 453.789C580.666 482.576 515.144 631.52 545.62 701.781C576.096 772.041 646.765 710.511 646.765 710.511Z" fill="#9E6227"/>
</g>
<mask id="mask9_148_950" style="mask-type:luminance" maskUnits="userSpaceOnUse" x="220" y="88" width="694" height="932">
<path d="M778.929 744.694C778.929 744.694 756.231 802.041 755.54 817.222C754.859 832.392 632.728 924.852 632.728 924.852C632.728 924.852 624.679 843.979 606.515 786.859C598.908 762.959 557.525 748.912 540.96 781.338C524.407 813.764 566.119 961.643 566.119 961.643C566.119 961.643 582.921 1014.18 607.207 1019.39C631.493 1024.59 745.755 903.208 770.041 857.245C794.326 811.27 796.356 740.533 784.224 742.257C784.224 742.257 783.839 742.166 783.26 742.166C782.081 742.166 780.143 742.529 778.929 744.694ZM813.317 750.034C814.609 759.717 816.424 829.149 797.693 853.05C797.693 853.05 824.938 990.35 873.396 962.573C921.842 934.795 843.407 861.961 825.312 829.013C825.312 829.013 829.405 760.987 819.779 737.767C818.453 734.57 817.274 733.277 816.299 733.277C813.623 733.254 812.365 742.937 813.317 750.034ZM619.781 480.297C570.745 523.04 566.073 584.729 566.436 613.652C567.071 663.64 561.346 716.826 577.921 723.334C588.341 727.415 593.919 723.64 609.769 705.692C624.69 688.799 654.214 673.028 662.365 665.624C697.331 633.822 762.115 537.28 762.115 537.28C762.115 537.28 773.521 547.632 775.743 552.167C781.084 563.04 782.399 638.107 753.17 672.155C740.834 686.52 736.311 690.59 729.542 692.257C723.907 693.651 705.245 687.846 705.245 687.846C705.245 687.846 709.848 736.316 695.188 756.678C678.125 780.374 626.357 740.771 626.357 740.771C645.551 781.293 657.91 855.68 657.91 855.68C657.91 855.68 702.921 824.603 724.1 800.522C744.667 777.154 745.154 764.864 749.338 753.56C750.041 751.678 750.834 748.81 751.809 745.397L710.222 693.221L765.075 713.719C769.44 701.826 777.081 699.547 786.945 699.388C795.381 699.252 799.984 702.007 802.954 704.762C806.956 708.47 807.988 712.189 811.367 708.81C841.968 678.209 823.94 651.781 820.233 624.219C820.233 624.219 806.469 580.205 804.167 565.058C796.106 512.008 759.576 457.281 706.299 451.022C698.85 450.149 692.218 449.73 686.254 449.73C654.418 449.719 641.141 461.669 619.781 480.297ZM794.145 183.768C794.87 271.964 742.977 424.571 742.977 424.571C742.977 424.571 789.439 427.485 818.204 487.78C832.126 516.952 837.648 534.559 842.013 565.103C845.187 587.303 856.65 638.289 856.65 638.289C856.65 638.289 871.015 608.142 876.276 599.276C913.94 535.727 912.217 525.693 913.418 517.428C914.858 507.496 907.341 506.022 901.355 514.061C884.53 536.634 864.655 531.657 864.655 531.657C895.38 505.965 902.013 469.571 901.502 441.136C901.31 430.864 888.033 426.85 882.149 435.274C867.217 456.646 844.723 467.655 844.723 467.655C844.723 467.655 840.528 472.904 867.818 408.891C882.001 375.592 877.455 345.139 869.825 323.574C866.321 313.699 852.126 314.141 849.473 324.288C838.589 365.921 807.999 400.501 807.999 400.501C807.999 400.501 825.573 362.123 832.92 269.788C835.754 234.176 821.174 196.602 814.768 179.901C812.965 175.208 808.952 173.076 804.938 173.076C799.508 173.099 794.088 176.999 794.145 183.768ZM457.321 92.3282C426.346 131.194 370.02 227.43 425.337 366.397C425.337 366.397 378.966 321.703 347.9 239.198C344.76 230.854 332.809 231.08 330.066 239.561C318.116 276.432 306.052 352.327 364.215 438.63L296.585 342.44C292.141 336.125 282.413 337.474 279.896 344.764C268.785 376.839 254.669 451.283 325.168 523.539L247.561 445.025C242.538 439.945 233.966 442.054 231.79 448.857C224.363 472.031 219.329 522.042 280.792 579.321C291.064 588.901 319.113 620.409 319.113 620.409L235.758 571.77C230.078 568.448 222.799 571.77 221.665 578.244C217.357 602.779 217.708 657.54 292.209 696.384L305.599 703.867L253.309 690.692C247.776 689.286 242.141 693.073 241.597 698.765C239.93 715.896 248.15 751.043 330.326 779.297L281.721 772.381C276.744 771.678 272.039 774.955 271.098 779.909C268.275 794.705 271.823 825.896 337.866 852.12L387.673 870.204L349.408 868.537C341.891 868.208 336.97 876.371 340.837 882.811C349.181 896.734 367.855 916.314 408.263 922.879C428.625 926.19 526.641 945.532 521.811 929.444C502.423 864.83 495.189 838.208 494.271 772.676C493.523 719.502 514.781 706.452 514.781 706.452C514.781 706.452 496.981 469.424 599.769 437.088C599.769 437.088 474.215 294.05 474.169 98.3373C474.169 92.5097 469.441 88.7568 464.589 88.7568C461.958 88.7568 459.283 89.8566 457.321 92.3282Z" fill="white"/>
</mask>
<g mask="url(#mask9_148_950)">
<path d="M740.268 457.564C740.268 457.564 794.224 517.984 795.301 568.709C796.378 619.423 833.124 670.624 800.743 691.123C768.374 711.622 800.687 744.581 820.108 720.851C839.53 697.11 856.798 679.842 836.299 608.629C815.789 537.405 789.893 456.487 740.268 457.564Z" fill="#FFE9BC"/>
</g>
<mask id="mask10_148_950" style="mask-type:luminance" maskUnits="userSpaceOnUse" x="220" y="88" width="694" height="932">
<path d="M778.929 744.694C778.929 744.694 756.231 802.041 755.54 817.222C754.859 832.392 632.728 924.852 632.728 924.852C632.728 924.852 624.679 843.979 606.515 786.859C598.908 762.959 557.525 748.912 540.96 781.338C524.407 813.764 566.119 961.643 566.119 961.643C566.119 961.643 582.921 1014.18 607.207 1019.39C631.493 1024.59 745.755 903.208 770.041 857.245C794.326 811.27 796.356 740.533 784.224 742.257C784.224 742.257 783.839 742.166 783.26 742.166C782.081 742.166 780.143 742.529 778.929 744.694ZM813.317 750.034C814.609 759.717 816.424 829.149 797.693 853.05C797.693 853.05 824.938 990.35 873.396 962.573C921.842 934.795 843.407 861.961 825.312 829.013C825.312 829.013 829.405 760.987 819.779 737.767C818.453 734.57 817.274 733.277 816.299 733.277C813.623 733.254 812.365 742.937 813.317 750.034ZM619.781 480.297C570.745 523.04 566.073 584.729 566.436 613.652C567.071 663.64 561.346 716.826 577.921 723.334C588.341 727.415 593.919 723.64 609.769 705.692C624.69 688.799 654.214 673.028 662.365 665.624C697.331 633.822 762.115 537.28 762.115 537.28C762.115 537.28 773.521 547.632 775.743 552.167C781.084 563.04 782.399 638.107 753.17 672.155C740.834 686.52 736.311 690.59 729.542 692.257C723.907 693.651 705.245 687.846 705.245 687.846C705.245 687.846 709.848 736.316 695.188 756.678C678.125 780.374 626.357 740.771 626.357 740.771C645.551 781.293 657.91 855.68 657.91 855.68C657.91 855.68 702.921 824.603 724.1 800.522C744.667 777.154 745.154 764.864 749.338 753.56C750.041 751.678 750.834 748.81 751.809 745.397L710.222 693.221L765.075 713.719C769.44 701.826 777.081 699.547 786.945 699.388C795.381 699.252 799.984 702.007 802.954 704.762C806.956 708.47 807.988 712.189 811.367 708.81C841.968 678.209 823.94 651.781 820.233 624.219C820.233 624.219 806.469 580.205 804.167 565.058C796.106 512.008 759.576 457.281 706.299 451.022C698.85 450.149 692.218 449.73 686.254 449.73C654.418 449.719 641.141 461.669 619.781 480.297ZM794.145 183.768C794.87 271.964 742.977 424.571 742.977 424.571C742.977 424.571 789.439 427.485 818.204 487.78C832.126 516.952 837.648 534.559 842.013 565.103C845.187 587.303 856.65 638.289 856.65 638.289C856.65 638.289 871.015 608.142 876.276 599.276C913.94 535.727 912.217 525.693 913.418 517.428C914.858 507.496 907.341 506.022 901.355 514.061C884.53 536.634 864.655 531.657 864.655 531.657C895.38 505.965 902.013 469.571 901.502 441.136C901.31 430.864 888.033 426.85 882.149 435.274C867.217 456.646 844.723 467.655 844.723 467.655C844.723 467.655 840.528 472.904 867.818 408.891C882.001 375.592 877.455 345.139 869.825 323.574C866.321 313.699 852.126 314.141 849.473 324.288C838.589 365.921 807.999 400.501 807.999 400.501C807.999 400.501 825.573 362.123 832.92 269.788C835.754 234.176 821.174 196.602 814.768 179.901C812.965 175.208 808.952 173.076 804.938 173.076C799.508 173.099 794.088 176.999 794.145 183.768ZM457.321 92.3282C426.346 131.194 370.02 227.43 425.337 366.397C425.337 366.397 378.966 321.703 347.9 239.198C344.76 230.854 332.809 231.08 330.066 239.561C318.116 276.432 306.052 352.327 364.215 438.63L296.585 342.44C292.141 336.125 282.413 337.474 279.896 344.764C268.785 376.839 254.669 451.283 325.168 523.539L247.561 445.025C242.538 439.945 233.966 442.054 231.79 448.857C224.363 472.031 219.329 522.042 280.792 579.321C291.064 588.901 319.113 620.409 319.113 620.409L235.758 571.77C230.078 568.448 222.799 571.77 221.665 578.244C217.357 602.779 217.708 657.54 292.209 696.384L305.599 703.867L253.309 690.692C247.776 689.286 242.141 693.073 241.597 698.765C239.93 715.896 248.15 751.043 330.326 779.297L281.721 772.381C276.744 771.678 272.039 774.955 271.098 779.909C268.275 794.705 271.823 825.896 337.866 852.12L387.673 870.204L349.408 868.537C341.891 868.208 336.97 876.371 340.837 882.811C349.181 896.734 367.855 916.314 408.263 922.879C428.625 926.19 526.641 945.532 521.811 929.444C502.423 864.83 495.189 838.208 494.271 772.676C493.523 719.502 514.781 706.452 514.781 706.452C514.781 706.452 496.981 469.424 599.769 437.088C599.769 437.088 474.215 294.05 474.169 98.3373C474.169 92.5097 469.441 88.7568 464.589 88.7568C461.958 88.7568 459.283 89.8566 457.321 92.3282Z" fill="white"/>
</mask>
<g mask="url(#mask10_148_950)">
<path d="M848.975 622.144C848.975 622.144 907.829 557.723 908.634 509.99C909.428 462.27 977.035 530.671 934.881 589.525C892.727 648.38 868.872 686.554 860.12 657.926L848.975 622.144Z" fill="white"/>
</g>
<mask id="mask11_148_950" style="mask-type:luminance" maskUnits="userSpaceOnUse" x="220" y="88" width="694" height="932">
<path d="M778.929 744.694C778.929 744.694 756.231 802.041 755.54 817.222C754.859 832.392 632.728 924.852 632.728 924.852C632.728 924.852 624.679 843.979 606.515 786.859C598.908 762.959 557.525 748.912 540.96 781.338C524.407 813.764 566.119 961.643 566.119 961.643C566.119 961.643 582.921 1014.18 607.207 1019.39C631.493 1024.59 745.755 903.208 770.041 857.245C794.326 811.27 796.356 740.533 784.224 742.257C784.224 742.257 783.839 742.166 783.26 742.166C782.081 742.166 780.143 742.529 778.929 744.694ZM813.317 750.034C814.609 759.717 816.424 829.149 797.693 853.05C797.693 853.05 824.938 990.35 873.396 962.573C921.842 934.795 843.407 861.961 825.312 829.013C825.312 829.013 829.405 760.987 819.779 737.767C818.453 734.57 817.274 733.277 816.299 733.277C813.623 733.254 812.365 742.937 813.317 750.034ZM619.781 480.297C570.745 523.04 566.073 584.729 566.436 613.652C567.071 663.64 561.346 716.826 577.921 723.334C588.341 727.415 593.919 723.64 609.769 705.692C624.69 688.799 654.214 673.028 662.365 665.624C697.331 633.822 762.115 537.28 762.115 537.28C762.115 537.28 773.521 547.632 775.743 552.167C781.084 563.04 782.399 638.107 753.17 672.155C740.834 686.52 736.311 690.59 729.542 692.257C723.907 693.651 705.245 687.846 705.245 687.846C705.245 687.846 709.848 736.316 695.188 756.678C678.125 780.374 626.357 740.771 626.357 740.771C645.551 781.293 657.91 855.68 657.91 855.68C657.91 855.68 702.921 824.603 724.1 800.522C744.667 777.154 745.154 764.864 749.338 753.56C750.041 751.678 750.834 748.81 751.809 745.397L710.222 693.221L765.075 713.719C769.44 701.826 777.081 699.547 786.945 699.388C795.381 699.252 799.984 702.007 802.954 704.762C806.956 708.47 807.988 712.189 811.367 708.81C841.968 678.209 823.94 651.781 820.233 624.219C820.233 624.219 806.469 580.205 804.167 565.058C796.106 512.008 759.576 457.281 706.299 451.022C698.85 450.149 692.218 449.73 686.254 449.73C654.418 449.719 641.141 461.669 619.781 480.297ZM794.145 183.768C794.87 271.964 742.977 424.571 742.977 424.571C742.977 424.571 789.439 427.485 818.204 487.78C832.126 516.952 837.648 534.559 842.013 565.103C845.187 587.303 856.65 638.289 856.65 638.289C856.65 638.289 871.015 608.142 876.276 599.276C913.94 535.727 912.217 525.693 913.418 517.428C914.858 507.496 907.341 506.022 901.355 514.061C884.53 536.634 864.655 531.657 864.655 531.657C895.38 505.965 902.013 469.571 901.502 441.136C901.31 430.864 888.033 426.85 882.149 435.274C867.217 456.646 844.723 467.655 844.723 467.655C844.723 467.655 840.528 472.904 867.818 408.891C882.001 375.592 877.455 345.139 869.825 323.574C866.321 313.699 852.126 314.141 849.473 324.288C838.589 365.921 807.999 400.501 807.999 400.501C807.999 400.501 825.573 362.123 832.92 269.788C835.754 234.176 821.174 196.602 814.768 179.901C812.965 175.208 808.952 173.076 804.938 173.076C799.508 173.099 794.088 176.999 794.145 183.768ZM457.321 92.3282C426.346 131.194 370.02 227.43 425.337 366.397C425.337 366.397 378.966 321.703 347.9 239.198C344.76 230.854 332.809 231.08 330.066 239.561C318.116 276.432 306.052 352.327 364.215 438.63L296.585 342.44C292.141 336.125 282.413 337.474 279.896 344.764C268.785 376.839 254.669 451.283 325.168 523.539L247.561 445.025C242.538 439.945 233.966 442.054 231.79 448.857C224.363 472.031 219.329 522.042 280.792 579.321C291.064 588.901 319.113 620.409 319.113 620.409L235.758 571.77C230.078 568.448 222.799 571.77 221.665 578.244C217.357 602.779 217.708 657.54 292.209 696.384L305.599 703.867L253.309 690.692C247.776 689.286 242.141 693.073 241.597 698.765C239.93 715.896 248.15 751.043 330.326 779.297L281.721 772.381C276.744 771.678 272.039 774.955 271.098 779.909C268.275 794.705 271.823 825.896 337.866 852.12L387.673 870.204L349.408 868.537C341.891 868.208 336.97 876.371 340.837 882.811C349.181 896.734 367.855 916.314 408.263 922.879C428.625 926.19 526.641 945.532 521.811 929.444C502.423 864.83 495.189 838.208 494.271 772.676C493.523 719.502 514.781 706.452 514.781 706.452C514.781 706.452 496.981 469.424 599.769 437.088C599.769 437.088 474.215 294.05 474.169 98.3373C474.169 92.5097 469.441 88.7568 464.589 88.7568C461.958 88.7568 459.283 89.8566 457.321 92.3282Z" fill="white"/>
</mask>
<g mask="url(#mask11_148_950)">
<path d="M864.654 531.668C864.654 531.668 903.362 475.875 891.888 427.451C880.414 379.027 912.908 414.072 909.087 441.465C905.266 468.868 903.985 505.183 895.074 514.106C886.151 523.029 864.654 531.668 864.654 531.668Z" fill="white"/>
</g>
<mask id="mask12_148_950" style="mask-type:luminance" maskUnits="userSpaceOnUse" x="220" y="88" width="694" height="932">
<path d="M778.929 744.694C778.929 744.694 756.231 802.041 755.54 817.222C754.859 832.392 632.728 924.852 632.728 924.852C632.728 924.852 624.679 843.979 606.515 786.859C598.908 762.959 557.525 748.912 540.96 781.338C524.407 813.764 566.119 961.643 566.119 961.643C566.119 961.643 582.921 1014.18 607.207 1019.39C631.493 1024.59 745.755 903.208 770.041 857.245C794.326 811.27 796.356 740.533 784.224 742.257C784.224 742.257 783.839 742.166 783.26 742.166C782.081 742.166 780.143 742.529 778.929 744.694ZM813.317 750.034C814.609 759.717 816.424 829.149 797.693 853.05C797.693 853.05 824.938 990.35 873.396 962.573C921.842 934.795 843.407 861.961 825.312 829.013C825.312 829.013 829.405 760.987 819.779 737.767C818.453 734.57 817.274 733.277 816.299 733.277C813.623 733.254 812.365 742.937 813.317 750.034ZM619.781 480.297C570.745 523.04 566.073 584.729 566.436 613.652C567.071 663.64 561.346 716.826 577.921 723.334C588.341 727.415 593.919 723.64 609.769 705.692C624.69 688.799 654.214 673.028 662.365 665.624C697.331 633.822 762.115 537.28 762.115 537.28C762.115 537.28 773.521 547.632 775.743 552.167C781.084 563.04 782.399 638.107 753.17 672.155C740.834 686.52 736.311 690.59 729.542 692.257C723.907 693.651 705.245 687.846 705.245 687.846C705.245 687.846 709.848 736.316 695.188 756.678C678.125 780.374 626.357 740.771 626.357 740.771C645.551 781.293 657.91 855.68 657.91 855.68C657.91 855.68 702.921 824.603 724.1 800.522C744.667 777.154 745.154 764.864 749.338 753.56C750.041 751.678 750.834 748.81 751.809 745.397L710.222 693.221L765.075 713.719C769.44 701.826 777.081 699.547 786.945 699.388C795.381 699.252 799.984 702.007 802.954 704.762C806.956 708.47 807.988 712.189 811.367 708.81C841.968 678.209 823.94 651.781 820.233 624.219C820.233 624.219 806.469 580.205 804.167 565.058C796.106 512.008 759.576 457.281 706.299 451.022C698.85 450.149 692.218 449.73 686.254 449.73C654.418 449.719 641.141 461.669 619.781 480.297ZM794.145 183.768C794.87 271.964 742.977 424.571 742.977 424.571C742.977 424.571 789.439 427.485 818.204 487.78C832.126 516.952 837.648 534.559 842.013 565.103C845.187 587.303 856.65 638.289 856.65 638.289C856.65 638.289 871.015 608.142 876.276 599.276C913.94 535.727 912.217 525.693 913.418 517.428C914.858 507.496 907.341 506.022 901.355 514.061C884.53 536.634 864.655 531.657 864.655 531.657C895.38 505.965 902.013 469.571 901.502 441.136C901.31 430.864 888.033 426.85 882.149 435.274C867.217 456.646 844.723 467.655 844.723 467.655C844.723 467.655 840.528 472.904 867.818 408.891C882.001 375.592 877.455 345.139 869.825 323.574C866.321 313.699 852.126 314.141 849.473 324.288C838.589 365.921 807.999 400.501 807.999 400.501C807.999 400.501 825.573 362.123 832.92 269.788C835.754 234.176 821.174 196.602 814.768 179.901C812.965 175.208 808.952 173.076 804.938 173.076C799.508 173.099 794.088 176.999 794.145 183.768ZM457.321 92.3282C426.346 131.194 370.02 227.43 425.337 366.397C425.337 366.397 378.966 321.703 347.9 239.198C344.76 230.854 332.809 231.08 330.066 239.561C318.116 276.432 306.052 352.327 364.215 438.63L296.585 342.44C292.141 336.125 282.413 337.474 279.896 344.764C268.785 376.839 254.669 451.283 325.168 523.539L247.561 445.025C242.538 439.945 233.966 442.054 231.79 448.857C224.363 472.031 219.329 522.042 280.792 579.321C291.064 588.901 319.113 620.409 319.113 620.409L235.758 571.77C230.078 568.448 222.799 571.77 221.665 578.244C217.357 602.779 217.708 657.54 292.209 696.384L305.599 703.867L253.309 690.692C247.776 689.286 242.141 693.073 241.597 698.765C239.93 715.896 248.15 751.043 330.326 779.297L281.721 772.381C276.744 771.678 272.039 774.955 271.098 779.909C268.275 794.705 271.823 825.896 337.866 852.12L387.673 870.204L349.408 868.537C341.891 868.208 336.97 876.371 340.837 882.811C349.181 896.734 367.855 916.314 408.263 922.879C428.625 926.19 526.641 945.532 521.811 929.444C502.423 864.83 495.189 838.208 494.271 772.676C493.523 719.502 514.781 706.452 514.781 706.452C514.781 706.452 496.981 469.424 599.769 437.088C599.769 437.088 474.215 294.05 474.169 98.3373C474.169 92.5097 469.441 88.7568 464.589 88.7568C461.958 88.7568 459.283 89.8566 457.321 92.3282Z" fill="white"/>
</mask>
<g mask="url(#mask12_148_950)">
<path d="M844.712 467.666C844.712 467.666 880.313 360.422 857.784 316C835.245 271.579 914.439 321.148 900.279 358.495C886.106 395.841 844.712 467.666 844.712 467.666Z" fill="white"/>
</g>
<mask id="mask13_148_950" style="mask-type:luminance" maskUnits="userSpaceOnUse" x="220" y="88" width="694" height="932">
<path d="M778.929 744.694C778.929 744.694 756.231 802.041 755.54 817.222C754.859 832.392 632.728 924.852 632.728 924.852C632.728 924.852 624.679 843.979 606.515 786.859C598.908 762.959 557.525 748.912 540.96 781.338C524.407 813.764 566.119 961.643 566.119 961.643C566.119 961.643 582.921 1014.18 607.207 1019.39C631.493 1024.59 745.755 903.208 770.041 857.245C794.326 811.27 796.356 740.533 784.224 742.257C784.224 742.257 783.839 742.166 783.26 742.166C782.081 742.166 780.143 742.529 778.929 744.694ZM813.317 750.034C814.609 759.717 816.424 829.149 797.693 853.05C797.693 853.05 824.938 990.35 873.396 962.573C921.842 934.795 843.407 861.961 825.312 829.013C825.312 829.013 829.405 760.987 819.779 737.767C818.453 734.57 817.274 733.277 816.299 733.277C813.623 733.254 812.365 742.937 813.317 750.034ZM619.781 480.297C570.745 523.04 566.073 584.729 566.436 613.652C567.071 663.64 561.346 716.826 577.921 723.334C588.341 727.415 593.919 723.64 609.769 705.692C624.69 688.799 654.214 673.028 662.365 665.624C697.331 633.822 762.115 537.28 762.115 537.28C762.115 537.28 773.521 547.632 775.743 552.167C781.084 563.04 782.399 638.107 753.17 672.155C740.834 686.52 736.311 690.59 729.542 692.257C723.907 693.651 705.245 687.846 705.245 687.846C705.245 687.846 709.848 736.316 695.188 756.678C678.125 780.374 626.357 740.771 626.357 740.771C645.551 781.293 657.91 855.68 657.91 855.68C657.91 855.68 702.921 824.603 724.1 800.522C744.667 777.154 745.154 764.864 749.338 753.56C750.041 751.678 750.834 748.81 751.809 745.397L710.222 693.221L765.075 713.719C769.44 701.826 777.081 699.547 786.945 699.388C795.381 699.252 799.984 702.007 802.954 704.762C806.956 708.47 807.988 712.189 811.367 708.81C841.968 678.209 823.94 651.781 820.233 624.219C820.233 624.219 806.469 580.205 804.167 565.058C796.106 512.008 759.576 457.281 706.299 451.022C698.85 450.149 692.218 449.73 686.254 449.73C654.418 449.719 641.141 461.669 619.781 480.297ZM794.145 183.768C794.87 271.964 742.977 424.571 742.977 424.571C742.977 424.571 789.439 427.485 818.204 487.78C832.126 516.952 837.648 534.559 842.013 565.103C845.187 587.303 856.65 638.289 856.65 638.289C856.65 638.289 871.015 608.142 876.276 599.276C913.94 535.727 912.217 525.693 913.418 517.428C914.858 507.496 907.341 506.022 901.355 514.061C884.53 536.634 864.655 531.657 864.655 531.657C895.38 505.965 902.013 469.571 901.502 441.136C901.31 430.864 888.033 426.85 882.149 435.274C867.217 456.646 844.723 467.655 844.723 467.655C844.723 467.655 840.528 472.904 867.818 408.891C882.001 375.592 877.455 345.139 869.825 323.574C866.321 313.699 852.126 314.141 849.473 324.288C838.589 365.921 807.999 400.501 807.999 400.501C807.999 400.501 825.573 362.123 832.92 269.788C835.754 234.176 821.174 196.602 814.768 179.901C812.965 175.208 808.952 173.076 804.938 173.076C799.508 173.099 794.088 176.999 794.145 183.768ZM457.321 92.3282C426.346 131.194 370.02 227.43 425.337 366.397C425.337 366.397 378.966 321.703 347.9 239.198C344.76 230.854 332.809 231.08 330.066 239.561C318.116 276.432 306.052 352.327 364.215 438.63L296.585 342.44C292.141 336.125 282.413 337.474 279.896 344.764C268.785 376.839 254.669 451.283 325.168 523.539L247.561 445.025C242.538 439.945 233.966 442.054 231.79 448.857C224.363 472.031 219.329 522.042 280.792 579.321C291.064 588.901 319.113 620.409 319.113 620.409L235.758 571.77C230.078 568.448 222.799 571.77 221.665 578.244C217.357 602.779 217.708 657.54 292.209 696.384L305.599 703.867L253.309 690.692C247.776 689.286 242.141 693.073 241.597 698.765C239.93 715.896 248.15 751.043 330.326 779.297L281.721 772.381C276.744 771.678 272.039 774.955 271.098 779.909C268.275 794.705 271.823 825.896 337.866 852.12L387.673 870.204L349.408 868.537C341.891 868.208 336.97 876.371 340.837 882.811C349.181 896.734 367.855 916.314 408.263 922.879C428.625 926.19 526.641 945.532 521.811 929.444C502.423 864.83 495.189 838.208 494.271 772.676C493.523 719.502 514.781 706.452 514.781 706.452C514.781 706.452 496.981 469.424 599.769 437.088C599.769 437.088 474.215 294.05 474.169 98.3373C474.169 92.5097 469.441 88.7568 464.589 88.7568C461.958 88.7568 459.283 89.8566 457.321 92.3282Z" fill="white"/>
</mask>
<g mask="url(#mask13_148_950)">
<path d="M807.569 398.415C807.569 398.415 832.036 218.79 807.569 169.868C783.102 120.934 877.103 223.303 856.503 258.711C835.902 294.119 821.095 380.388 821.095 380.388L807.569 398.415Z" fill="white"/>
</g>
<mask id="mask14_148_950" style="mask-type:luminance" maskUnits="userSpaceOnUse" x="220" y="88" width="694" height="932">
<path d="M778.929 744.694C778.929 744.694 756.231 802.041 755.54 817.222C754.859 832.392 632.728 924.852 632.728 924.852C632.728 924.852 624.679 843.979 606.515 786.859C598.908 762.959 557.525 748.912 540.96 781.338C524.407 813.764 566.119 961.643 566.119 961.643C566.119 961.643 582.921 1014.18 607.207 1019.39C631.493 1024.59 745.755 903.208 770.041 857.245C794.326 811.27 796.356 740.533 784.224 742.257C784.224 742.257 783.839 742.166 783.26 742.166C782.081 742.166 780.143 742.529 778.929 744.694ZM813.317 750.034C814.609 759.717 816.424 829.149 797.693 853.05C797.693 853.05 824.938 990.35 873.396 962.573C921.842 934.795 843.407 861.961 825.312 829.013C825.312 829.013 829.405 760.987 819.779 737.767C818.453 734.57 817.274 733.277 816.299 733.277C813.623 733.254 812.365 742.937 813.317 750.034ZM619.781 480.297C570.745 523.04 566.073 584.729 566.436 613.652C567.071 663.64 561.346 716.826 577.921 723.334C588.341 727.415 593.919 723.64 609.769 705.692C624.69 688.799 654.214 673.028 662.365 665.624C697.331 633.822 762.115 537.28 762.115 537.28C762.115 537.28 773.521 547.632 775.743 552.167C781.084 563.04 782.399 638.107 753.17 672.155C740.834 686.52 736.311 690.59 729.542 692.257C723.907 693.651 705.245 687.846 705.245 687.846C705.245 687.846 709.848 736.316 695.188 756.678C678.125 780.374 626.357 740.771 626.357 740.771C645.551 781.293 657.91 855.68 657.91 855.68C657.91 855.68 702.921 824.603 724.1 800.522C744.667 777.154 745.154 764.864 749.338 753.56C750.041 751.678 750.834 748.81 751.809 745.397L710.222 693.221L765.075 713.719C769.44 701.826 777.081 699.547 786.945 699.388C795.381 699.252 799.984 702.007 802.954 704.762C806.956 708.47 807.988 712.189 811.367 708.81C841.968 678.209 823.94 651.781 820.233 624.219C820.233 624.219 806.469 580.205 804.167 565.058C796.106 512.008 759.576 457.281 706.299 451.022C698.85 450.149 692.218 449.73 686.254 449.73C654.418 449.719 641.141 461.669 619.781 480.297ZM794.145 183.768C794.87 271.964 742.977 424.571 742.977 424.571C742.977 424.571 789.439 427.485 818.204 487.78C832.126 516.952 837.648 534.559 842.013 565.103C845.187 587.303 856.65 638.289 856.65 638.289C856.65 638.289 871.015 608.142 876.276 599.276C913.94 535.727 912.217 525.693 913.418 517.428C914.858 507.496 907.341 506.022 901.355 514.061C884.53 536.634 864.655 531.657 864.655 531.657C895.38 505.965 902.013 469.571 901.502 441.136C901.31 430.864 888.033 426.85 882.149 435.274C867.217 456.646 844.723 467.655 844.723 467.655C844.723 467.655 840.528 472.904 867.818 408.891C882.001 375.592 877.455 345.139 869.825 323.574C866.321 313.699 852.126 314.141 849.473 324.288C838.589 365.921 807.999 400.501 807.999 400.501C807.999 400.501 825.573 362.123 832.92 269.788C835.754 234.176 821.174 196.602 814.768 179.901C812.965 175.208 808.952 173.076 804.938 173.076C799.508 173.099 794.088 176.999 794.145 183.768ZM457.321 92.3282C426.346 131.194 370.02 227.43 425.337 366.397C425.337 366.397 378.966 321.703 347.9 239.198C344.76 230.854 332.809 231.08 330.066 239.561C318.116 276.432 306.052 352.327 364.215 438.63L296.585 342.44C292.141 336.125 282.413 337.474 279.896 344.764C268.785 376.839 254.669 451.283 325.168 523.539L247.561 445.025C242.538 439.945 233.966 442.054 231.79 448.857C224.363 472.031 219.329 522.042 280.792 579.321C291.064 588.901 319.113 620.409 319.113 620.409L235.758 571.77C230.078 568.448 222.799 571.77 221.665 578.244C217.357 602.779 217.708 657.54 292.209 696.384L305.599 703.867L253.309 690.692C247.776 689.286 242.141 693.073 241.597 698.765C239.93 715.896 248.15 751.043 330.326 779.297L281.721 772.381C276.744 771.678 272.039 774.955 271.098 779.909C268.275 794.705 271.823 825.896 337.866 852.12L387.673 870.204L349.408 868.537C341.891 868.208 336.97 876.371 340.837 882.811C349.181 896.734 367.855 916.314 408.263 922.879C428.625 926.19 526.641 945.532 521.811 929.444C502.423 864.83 495.189 838.208 494.271 772.676C493.523 719.502 514.781 706.452 514.781 706.452C514.781 706.452 496.981 469.424 599.769 437.088C599.769 437.088 474.215 294.05 474.169 98.3373C474.169 92.5097 469.441 88.7568 464.589 88.7568C461.958 88.7568 459.283 89.8566 457.321 92.3282Z" fill="white"/>
</mask>
<g mask="url(#mask14_148_950)">
<path d="M599.894 444.163C599.894 444.163 463.194 403.789 471.527 92.1695C478.387 -164.541 623.794 435.467 623.794 435.467L599.894 444.163Z" fill="#FFE9BC"/>
</g>
<mask id="mask15_148_950" style="mask-type:luminance" maskUnits="userSpaceOnUse" x="220" y="88" width="694" height="932">
<path d="M778.929 744.694C778.929 744.694 756.231 802.041 755.54 817.222C754.859 832.392 632.728 924.852 632.728 924.852C632.728 924.852 624.679 843.979 606.515 786.859C598.908 762.959 557.525 748.912 540.96 781.338C524.407 813.764 566.119 961.643 566.119 961.643C566.119 961.643 582.921 1014.18 607.207 1019.39C631.493 1024.59 745.755 903.208 770.041 857.245C794.326 811.27 796.356 740.533 784.224 742.257C784.224 742.257 783.839 742.166 783.26 742.166C782.081 742.166 780.143 742.529 778.929 744.694ZM813.317 750.034C814.609 759.717 816.424 829.149 797.693 853.05C797.693 853.05 824.938 990.35 873.396 962.573C921.842 934.795 843.407 861.961 825.312 829.013C825.312 829.013 829.405 760.987 819.779 737.767C818.453 734.57 817.274 733.277 816.299 733.277C813.623 733.254 812.365 742.937 813.317 750.034ZM619.781 480.297C570.745 523.04 566.073 584.729 566.436 613.652C567.071 663.64 561.346 716.826 577.921 723.334C588.341 727.415 593.919 723.64 609.769 705.692C624.69 688.799 654.214 673.028 662.365 665.624C697.331 633.822 762.115 537.28 762.115 537.28C762.115 537.28 773.521 547.632 775.743 552.167C781.084 563.04 782.399 638.107 753.17 672.155C740.834 686.52 736.311 690.59 729.542 692.257C723.907 693.651 705.245 687.846 705.245 687.846C705.245 687.846 709.848 736.316 695.188 756.678C678.125 780.374 626.357 740.771 626.357 740.771C645.551 781.293 657.91 855.68 657.91 855.68C657.91 855.68 702.921 824.603 724.1 800.522C744.667 777.154 745.154 764.864 749.338 753.56C750.041 751.678 750.834 748.81 751.809 745.397L710.222 693.221L765.075 713.719C769.44 701.826 777.081 699.547 786.945 699.388C795.381 699.252 799.984 702.007 802.954 704.762C806.956 708.47 807.988 712.189 811.367 708.81C841.968 678.209 823.94 651.781 820.233 624.219C820.233 624.219 806.469 580.205 804.167 565.058C796.106 512.008 759.576 457.281 706.299 451.022C698.85 450.149 692.218 449.73 686.254 449.73C654.418 449.719 641.141 461.669 619.781 480.297ZM794.145 183.768C794.87 271.964 742.977 424.571 742.977 424.571C742.977 424.571 789.439 427.485 818.204 487.78C832.126 516.952 837.648 534.559 842.013 565.103C845.187 587.303 856.65 638.289 856.65 638.289C856.65 638.289 871.015 608.142 876.276 599.276C913.94 535.727 912.217 525.693 913.418 517.428C914.858 507.496 907.341 506.022 901.355 514.061C884.53 536.634 864.655 531.657 864.655 531.657C895.38 505.965 902.013 469.571 901.502 441.136C901.31 430.864 888.033 426.85 882.149 435.274C867.217 456.646 844.723 467.655 844.723 467.655C844.723 467.655 840.528 472.904 867.818 408.891C882.001 375.592 877.455 345.139 869.825 323.574C866.321 313.699 852.126 314.141 849.473 324.288C838.589 365.921 807.999 400.501 807.999 400.501C807.999 400.501 825.573 362.123 832.92 269.788C835.754 234.176 821.174 196.602 814.768 179.901C812.965 175.208 808.952 173.076 804.938 173.076C799.508 173.099 794.088 176.999 794.145 183.768ZM457.321 92.3282C426.346 131.194 370.02 227.43 425.337 366.397C425.337 366.397 378.966 321.703 347.9 239.198C344.76 230.854 332.809 231.08 330.066 239.561C318.116 276.432 306.052 352.327 364.215 438.63L296.585 342.44C292.141 336.125 282.413 337.474 279.896 344.764C268.785 376.839 254.669 451.283 325.168 523.539L247.561 445.025C242.538 439.945 233.966 442.054 231.79 448.857C224.363 472.031 219.329 522.042 280.792 579.321C291.064 588.901 319.113 620.409 319.113 620.409L235.758 571.77C230.078 568.448 222.799 571.77 221.665 578.244C217.357 602.779 217.708 657.54 292.209 696.384L305.599 703.867L253.309 690.692C247.776 689.286 242.141 693.073 241.597 698.765C239.93 715.896 248.15 751.043 330.326 779.297L281.721 772.381C276.744 771.678 272.039 774.955 271.098 779.909C268.275 794.705 271.823 825.896 337.866 852.12L387.673 870.204L349.408 868.537C341.891 868.208 336.97 876.371 340.837 882.811C349.181 896.734 367.855 916.314 408.263 922.879C428.625 926.19 526.641 945.532 521.811 929.444C502.423 864.83 495.189 838.208 494.271 772.676C493.523 719.502 514.781 706.452 514.781 706.452C514.781 706.452 496.981 469.424 599.769 437.088C599.769 437.088 474.215 294.05 474.169 98.3373C474.169 92.5097 469.441 88.7568 464.589 88.7568C461.958 88.7568 459.283 89.8566 457.321 92.3282Z" fill="white"/>
</mask>
<g mask="url(#mask15_148_950)">
<path d="M344.749 230.786C344.749 230.786 368.865 317.508 396.767 348.2C402.708 354.742 435.519 387.225 416.427 350.116C397.334 312.985 344.749 230.786 344.749 230.786Z" fill="#FFD78E"/>
</g>
<mask id="mask16_148_950" style="mask-type:luminance" maskUnits="userSpaceOnUse" x="220" y="88" width="694" height="932">
<path d="M778.929 744.694C778.929 744.694 756.231 802.041 755.54 817.222C754.859 832.392 632.728 924.852 632.728 924.852C632.728 924.852 624.679 843.979 606.515 786.859C598.908 762.959 557.525 748.912 540.96 781.338C524.407 813.764 566.119 961.643 566.119 961.643C566.119 961.643 582.921 1014.18 607.207 1019.39C631.493 1024.59 745.755 903.208 770.041 857.245C794.326 811.27 796.356 740.533 784.224 742.257C784.224 742.257 783.839 742.166 783.26 742.166C782.081 742.166 780.143 742.529 778.929 744.694ZM813.317 750.034C814.609 759.717 816.424 829.149 797.693 853.05C797.693 853.05 824.938 990.35 873.396 962.573C921.842 934.795 843.407 861.961 825.312 829.013C825.312 829.013 829.405 760.987 819.779 737.767C818.453 734.57 817.274 733.277 816.299 733.277C813.623 733.254 812.365 742.937 813.317 750.034ZM619.781 480.297C570.745 523.04 566.073 584.729 566.436 613.652C567.071 663.64 561.346 716.826 577.921 723.334C588.341 727.415 593.919 723.64 609.769 705.692C624.69 688.799 654.214 673.028 662.365 665.624C697.331 633.822 762.115 537.28 762.115 537.28C762.115 537.28 773.521 547.632 775.743 552.167C781.084 563.04 782.399 638.107 753.17 672.155C740.834 686.52 736.311 690.59 729.542 692.257C723.907 693.651 705.245 687.846 705.245 687.846C705.245 687.846 709.848 736.316 695.188 756.678C678.125 780.374 626.357 740.771 626.357 740.771C645.551 781.293 657.91 855.68 657.91 855.68C657.91 855.68 702.921 824.603 724.1 800.522C744.667 777.154 745.154 764.864 749.338 753.56C750.041 751.678 750.834 748.81 751.809 745.397L710.222 693.221L765.075 713.719C769.44 701.826 777.081 699.547 786.945 699.388C795.381 699.252 799.984 702.007 802.954 704.762C806.956 708.47 807.988 712.189 811.367 708.81C841.968 678.209 823.94 651.781 820.233 624.219C820.233 624.219 806.469 580.205 804.167 565.058C796.106 512.008 759.576 457.281 706.299 451.022C698.85 450.149 692.218 449.73 686.254 449.73C654.418 449.719 641.141 461.669 619.781 480.297ZM794.145 183.768C794.87 271.964 742.977 424.571 742.977 424.571C742.977 424.571 789.439 427.485 818.204 487.78C832.126 516.952 837.648 534.559 842.013 565.103C845.187 587.303 856.65 638.289 856.65 638.289C856.65 638.289 871.015 608.142 876.276 599.276C913.94 535.727 912.217 525.693 913.418 517.428C914.858 507.496 907.341 506.022 901.355 514.061C884.53 536.634 864.655 531.657 864.655 531.657C895.38 505.965 902.013 469.571 901.502 441.136C901.31 430.864 888.033 426.85 882.149 435.274C867.217 456.646 844.723 467.655 844.723 467.655C844.723 467.655 840.528 472.904 867.818 408.891C882.001 375.592 877.455 345.139 869.825 323.574C866.321 313.699 852.126 314.141 849.473 324.288C838.589 365.921 807.999 400.501 807.999 400.501C807.999 400.501 825.573 362.123 832.92 269.788C835.754 234.176 821.174 196.602 814.768 179.901C812.965 175.208 808.952 173.076 804.938 173.076C799.508 173.099 794.088 176.999 794.145 183.768ZM457.321 92.3282C426.346 131.194 370.02 227.43 425.337 366.397C425.337 366.397 378.966 321.703 347.9 239.198C344.76 230.854 332.809 231.08 330.066 239.561C318.116 276.432 306.052 352.327 364.215 438.63L296.585 342.44C292.141 336.125 282.413 337.474 279.896 344.764C268.785 376.839 254.669 451.283 325.168 523.539L247.561 445.025C242.538 439.945 233.966 442.054 231.79 448.857C224.363 472.031 219.329 522.042 280.792 579.321C291.064 588.901 319.113 620.409 319.113 620.409L235.758 571.77C230.078 568.448 222.799 571.77 221.665 578.244C217.357 602.779 217.708 657.54 292.209 696.384L305.599 703.867L253.309 690.692C247.776 689.286 242.141 693.073 241.597 698.765C239.93 715.896 248.15 751.043 330.326 779.297L281.721 772.381C276.744 771.678 272.039 774.955 271.098 779.909C268.275 794.705 271.823 825.896 337.866 852.12L387.673 870.204L349.408 868.537C341.891 868.208 336.97 876.371 340.837 882.811C349.181 896.734 367.855 916.314 408.263 922.879C428.625 926.19 526.641 945.532 521.811 929.444C502.423 864.83 495.189 838.208 494.271 772.676C493.523 719.502 514.781 706.452 514.781 706.452C514.781 706.452 496.981 469.424 599.769 437.088C599.769 437.088 474.215 294.05 474.169 98.3373C474.169 92.5097 469.441 88.7568 464.589 88.7568C461.958 88.7568 459.283 89.8566 457.321 92.3282Z" fill="white"/>
</mask>
<g mask="url(#mask16_148_950)">
<path d="M292.389 336.817C292.389 336.817 306.913 395.263 356.323 429.537C356.323 429.537 354.215 417.667 321.72 371.692C289.215 325.728 292.389 336.817 292.389 336.817Z" fill="#FFD78E"/>
</g>
<mask id="mask17_148_950" style="mask-type:luminance" maskUnits="userSpaceOnUse" x="220" y="88" width="694" height="932">
<path d="M778.929 744.694C778.929 744.694 756.231 802.041 755.54 817.222C754.859 832.392 632.728 924.852 632.728 924.852C632.728 924.852 624.679 843.979 606.515 786.859C598.908 762.959 557.525 748.912 540.96 781.338C524.407 813.764 566.119 961.643 566.119 961.643C566.119 961.643 582.921 1014.18 607.207 1019.39C631.493 1024.59 745.755 903.208 770.041 857.245C794.326 811.27 796.356 740.533 784.224 742.257C784.224 742.257 783.839 742.166 783.26 742.166C782.081 742.166 780.143 742.529 778.929 744.694ZM813.317 750.034C814.609 759.717 816.424 829.149 797.693 853.05C797.693 853.05 824.938 990.35 873.396 962.573C921.842 934.795 843.407 861.961 825.312 829.013C825.312 829.013 829.405 760.987 819.779 737.767C818.453 734.57 817.274 733.277 816.299 733.277C813.623 733.254 812.365 742.937 813.317 750.034ZM619.781 480.297C570.745 523.04 566.073 584.729 566.436 613.652C567.071 663.64 561.346 716.826 577.921 723.334C588.341 727.415 593.919 723.64 609.769 705.692C624.69 688.799 654.214 673.028 662.365 665.624C697.331 633.822 762.115 537.28 762.115 537.28C762.115 537.28 773.521 547.632 775.743 552.167C781.084 563.04 782.399 638.107 753.17 672.155C740.834 686.52 736.311 690.59 729.542 692.257C723.907 693.651 705.245 687.846 705.245 687.846C705.245 687.846 709.848 736.316 695.188 756.678C678.125 780.374 626.357 740.771 626.357 740.771C645.551 781.293 657.91 855.68 657.91 855.68C657.91 855.68 702.921 824.603 724.1 800.522C744.667 777.154 745.154 764.864 749.338 753.56C750.041 751.678 750.834 748.81 751.809 745.397L710.222 693.221L765.075 713.719C769.44 701.826 777.081 699.547 786.945 699.388C795.381 699.252 799.984 702.007 802.954 704.762C806.956 708.47 807.988 712.189 811.367 708.81C841.968 678.209 823.94 651.781 820.233 624.219C820.233 624.219 806.469 580.205 804.167 565.058C796.106 512.008 759.576 457.281 706.299 451.022C698.85 450.149 692.218 449.73 686.254 449.73C654.418 449.719 641.141 461.669 619.781 480.297ZM794.145 183.768C794.87 271.964 742.977 424.571 742.977 424.571C742.977 424.571 789.439 427.485 818.204 487.78C832.126 516.952 837.648 534.559 842.013 565.103C845.187 587.303 856.65 638.289 856.65 638.289C856.65 638.289 871.015 608.142 876.276 599.276C913.94 535.727 912.217 525.693 913.418 517.428C914.858 507.496 907.341 506.022 901.355 514.061C884.53 536.634 864.655 531.657 864.655 531.657C895.38 505.965 902.013 469.571 901.502 441.136C901.31 430.864 888.033 426.85 882.149 435.274C867.217 456.646 844.723 467.655 844.723 467.655C844.723 467.655 840.528 472.904 867.818 408.891C882.001 375.592 877.455 345.139 869.825 323.574C866.321 313.699 852.126 314.141 849.473 324.288C838.589 365.921 807.999 400.501 807.999 400.501C807.999 400.501 825.573 362.123 832.92 269.788C835.754 234.176 821.174 196.602 814.768 179.901C812.965 175.208 808.952 173.076 804.938 173.076C799.508 173.099 794.088 176.999 794.145 183.768ZM457.321 92.3282C426.346 131.194 370.02 227.43 425.337 366.397C425.337 366.397 378.966 321.703 347.9 239.198C344.76 230.854 332.809 231.08 330.066 239.561C318.116 276.432 306.052 352.327 364.215 438.63L296.585 342.44C292.141 336.125 282.413 337.474 279.896 344.764C268.785 376.839 254.669 451.283 325.168 523.539L247.561 445.025C242.538 439.945 233.966 442.054 231.79 448.857C224.363 472.031 219.329 522.042 280.792 579.321C291.064 588.901 319.113 620.409 319.113 620.409L235.758 571.77C230.078 568.448 222.799 571.77 221.665 578.244C217.357 602.779 217.708 657.54 292.209 696.384L305.599 703.867L253.309 690.692C247.776 689.286 242.141 693.073 241.597 698.765C239.93 715.896 248.15 751.043 330.326 779.297L281.721 772.381C276.744 771.678 272.039 774.955 271.098 779.909C268.275 794.705 271.823 825.896 337.866 852.12L387.673 870.204L349.408 868.537C341.891 868.208 336.97 876.371 340.837 882.811C349.181 896.734 367.855 916.314 408.263 922.879C428.625 926.19 526.641 945.532 521.811 929.444C502.423 864.83 495.189 838.208 494.271 772.676C493.523 719.502 514.781 706.452 514.781 706.452C514.781 706.452 496.981 469.424 599.769 437.088C599.769 437.088 474.215 294.05 474.169 98.3373C474.169 92.5097 469.441 88.7568 464.589 88.7568C461.958 88.7568 459.283 89.8566 457.321 92.3282Z" fill="white"/>
</mask>
<g mask="url(#mask17_148_950)">
<path d="M233.66 437.156C233.66 437.156 261.733 492.292 317.175 515.591C317.175 515.591 306.132 501.181 269.579 465.195C229.443 425.716 233.66 437.156 233.66 437.156Z" fill="#FFD78E"/>
</g>
<mask id="mask18_148_950" style="mask-type:luminance" maskUnits="userSpaceOnUse" x="220" y="88" width="694" height="932">
<path d="M778.929 744.694C778.929 744.694 756.231 802.041 755.54 817.222C754.859 832.392 632.728 924.852 632.728 924.852C632.728 924.852 624.679 843.979 606.515 786.859C598.908 762.959 557.525 748.912 540.96 781.338C524.407 813.764 566.119 961.643 566.119 961.643C566.119 961.643 582.921 1014.18 607.207 1019.39C631.493 1024.59 745.755 903.208 770.041 857.245C794.326 811.27 796.356 740.533 784.224 742.257C784.224 742.257 783.839 742.166 783.26 742.166C782.081 742.166 780.143 742.529 778.929 744.694ZM813.317 750.034C814.609 759.717 816.424 829.149 797.693 853.05C797.693 853.05 824.938 990.35 873.396 962.573C921.842 934.795 843.407 861.961 825.312 829.013C825.312 829.013 829.405 760.987 819.779 737.767C818.453 734.57 817.274 733.277 816.299 733.277C813.623 733.254 812.365 742.937 813.317 750.034ZM619.781 480.297C570.745 523.04 566.073 584.729 566.436 613.652C567.071 663.64 561.346 716.826 577.921 723.334C588.341 727.415 593.919 723.64 609.769 705.692C624.69 688.799 654.214 673.028 662.365 665.624C697.331 633.822 762.115 537.28 762.115 537.28C762.115 537.28 773.521 547.632 775.743 552.167C781.084 563.04 782.399 638.107 753.17 672.155C740.834 686.52 736.311 690.59 729.542 692.257C723.907 693.651 705.245 687.846 705.245 687.846C705.245 687.846 709.848 736.316 695.188 756.678C678.125 780.374 626.357 740.771 626.357 740.771C645.551 781.293 657.91 855.68 657.91 855.68C657.91 855.68 702.921 824.603 724.1 800.522C744.667 777.154 745.154 764.864 749.338 753.56C750.041 751.678 750.834 748.81 751.809 745.397L710.222 693.221L765.075 713.719C769.44 701.826 777.081 699.547 786.945 699.388C795.381 699.252 799.984 702.007 802.954 704.762C806.956 708.47 807.988 712.189 811.367 708.81C841.968 678.209 823.94 651.781 820.233 624.219C820.233 624.219 806.469 580.205 804.167 565.058C796.106 512.008 759.576 457.281 706.299 451.022C698.85 450.149 692.218 449.73 686.254 449.73C654.418 449.719 641.141 461.669 619.781 480.297ZM794.145 183.768C794.87 271.964 742.977 424.571 742.977 424.571C742.977 424.571 789.439 427.485 818.204 487.78C832.126 516.952 837.648 534.559 842.013 565.103C845.187 587.303 856.65 638.289 856.65 638.289C856.65 638.289 871.015 608.142 876.276 599.276C913.94 535.727 912.217 525.693 913.418 517.428C914.858 507.496 907.341 506.022 901.355 514.061C884.53 536.634 864.655 531.657 864.655 531.657C895.38 505.965 902.013 469.571 901.502 441.136C901.31 430.864 888.033 426.85 882.149 435.274C867.217 456.646 844.723 467.655 844.723 467.655C844.723 467.655 840.528 472.904 867.818 408.891C882.001 375.592 877.455 345.139 869.825 323.574C866.321 313.699 852.126 314.141 849.473 324.288C838.589 365.921 807.999 400.501 807.999 400.501C807.999 400.501 825.573 362.123 832.92 269.788C835.754 234.176 821.174 196.602 814.768 179.901C812.965 175.208 808.952 173.076 804.938 173.076C799.508 173.099 794.088 176.999 794.145 183.768ZM457.321 92.3282C426.346 131.194 370.02 227.43 425.337 366.397C425.337 366.397 378.966 321.703 347.9 239.198C344.76 230.854 332.809 231.08 330.066 239.561C318.116 276.432 306.052 352.327 364.215 438.63L296.585 342.44C292.141 336.125 282.413 337.474 279.896 344.764C268.785 376.839 254.669 451.283 325.168 523.539L247.561 445.025C242.538 439.945 233.966 442.054 231.79 448.857C224.363 472.031 219.329 522.042 280.792 579.321C291.064 588.901 319.113 620.409 319.113 620.409L235.758 571.77C230.078 568.448 222.799 571.77 221.665 578.244C217.357 602.779 217.708 657.54 292.209 696.384L305.599 703.867L253.309 690.692C247.776 689.286 242.141 693.073 241.597 698.765C239.93 715.896 248.15 751.043 330.326 779.297L281.721 772.381C276.744 771.678 272.039 774.955 271.098 779.909C268.275 794.705 271.823 825.896 337.866 852.12L387.673 870.204L349.408 868.537C341.891 868.208 336.97 876.371 340.837 882.811C349.181 896.734 367.855 916.314 408.263 922.879C428.625 926.19 526.641 945.532 521.811 929.444C502.423 864.83 495.189 838.208 494.271 772.676C493.523 719.502 514.781 706.452 514.781 706.452C514.781 706.452 496.981 469.424 599.769 437.088C599.769 437.088 474.215 294.05 474.169 98.3373C474.169 92.5097 469.441 88.7568 464.589 88.7568C461.958 88.7568 459.283 89.8566 457.321 92.3282Z" fill="white"/>
</mask>
<g mask="url(#mask18_148_950)">
<path d="M217.991 563.097C217.991 563.097 258.308 610.035 317.684 619.57C317.684 619.57 303.546 608.176 259.521 581.849C211.2 552.972 217.991 563.097 217.991 563.097Z" fill="#FFD78E"/>
</g>
<mask id="mask19_148_950" style="mask-type:luminance" maskUnits="userSpaceOnUse" x="220" y="88" width="694" height="932">
<path d="M778.929 744.694C778.929 744.694 756.231 802.041 755.54 817.222C754.859 832.392 632.728 924.852 632.728 924.852C632.728 924.852 624.679 843.979 606.515 786.859C598.908 762.959 557.525 748.912 540.96 781.338C524.407 813.764 566.119 961.643 566.119 961.643C566.119 961.643 582.921 1014.18 607.207 1019.39C631.493 1024.59 745.755 903.208 770.041 857.245C794.326 811.27 796.356 740.533 784.224 742.257C784.224 742.257 783.839 742.166 783.26 742.166C782.081 742.166 780.143 742.529 778.929 744.694ZM813.317 750.034C814.609 759.717 816.424 829.149 797.693 853.05C797.693 853.05 824.938 990.35 873.396 962.573C921.842 934.795 843.407 861.961 825.312 829.013C825.312 829.013 829.405 760.987 819.779 737.767C818.453 734.57 817.274 733.277 816.299 733.277C813.623 733.254 812.365 742.937 813.317 750.034ZM619.781 480.297C570.745 523.04 566.073 584.729 566.436 613.652C567.071 663.64 561.346 716.826 577.921 723.334C588.341 727.415 593.919 723.64 609.769 705.692C624.69 688.799 654.214 673.028 662.365 665.624C697.331 633.822 762.115 537.28 762.115 537.28C762.115 537.28 773.521 547.632 775.743 552.167C781.084 563.04 782.399 638.107 753.17 672.155C740.834 686.52 736.311 690.59 729.542 692.257C723.907 693.651 705.245 687.846 705.245 687.846C705.245 687.846 709.848 736.316 695.188 756.678C678.125 780.374 626.357 740.771 626.357 740.771C645.551 781.293 657.91 855.68 657.91 855.68C657.91 855.68 702.921 824.603 724.1 800.522C744.667 777.154 745.154 764.864 749.338 753.56C750.041 751.678 750.834 748.81 751.809 745.397L710.222 693.221L765.075 713.719C769.44 701.826 777.081 699.547 786.945 699.388C795.381 699.252 799.984 702.007 802.954 704.762C806.956 708.47 807.988 712.189 811.367 708.81C841.968 678.209 823.94 651.781 820.233 624.219C820.233 624.219 806.469 580.205 804.167 565.058C796.106 512.008 759.576 457.281 706.299 451.022C698.85 450.149 692.218 449.73 686.254 449.73C654.418 449.719 641.141 461.669 619.781 480.297ZM794.145 183.768C794.87 271.964 742.977 424.571 742.977 424.571C742.977 424.571 789.439 427.485 818.204 487.78C832.126 516.952 837.648 534.559 842.013 565.103C845.187 587.303 856.65 638.289 856.65 638.289C856.65 638.289 871.015 608.142 876.276 599.276C913.94 535.727 912.217 525.693 913.418 517.428C914.858 507.496 907.341 506.022 901.355 514.061C884.53 536.634 864.655 531.657 864.655 531.657C895.38 505.965 902.013 469.571 901.502 441.136C901.31 430.864 888.033 426.85 882.149 435.274C867.217 456.646 844.723 467.655 844.723 467.655C844.723 467.655 840.528 472.904 867.818 408.891C882.001 375.592 877.455 345.139 869.825 323.574C866.321 313.699 852.126 314.141 849.473 324.288C838.589 365.921 807.999 400.501 807.999 400.501C807.999 400.501 825.573 362.123 832.92 269.788C835.754 234.176 821.174 196.602 814.768 179.901C812.965 175.208 808.952 173.076 804.938 173.076C799.508 173.099 794.088 176.999 794.145 183.768ZM457.321 92.3282C426.346 131.194 370.02 227.43 425.337 366.397C425.337 366.397 378.966 321.703 347.9 239.198C344.76 230.854 332.809 231.08 330.066 239.561C318.116 276.432 306.052 352.327 364.215 438.63L296.585 342.44C292.141 336.125 282.413 337.474 279.896 344.764C268.785 376.839 254.669 451.283 325.168 523.539L247.561 445.025C242.538 439.945 233.966 442.054 231.79 448.857C224.363 472.031 219.329 522.042 280.792 579.321C291.064 588.901 319.113 620.409 319.113 620.409L235.758 571.77C230.078 568.448 222.799 571.77 221.665 578.244C217.357 602.779 217.708 657.54 292.209 696.384L305.599 703.867L253.309 690.692C247.776 689.286 242.141 693.073 241.597 698.765C239.93 715.896 248.15 751.043 330.326 779.297L281.721 772.381C276.744 771.678 272.039 774.955 271.098 779.909C268.275 794.705 271.823 825.896 337.866 852.12L387.673 870.204L349.408 868.537C341.891 868.208 336.97 876.371 340.837 882.811C349.181 896.734 367.855 916.314 408.263 922.879C428.625 926.19 526.641 945.532 521.811 929.444C502.423 864.83 495.189 838.208 494.271 772.676C493.523 719.502 514.781 706.452 514.781 706.452C514.781 706.452 496.981 469.424 599.769 437.088C599.769 437.088 474.215 294.05 474.169 98.3373C474.169 92.5097 469.441 88.7568 464.589 88.7568C461.958 88.7568 459.283 89.8566 457.321 92.3282Z" fill="white"/>
</mask>
<g mask="url(#mask19_148_950)">
<path d="M195.645 678.935C195.645 678.935 247.606 712.529 307.243 704.853C307.243 704.853 290.463 697.937 240.781 685.159C186.246 671.146 195.645 678.935 195.645 678.935Z" fill="#FFD78E"/>
</g>
</g>
<defs>
<linearGradient id="paint0_linear_148_950" x1="566.89" y1="2" x2="566.89" y2="1135.78" gradientUnits="userSpaceOnUse">
<stop stop-color="#FBB042"/>
<stop offset="0.461538" stop-color="#432D0B"/>
</linearGradient>
<linearGradient id="paint1_linear_148_950" x1="220.125" y1="556.65" x2="913.52" y2="556.65" gradientUnits="userSpaceOnUse">
<stop stop-color="#FBB03C"/>
<stop offset="0.5307" stop-color="#B7792A"/>
<stop offset="0.9525" stop-color="#FDDB47"/>
<stop offset="1" stop-color="#FDDB47"/>
</linearGradient>
<clipPath id="clip0_148_950">
<rect width="1134" height="704" fill="white"/>
</clipPath>
</defs>
</svg>
