<svg width="16" height="18" viewBox="0 0 16 18" fill="none" xmlns="http://www.w3.org/2000/svg">
<path d="M8 17.0834C7.86111 17.0834 7.72222 17.066 7.58333 17.0313C7.44444 16.9965 7.3125 16.9445 7.1875 16.875L1.35417 13.6459C1.09028 13.4931 0.881944 13.2882 0.729167 13.0313C0.576389 12.7743 0.5 12.4931 0.5 12.1875V5.81252C0.5 5.50696 0.576389 5.22571 0.729167 4.96877C0.881944 4.71183 1.09028 4.50696 1.35417 4.35419L7.1875 1.12502C7.3125 1.05558 7.44444 1.00349 7.58333 0.96877C7.72222 0.934048 7.86111 0.916687 8 0.916687C8.13889 0.916687 8.27778 0.934048 8.41667 0.96877C8.55556 1.00349 8.6875 1.05558 8.8125 1.12502L14.6458 4.35419C14.9097 4.50696 15.1181 4.71183 15.2708 4.96877C15.4236 5.22571 15.5 5.50696 15.5 5.81252V12.1875C15.5 12.4931 15.4236 12.7743 15.2708 13.0313C15.1181 13.2882 14.9097 13.4931 14.6458 13.6459L8.8125 16.875C8.6875 16.9445 8.55556 16.9965 8.41667 17.0313C8.27778 17.066 8.13889 17.0834 8 17.0834ZM5.58333 6.70835C5.88889 6.38891 6.24653 6.13544 6.65625 5.94794C7.06597 5.76044 7.51389 5.66669 8 5.66669C8.48611 5.66669 8.93403 5.76044 9.34375 5.94794C9.75347 6.13544 10.1111 6.38891 10.4167 6.70835L12.9167 5.31252L8 2.58335L3.08333 5.31252L5.58333 6.70835ZM7.16667 14.9584V12.2292C6.44444 12.0347 5.84722 11.6424 5.375 11.0521C4.90278 10.4618 4.66667 9.7778 4.66667 9.00002C4.66667 8.84724 4.67361 8.70141 4.6875 8.56252C4.70139 8.42363 4.72917 8.29169 4.77083 8.16669L2.16667 6.70835V12.1875L7.16667 14.9584ZM8 10.6667C8.45833 10.6667 8.85069 10.5035 9.17708 10.1771C9.50347 9.85071 9.66667 9.45835 9.66667 9.00002C9.66667 8.54169 9.50347 8.14933 9.17708 7.82294C8.85069 7.49655 8.45833 7.33335 8 7.33335C7.54167 7.33335 7.14931 7.49655 6.82292 7.82294C6.49653 8.14933 6.33333 8.54169 6.33333 9.00002C6.33333 9.45835 6.49653 9.85071 6.82292 10.1771C7.14931 10.5035 7.54167 10.6667 8 10.6667ZM8.83333 14.9584L13.8333 12.1875V6.70835L11.2292 8.16669C11.2708 8.30558 11.2986 8.44099 11.3125 8.57294C11.3264 8.70488 11.3333 8.84724 11.3333 9.00002C11.3333 9.7778 11.0972 10.4618 10.625 11.0521C10.1528 11.6424 9.55556 12.0347 8.83333 12.2292V14.9584Z" fill="#432C00"/>
</svg>