<svg width="14" height="18" viewBox="0 0 14 18" fill="none" xmlns="http://www.w3.org/2000/svg">
<path d="M4.50016 14H9.50016C9.73627 14 9.93419 13.9202 10.0939 13.7604C10.2536 13.6007 10.3335 13.4028 10.3335 13.1667C10.3335 12.9306 10.2536 12.7327 10.0939 12.5729C9.93419 12.4132 9.73627 12.3334 9.50016 12.3334H4.50016C4.26405 12.3334 4.06613 12.4132 3.90641 12.5729C3.74669 12.7327 3.66683 12.9306 3.66683 13.1667C3.66683 13.4028 3.74669 13.6007 3.90641 13.7604C4.06613 13.9202 4.26405 14 4.50016 14ZM4.50016 10.6667H9.50016C9.73627 10.6667 9.93419 10.5868 10.0939 10.4271C10.2536 10.2674 10.3335 10.0695 10.3335 9.83335C10.3335 9.59724 10.2536 9.39933 10.0939 9.2396C9.93419 9.07988 9.73627 9.00002 9.50016 9.00002H4.50016C4.26405 9.00002 4.06613 9.07988 3.90641 9.2396C3.74669 9.39933 3.66683 9.59724 3.66683 9.83335C3.66683 10.0695 3.74669 10.2674 3.90641 10.4271C4.06613 10.5868 4.26405 10.6667 4.50016 10.6667ZM2.00016 17.3334C1.54183 17.3334 1.14947 17.1702 0.823079 16.8438C0.496691 16.5174 0.333496 16.125 0.333496 15.6667V2.33335C0.333496 1.87502 0.496691 1.48266 0.823079 1.15627C1.14947 0.829881 1.54183 0.666687 2.00016 0.666687H7.97933C8.20155 0.666687 8.41336 0.708354 8.61475 0.791687C8.81613 0.87502 8.99322 0.993076 9.146 1.14585L13.1877 5.18752C13.3404 5.3403 13.4585 5.51738 13.5418 5.71877C13.6252 5.92016 13.6668 6.13197 13.6668 6.35419V15.6667C13.6668 16.125 13.5036 16.5174 13.1772 16.8438C12.8509 17.1702 12.4585 17.3334 12.0002 17.3334H2.00016ZM7.8335 5.66669V2.33335H2.00016V15.6667H12.0002V6.50002H8.66683C8.43072 6.50002 8.2328 6.42016 8.07308 6.26044C7.91336 6.10072 7.8335 5.9028 7.8335 5.66669Z" fill="#432C00"/>
</svg>